G04 #@! TF.GenerationSoftware,KiCad,Pcbnew,(5.1.8)-1*
G04 #@! TF.CreationDate,2023-05-08T00:15:06-06:00*
G04 #@! TF.ProjectId,CH376S ISA,43483337-3653-4204-9953-412e6b696361,rev?*
G04 #@! TF.SameCoordinates,Original*
G04 #@! TF.FileFunction,Legend,Top*
G04 #@! TF.FilePolarity,Positive*
%FSLAX46Y46*%
G04 Gerber Fmt 4.6, Leading zero omitted, Abs format (unit mm)*
G04 Created by KiCad (PCBNEW (5.1.8)-1) date 2023-05-08 00:15:06*
%MOMM*%
%LPD*%
G01*
G04 APERTURE LIST*
%ADD10C,0.101600*%
%ADD11C,0.300000*%
%ADD12C,0.120000*%
%ADD13C,0.150000*%
G04 APERTURE END LIST*
D10*
X185767738Y-96858182D02*
X185767738Y-96918659D01*
X185737500Y-96979135D01*
X185707261Y-97009373D01*
X185646785Y-97039611D01*
X185525833Y-97069849D01*
X185374642Y-97069849D01*
X185253690Y-97039611D01*
X185193214Y-97009373D01*
X185162976Y-96979135D01*
X185132738Y-96918659D01*
X185132738Y-96858182D01*
X185162976Y-96797706D01*
X185193214Y-96767468D01*
X185253690Y-96737230D01*
X185374642Y-96706992D01*
X185525833Y-96706992D01*
X185646785Y-96737230D01*
X185707261Y-96767468D01*
X185737500Y-96797706D01*
X185767738Y-96858182D01*
X185767738Y-97281516D02*
X185132738Y-97704849D01*
X185767738Y-97704849D02*
X185132738Y-97281516D01*
X185465357Y-97946754D02*
X185465357Y-98158420D01*
X185132738Y-98249135D02*
X185132738Y-97946754D01*
X185767738Y-97946754D01*
X185767738Y-98249135D01*
X185767738Y-98642230D02*
X185767738Y-98702706D01*
X185737500Y-98763182D01*
X185707261Y-98793420D01*
X185646785Y-98823659D01*
X185525833Y-98853897D01*
X185374642Y-98853897D01*
X185253690Y-98823659D01*
X185193214Y-98793420D01*
X185162976Y-98763182D01*
X185132738Y-98702706D01*
X185132738Y-98642230D01*
X185162976Y-98581754D01*
X185193214Y-98551516D01*
X185253690Y-98521278D01*
X185374642Y-98491040D01*
X185525833Y-98491040D01*
X185646785Y-98521278D01*
X185707261Y-98551516D01*
X185737500Y-98581754D01*
X185767738Y-98642230D01*
X185193214Y-99126040D02*
X185162976Y-99156278D01*
X185132738Y-99126040D01*
X185162976Y-99095801D01*
X185193214Y-99126040D01*
X185132738Y-99126040D01*
X185193214Y-99428420D02*
X185162976Y-99458659D01*
X185132738Y-99428420D01*
X185162976Y-99398182D01*
X185193214Y-99428420D01*
X185132738Y-99428420D01*
X185193214Y-99730801D02*
X185162976Y-99761040D01*
X185132738Y-99730801D01*
X185162976Y-99700563D01*
X185193214Y-99730801D01*
X185132738Y-99730801D01*
X183227738Y-96858182D02*
X183227738Y-96918659D01*
X183197500Y-96979135D01*
X183167261Y-97009373D01*
X183106785Y-97039611D01*
X182985833Y-97069849D01*
X182834642Y-97069849D01*
X182713690Y-97039611D01*
X182653214Y-97009373D01*
X182622976Y-96979135D01*
X182592738Y-96918659D01*
X182592738Y-96858182D01*
X182622976Y-96797706D01*
X182653214Y-96767468D01*
X182713690Y-96737230D01*
X182834642Y-96706992D01*
X182985833Y-96706992D01*
X183106785Y-96737230D01*
X183167261Y-96767468D01*
X183197500Y-96797706D01*
X183227738Y-96858182D01*
X183227738Y-97281516D02*
X182592738Y-97704849D01*
X183227738Y-97704849D02*
X182592738Y-97281516D01*
X182925357Y-97946754D02*
X182925357Y-98158420D01*
X182592738Y-98249135D02*
X182592738Y-97946754D01*
X183227738Y-97946754D01*
X183227738Y-98249135D01*
X183167261Y-98491040D02*
X183197500Y-98521278D01*
X183227738Y-98581754D01*
X183227738Y-98732944D01*
X183197500Y-98793420D01*
X183167261Y-98823659D01*
X183106785Y-98853897D01*
X183046309Y-98853897D01*
X182955595Y-98823659D01*
X182592738Y-98460801D01*
X182592738Y-98853897D01*
X182653214Y-99126040D02*
X182622976Y-99156278D01*
X182592738Y-99126040D01*
X182622976Y-99095801D01*
X182653214Y-99126040D01*
X182592738Y-99126040D01*
X182653214Y-99428420D02*
X182622976Y-99458659D01*
X182592738Y-99428420D01*
X182622976Y-99398182D01*
X182653214Y-99428420D01*
X182592738Y-99428420D01*
X182653214Y-99730801D02*
X182622976Y-99761040D01*
X182592738Y-99730801D01*
X182622976Y-99700563D01*
X182653214Y-99730801D01*
X182592738Y-99730801D01*
X178147738Y-96858182D02*
X178147738Y-96918659D01*
X178117500Y-96979135D01*
X178087261Y-97009373D01*
X178026785Y-97039611D01*
X177905833Y-97069849D01*
X177754642Y-97069849D01*
X177633690Y-97039611D01*
X177573214Y-97009373D01*
X177542976Y-96979135D01*
X177512738Y-96918659D01*
X177512738Y-96858182D01*
X177542976Y-96797706D01*
X177573214Y-96767468D01*
X177633690Y-96737230D01*
X177754642Y-96706992D01*
X177905833Y-96706992D01*
X178026785Y-96737230D01*
X178087261Y-96767468D01*
X178117500Y-96797706D01*
X178147738Y-96858182D01*
X178147738Y-97281516D02*
X177512738Y-97704849D01*
X178147738Y-97704849D02*
X177512738Y-97281516D01*
X177845357Y-97946754D02*
X177845357Y-98158420D01*
X177512738Y-98249135D02*
X177512738Y-97946754D01*
X178147738Y-97946754D01*
X178147738Y-98249135D01*
X178147738Y-98793420D02*
X178147738Y-98672468D01*
X178117500Y-98611992D01*
X178087261Y-98581754D01*
X177996547Y-98521278D01*
X177875595Y-98491040D01*
X177633690Y-98491040D01*
X177573214Y-98521278D01*
X177542976Y-98551516D01*
X177512738Y-98611992D01*
X177512738Y-98732944D01*
X177542976Y-98793420D01*
X177573214Y-98823659D01*
X177633690Y-98853897D01*
X177784880Y-98853897D01*
X177845357Y-98823659D01*
X177875595Y-98793420D01*
X177905833Y-98732944D01*
X177905833Y-98611992D01*
X177875595Y-98551516D01*
X177845357Y-98521278D01*
X177784880Y-98491040D01*
X177573214Y-99126040D02*
X177542976Y-99156278D01*
X177512738Y-99126040D01*
X177542976Y-99095801D01*
X177573214Y-99126040D01*
X177512738Y-99126040D01*
X177573214Y-99428420D02*
X177542976Y-99458659D01*
X177512738Y-99428420D01*
X177542976Y-99398182D01*
X177573214Y-99428420D01*
X177512738Y-99428420D01*
X177573214Y-99730801D02*
X177542976Y-99761040D01*
X177512738Y-99730801D01*
X177542976Y-99700563D01*
X177573214Y-99730801D01*
X177512738Y-99730801D01*
X175607738Y-96858182D02*
X175607738Y-96918659D01*
X175577500Y-96979135D01*
X175547261Y-97009373D01*
X175486785Y-97039611D01*
X175365833Y-97069849D01*
X175214642Y-97069849D01*
X175093690Y-97039611D01*
X175033214Y-97009373D01*
X175002976Y-96979135D01*
X174972738Y-96918659D01*
X174972738Y-96858182D01*
X175002976Y-96797706D01*
X175033214Y-96767468D01*
X175093690Y-96737230D01*
X175214642Y-96706992D01*
X175365833Y-96706992D01*
X175486785Y-96737230D01*
X175547261Y-96767468D01*
X175577500Y-96797706D01*
X175607738Y-96858182D01*
X175607738Y-97281516D02*
X174972738Y-97704849D01*
X175607738Y-97704849D02*
X174972738Y-97281516D01*
X175305357Y-97946754D02*
X175305357Y-98158420D01*
X174972738Y-98249135D02*
X174972738Y-97946754D01*
X175607738Y-97946754D01*
X175607738Y-98249135D01*
X175335595Y-98611992D02*
X175365833Y-98551516D01*
X175396071Y-98521278D01*
X175456547Y-98491040D01*
X175486785Y-98491040D01*
X175547261Y-98521278D01*
X175577500Y-98551516D01*
X175607738Y-98611992D01*
X175607738Y-98732944D01*
X175577500Y-98793420D01*
X175547261Y-98823659D01*
X175486785Y-98853897D01*
X175456547Y-98853897D01*
X175396071Y-98823659D01*
X175365833Y-98793420D01*
X175335595Y-98732944D01*
X175335595Y-98611992D01*
X175305357Y-98551516D01*
X175275119Y-98521278D01*
X175214642Y-98491040D01*
X175093690Y-98491040D01*
X175033214Y-98521278D01*
X175002976Y-98551516D01*
X174972738Y-98611992D01*
X174972738Y-98732944D01*
X175002976Y-98793420D01*
X175033214Y-98823659D01*
X175093690Y-98853897D01*
X175214642Y-98853897D01*
X175275119Y-98823659D01*
X175305357Y-98793420D01*
X175335595Y-98732944D01*
X175033214Y-99126040D02*
X175002976Y-99156278D01*
X174972738Y-99126040D01*
X175002976Y-99095801D01*
X175033214Y-99126040D01*
X174972738Y-99126040D01*
X175033214Y-99428420D02*
X175002976Y-99458659D01*
X174972738Y-99428420D01*
X175002976Y-99398182D01*
X175033214Y-99428420D01*
X174972738Y-99428420D01*
X175033214Y-99730801D02*
X175002976Y-99761040D01*
X174972738Y-99730801D01*
X175002976Y-99700563D01*
X175033214Y-99730801D01*
X174972738Y-99730801D01*
X180687738Y-96858182D02*
X180687738Y-96918659D01*
X180657500Y-96979135D01*
X180627261Y-97009373D01*
X180566785Y-97039611D01*
X180445833Y-97069849D01*
X180294642Y-97069849D01*
X180173690Y-97039611D01*
X180113214Y-97009373D01*
X180082976Y-96979135D01*
X180052738Y-96918659D01*
X180052738Y-96858182D01*
X180082976Y-96797706D01*
X180113214Y-96767468D01*
X180173690Y-96737230D01*
X180294642Y-96706992D01*
X180445833Y-96706992D01*
X180566785Y-96737230D01*
X180627261Y-96767468D01*
X180657500Y-96797706D01*
X180687738Y-96858182D01*
X180687738Y-97281516D02*
X180052738Y-97704849D01*
X180687738Y-97704849D02*
X180052738Y-97281516D01*
X180385357Y-97946754D02*
X180385357Y-98158420D01*
X180052738Y-98249135D02*
X180052738Y-97946754D01*
X180687738Y-97946754D01*
X180687738Y-98249135D01*
X180476071Y-98793420D02*
X180052738Y-98793420D01*
X180717976Y-98642230D02*
X180264404Y-98491040D01*
X180264404Y-98884135D01*
X180113214Y-99126040D02*
X180082976Y-99156278D01*
X180052738Y-99126040D01*
X180082976Y-99095801D01*
X180113214Y-99126040D01*
X180052738Y-99126040D01*
X180113214Y-99428420D02*
X180082976Y-99458659D01*
X180052738Y-99428420D01*
X180082976Y-99398182D01*
X180113214Y-99428420D01*
X180052738Y-99428420D01*
X180113214Y-99730801D02*
X180082976Y-99761040D01*
X180052738Y-99730801D01*
X180082976Y-99700563D01*
X180113214Y-99730801D01*
X180052738Y-99730801D01*
X173067738Y-96858182D02*
X173067738Y-96918659D01*
X173037500Y-96979135D01*
X173007261Y-97009373D01*
X172946785Y-97039611D01*
X172825833Y-97069849D01*
X172674642Y-97069849D01*
X172553690Y-97039611D01*
X172493214Y-97009373D01*
X172462976Y-96979135D01*
X172432738Y-96918659D01*
X172432738Y-96858182D01*
X172462976Y-96797706D01*
X172493214Y-96767468D01*
X172553690Y-96737230D01*
X172674642Y-96706992D01*
X172825833Y-96706992D01*
X172946785Y-96737230D01*
X173007261Y-96767468D01*
X173037500Y-96797706D01*
X173067738Y-96858182D01*
X173067738Y-97281516D02*
X172432738Y-97704849D01*
X173067738Y-97704849D02*
X172432738Y-97281516D01*
X172765357Y-97946754D02*
X172765357Y-98158420D01*
X172432738Y-98249135D02*
X172432738Y-97946754D01*
X173067738Y-97946754D01*
X173067738Y-98249135D01*
X172614166Y-98491040D02*
X172614166Y-98793420D01*
X172432738Y-98430563D02*
X173067738Y-98642230D01*
X172432738Y-98853897D01*
X172493214Y-99065563D02*
X172462976Y-99095801D01*
X172432738Y-99065563D01*
X172462976Y-99035325D01*
X172493214Y-99065563D01*
X172432738Y-99065563D01*
X172493214Y-99367944D02*
X172462976Y-99398182D01*
X172432738Y-99367944D01*
X172462976Y-99337706D01*
X172493214Y-99367944D01*
X172432738Y-99367944D01*
X172493214Y-99670325D02*
X172462976Y-99700563D01*
X172432738Y-99670325D01*
X172462976Y-99640087D01*
X172493214Y-99670325D01*
X172432738Y-99670325D01*
X170527738Y-96858182D02*
X170527738Y-96918659D01*
X170497500Y-96979135D01*
X170467261Y-97009373D01*
X170406785Y-97039611D01*
X170285833Y-97069849D01*
X170134642Y-97069849D01*
X170013690Y-97039611D01*
X169953214Y-97009373D01*
X169922976Y-96979135D01*
X169892738Y-96918659D01*
X169892738Y-96858182D01*
X169922976Y-96797706D01*
X169953214Y-96767468D01*
X170013690Y-96737230D01*
X170134642Y-96706992D01*
X170285833Y-96706992D01*
X170406785Y-96737230D01*
X170467261Y-96767468D01*
X170497500Y-96797706D01*
X170527738Y-96858182D01*
X170527738Y-97281516D02*
X169892738Y-97704849D01*
X170527738Y-97704849D02*
X169892738Y-97281516D01*
X170225357Y-97946754D02*
X170225357Y-98158420D01*
X169892738Y-98249135D02*
X169892738Y-97946754D01*
X170527738Y-97946754D01*
X170527738Y-98249135D01*
X169953214Y-98884135D02*
X169922976Y-98853897D01*
X169892738Y-98763182D01*
X169892738Y-98702706D01*
X169922976Y-98611992D01*
X169983452Y-98551516D01*
X170043928Y-98521278D01*
X170164880Y-98491040D01*
X170255595Y-98491040D01*
X170376547Y-98521278D01*
X170437023Y-98551516D01*
X170497500Y-98611992D01*
X170527738Y-98702706D01*
X170527738Y-98763182D01*
X170497500Y-98853897D01*
X170467261Y-98884135D01*
X169953214Y-99156278D02*
X169922976Y-99186516D01*
X169892738Y-99156278D01*
X169922976Y-99126040D01*
X169953214Y-99156278D01*
X169892738Y-99156278D01*
X169953214Y-99458659D02*
X169922976Y-99488897D01*
X169892738Y-99458659D01*
X169922976Y-99428420D01*
X169953214Y-99458659D01*
X169892738Y-99458659D01*
X169953214Y-99761040D02*
X169922976Y-99791278D01*
X169892738Y-99761040D01*
X169922976Y-99730801D01*
X169953214Y-99761040D01*
X169892738Y-99761040D01*
X167733738Y-96858182D02*
X167733738Y-96918659D01*
X167703500Y-96979135D01*
X167673261Y-97009373D01*
X167612785Y-97039611D01*
X167491833Y-97069849D01*
X167340642Y-97069849D01*
X167219690Y-97039611D01*
X167159214Y-97009373D01*
X167128976Y-96979135D01*
X167098738Y-96918659D01*
X167098738Y-96858182D01*
X167128976Y-96797706D01*
X167159214Y-96767468D01*
X167219690Y-96737230D01*
X167340642Y-96706992D01*
X167491833Y-96706992D01*
X167612785Y-96737230D01*
X167673261Y-96767468D01*
X167703500Y-96797706D01*
X167733738Y-96858182D01*
X167733738Y-97281516D02*
X167098738Y-97704849D01*
X167733738Y-97704849D02*
X167098738Y-97281516D01*
X167431357Y-97946754D02*
X167431357Y-98158420D01*
X167098738Y-98249135D02*
X167098738Y-97946754D01*
X167733738Y-97946754D01*
X167733738Y-98249135D01*
X167431357Y-98521278D02*
X167431357Y-98732944D01*
X167098738Y-98823659D02*
X167098738Y-98521278D01*
X167733738Y-98521278D01*
X167733738Y-98823659D01*
X167159214Y-99095801D02*
X167128976Y-99126040D01*
X167098738Y-99095801D01*
X167128976Y-99065563D01*
X167159214Y-99095801D01*
X167098738Y-99095801D01*
X167159214Y-99398182D02*
X167128976Y-99428420D01*
X167098738Y-99398182D01*
X167128976Y-99367944D01*
X167159214Y-99398182D01*
X167098738Y-99398182D01*
X167159214Y-99700563D02*
X167128976Y-99730801D01*
X167098738Y-99700563D01*
X167128976Y-99670325D01*
X167159214Y-99700563D01*
X167098738Y-99700563D01*
D11*
X103930142Y-103509857D02*
X104430142Y-103509857D01*
X104644428Y-104295571D02*
X103930142Y-104295571D01*
X103930142Y-102795571D01*
X104644428Y-102795571D01*
X105287285Y-104295571D02*
X105287285Y-102795571D01*
X105787285Y-103867000D01*
X106287285Y-102795571D01*
X106287285Y-104295571D01*
X107001571Y-104295571D02*
X107001571Y-102795571D01*
X107501571Y-103867000D01*
X108001571Y-102795571D01*
X108001571Y-104295571D01*
X110715857Y-104152714D02*
X110644428Y-104224142D01*
X110430142Y-104295571D01*
X110287285Y-104295571D01*
X110073000Y-104224142D01*
X109930142Y-104081285D01*
X109858714Y-103938428D01*
X109787285Y-103652714D01*
X109787285Y-103438428D01*
X109858714Y-103152714D01*
X109930142Y-103009857D01*
X110073000Y-102867000D01*
X110287285Y-102795571D01*
X110430142Y-102795571D01*
X110644428Y-102867000D01*
X110715857Y-102938428D01*
X111644428Y-102795571D02*
X111930142Y-102795571D01*
X112073000Y-102867000D01*
X112215857Y-103009857D01*
X112287285Y-103295571D01*
X112287285Y-103795571D01*
X112215857Y-104081285D01*
X112073000Y-104224142D01*
X111930142Y-104295571D01*
X111644428Y-104295571D01*
X111501571Y-104224142D01*
X111358714Y-104081285D01*
X111287285Y-103795571D01*
X111287285Y-103295571D01*
X111358714Y-103009857D01*
X111501571Y-102867000D01*
X111644428Y-102795571D01*
X112930142Y-104295571D02*
X112930142Y-102795571D01*
X113430142Y-103867000D01*
X113930142Y-102795571D01*
X113930142Y-104295571D01*
X114644428Y-104295571D02*
X114644428Y-102795571D01*
X115215857Y-102795571D01*
X115358714Y-102867000D01*
X115430142Y-102938428D01*
X115501571Y-103081285D01*
X115501571Y-103295571D01*
X115430142Y-103438428D01*
X115358714Y-103509857D01*
X115215857Y-103581285D01*
X114644428Y-103581285D01*
X116144428Y-102795571D02*
X116144428Y-104009857D01*
X116215857Y-104152714D01*
X116287285Y-104224142D01*
X116430142Y-104295571D01*
X116715857Y-104295571D01*
X116858714Y-104224142D01*
X116930142Y-104152714D01*
X117001571Y-104009857D01*
X117001571Y-102795571D01*
X117501571Y-102795571D02*
X118358714Y-102795571D01*
X117930142Y-104295571D02*
X117930142Y-102795571D01*
X118858714Y-103509857D02*
X119358714Y-103509857D01*
X119573000Y-104295571D02*
X118858714Y-104295571D01*
X118858714Y-102795571D01*
X119573000Y-102795571D01*
X121073000Y-104295571D02*
X120573000Y-103581285D01*
X120215857Y-104295571D02*
X120215857Y-102795571D01*
X120787285Y-102795571D01*
X120930142Y-102867000D01*
X121001571Y-102938428D01*
X121073000Y-103081285D01*
X121073000Y-103295571D01*
X121001571Y-103438428D01*
X120930142Y-103509857D01*
X120787285Y-103581285D01*
X120215857Y-103581285D01*
X121644428Y-104224142D02*
X121858714Y-104295571D01*
X122215857Y-104295571D01*
X122358714Y-104224142D01*
X122430142Y-104152714D01*
X122501571Y-104009857D01*
X122501571Y-103867000D01*
X122430142Y-103724142D01*
X122358714Y-103652714D01*
X122215857Y-103581285D01*
X121930142Y-103509857D01*
X121787285Y-103438428D01*
X121715857Y-103367000D01*
X121644428Y-103224142D01*
X121644428Y-103081285D01*
X121715857Y-102938428D01*
X121787285Y-102867000D01*
X121930142Y-102795571D01*
X122287285Y-102795571D01*
X122501571Y-102867000D01*
X104787285Y-106702714D02*
X104715857Y-106774142D01*
X104501571Y-106845571D01*
X104358714Y-106845571D01*
X104144428Y-106774142D01*
X104001571Y-106631285D01*
X103930142Y-106488428D01*
X103858714Y-106202714D01*
X103858714Y-105988428D01*
X103930142Y-105702714D01*
X104001571Y-105559857D01*
X104144428Y-105417000D01*
X104358714Y-105345571D01*
X104501571Y-105345571D01*
X104715857Y-105417000D01*
X104787285Y-105488428D01*
X105430142Y-106845571D02*
X105430142Y-105345571D01*
X105430142Y-106059857D02*
X106287285Y-106059857D01*
X106287285Y-106845571D02*
X106287285Y-105345571D01*
X106858714Y-105345571D02*
X107787285Y-105345571D01*
X107287285Y-105917000D01*
X107501571Y-105917000D01*
X107644428Y-105988428D01*
X107715857Y-106059857D01*
X107787285Y-106202714D01*
X107787285Y-106559857D01*
X107715857Y-106702714D01*
X107644428Y-106774142D01*
X107501571Y-106845571D01*
X107073000Y-106845571D01*
X106930142Y-106774142D01*
X106858714Y-106702714D01*
X108287285Y-105345571D02*
X109287285Y-105345571D01*
X108644428Y-106845571D01*
X110501571Y-105345571D02*
X110215857Y-105345571D01*
X110073000Y-105417000D01*
X110001571Y-105488428D01*
X109858714Y-105702714D01*
X109787285Y-105988428D01*
X109787285Y-106559857D01*
X109858714Y-106702714D01*
X109930142Y-106774142D01*
X110073000Y-106845571D01*
X110358714Y-106845571D01*
X110501571Y-106774142D01*
X110573000Y-106702714D01*
X110644428Y-106559857D01*
X110644428Y-106202714D01*
X110573000Y-106059857D01*
X110501571Y-105988428D01*
X110358714Y-105917000D01*
X110073000Y-105917000D01*
X109930142Y-105988428D01*
X109858714Y-106059857D01*
X109787285Y-106202714D01*
X112430142Y-106845571D02*
X112430142Y-105345571D01*
X113073000Y-106774142D02*
X113287285Y-106845571D01*
X113644428Y-106845571D01*
X113787285Y-106774142D01*
X113858714Y-106702714D01*
X113930142Y-106559857D01*
X113930142Y-106417000D01*
X113858714Y-106274142D01*
X113787285Y-106202714D01*
X113644428Y-106131285D01*
X113358714Y-106059857D01*
X113215857Y-105988428D01*
X113144428Y-105917000D01*
X113073000Y-105774142D01*
X113073000Y-105631285D01*
X113144428Y-105488428D01*
X113215857Y-105417000D01*
X113358714Y-105345571D01*
X113715857Y-105345571D01*
X113930142Y-105417000D01*
X114501571Y-106417000D02*
X115215857Y-106417000D01*
X114358714Y-106845571D02*
X114858714Y-105345571D01*
X115358714Y-106845571D01*
X117001571Y-106845571D02*
X117001571Y-105345571D01*
X117501571Y-106417000D01*
X118001571Y-105345571D01*
X118001571Y-106845571D01*
X118930142Y-106845571D02*
X118787285Y-106774142D01*
X118715857Y-106702714D01*
X118644428Y-106559857D01*
X118644428Y-106131285D01*
X118715857Y-105988428D01*
X118787285Y-105917000D01*
X118930142Y-105845571D01*
X119144428Y-105845571D01*
X119287285Y-105917000D01*
X119358714Y-105988428D01*
X119430142Y-106131285D01*
X119430142Y-106559857D01*
X119358714Y-106702714D01*
X119287285Y-106774142D01*
X119144428Y-106845571D01*
X118930142Y-106845571D01*
X120715857Y-106845571D02*
X120715857Y-105345571D01*
X120715857Y-106774142D02*
X120573000Y-106845571D01*
X120287285Y-106845571D01*
X120144428Y-106774142D01*
X120073000Y-106702714D01*
X120001571Y-106559857D01*
X120001571Y-106131285D01*
X120073000Y-105988428D01*
X120144428Y-105917000D01*
X120287285Y-105845571D01*
X120573000Y-105845571D01*
X120715857Y-105917000D01*
X122073000Y-105845571D02*
X122073000Y-106845571D01*
X121430142Y-105845571D02*
X121430142Y-106631285D01*
X121501571Y-106774142D01*
X121644428Y-106845571D01*
X121858714Y-106845571D01*
X122001571Y-106774142D01*
X122073000Y-106702714D01*
X123001571Y-106845571D02*
X122858714Y-106774142D01*
X122787285Y-106631285D01*
X122787285Y-105345571D01*
X124144428Y-106774142D02*
X124001571Y-106845571D01*
X123715857Y-106845571D01*
X123573000Y-106774142D01*
X123501571Y-106631285D01*
X123501571Y-106059857D01*
X123573000Y-105917000D01*
X123715857Y-105845571D01*
X124001571Y-105845571D01*
X124144428Y-105917000D01*
X124215857Y-106059857D01*
X124215857Y-106202714D01*
X123501571Y-106345571D01*
X104787285Y-109252714D02*
X104715857Y-109324142D01*
X104501571Y-109395571D01*
X104358714Y-109395571D01*
X104144428Y-109324142D01*
X104001571Y-109181285D01*
X103930142Y-109038428D01*
X103858714Y-108752714D01*
X103858714Y-108538428D01*
X103930142Y-108252714D01*
X104001571Y-108109857D01*
X104144428Y-107967000D01*
X104358714Y-107895571D01*
X104501571Y-107895571D01*
X104715857Y-107967000D01*
X104787285Y-108038428D01*
X105644428Y-109395571D02*
X105501571Y-109324142D01*
X105430142Y-109252714D01*
X105358714Y-109109857D01*
X105358714Y-108681285D01*
X105430142Y-108538428D01*
X105501571Y-108467000D01*
X105644428Y-108395571D01*
X105858714Y-108395571D01*
X106001571Y-108467000D01*
X106073000Y-108538428D01*
X106144428Y-108681285D01*
X106144428Y-109109857D01*
X106073000Y-109252714D01*
X106001571Y-109324142D01*
X105858714Y-109395571D01*
X105644428Y-109395571D01*
X106787285Y-108395571D02*
X106787285Y-109895571D01*
X106787285Y-108467000D02*
X106930142Y-108395571D01*
X107215857Y-108395571D01*
X107358714Y-108467000D01*
X107430142Y-108538428D01*
X107501571Y-108681285D01*
X107501571Y-109109857D01*
X107430142Y-109252714D01*
X107358714Y-109324142D01*
X107215857Y-109395571D01*
X106930142Y-109395571D01*
X106787285Y-109324142D01*
X108001571Y-108395571D02*
X108358714Y-109395571D01*
X108715857Y-108395571D02*
X108358714Y-109395571D01*
X108215857Y-109752714D01*
X108144428Y-109824142D01*
X108001571Y-109895571D01*
X109287285Y-109395571D02*
X109287285Y-108395571D01*
X109287285Y-108681285D02*
X109358714Y-108538428D01*
X109430142Y-108467000D01*
X109573000Y-108395571D01*
X109715857Y-108395571D01*
X110215857Y-109395571D02*
X110215857Y-108395571D01*
X110215857Y-107895571D02*
X110144428Y-107967000D01*
X110215857Y-108038428D01*
X110287285Y-107967000D01*
X110215857Y-107895571D01*
X110215857Y-108038428D01*
X111573000Y-108395571D02*
X111573000Y-109609857D01*
X111501571Y-109752714D01*
X111430142Y-109824142D01*
X111287285Y-109895571D01*
X111073000Y-109895571D01*
X110930142Y-109824142D01*
X111573000Y-109324142D02*
X111430142Y-109395571D01*
X111144428Y-109395571D01*
X111001571Y-109324142D01*
X110930142Y-109252714D01*
X110858714Y-109109857D01*
X110858714Y-108681285D01*
X110930142Y-108538428D01*
X111001571Y-108467000D01*
X111144428Y-108395571D01*
X111430142Y-108395571D01*
X111573000Y-108467000D01*
X112287285Y-109395571D02*
X112287285Y-107895571D01*
X112930142Y-109395571D02*
X112930142Y-108609857D01*
X112858714Y-108467000D01*
X112715857Y-108395571D01*
X112501571Y-108395571D01*
X112358714Y-108467000D01*
X112287285Y-108538428D01*
X113430142Y-108395571D02*
X114001571Y-108395571D01*
X113644428Y-107895571D02*
X113644428Y-109181285D01*
X113715857Y-109324142D01*
X113858714Y-109395571D01*
X114001571Y-109395571D01*
X116073000Y-109967000D02*
X116001571Y-109895571D01*
X115858714Y-109681285D01*
X115787285Y-109538428D01*
X115715857Y-109324142D01*
X115644428Y-108967000D01*
X115644428Y-108681285D01*
X115715857Y-108324142D01*
X115787285Y-108109857D01*
X115858714Y-107967000D01*
X116001571Y-107752714D01*
X116073000Y-107681285D01*
X117501571Y-109252714D02*
X117430142Y-109324142D01*
X117215857Y-109395571D01*
X117073000Y-109395571D01*
X116858714Y-109324142D01*
X116715857Y-109181285D01*
X116644428Y-109038428D01*
X116573000Y-108752714D01*
X116573000Y-108538428D01*
X116644428Y-108252714D01*
X116715857Y-108109857D01*
X116858714Y-107967000D01*
X117073000Y-107895571D01*
X117215857Y-107895571D01*
X117430142Y-107967000D01*
X117501571Y-108038428D01*
X118001571Y-109967000D02*
X118073000Y-109895571D01*
X118215857Y-109681285D01*
X118287285Y-109538428D01*
X118358714Y-109324142D01*
X118430142Y-108967000D01*
X118430142Y-108681285D01*
X118358714Y-108324142D01*
X118287285Y-108109857D01*
X118215857Y-107967000D01*
X118073000Y-107752714D01*
X118001571Y-107681285D01*
X120215857Y-108038428D02*
X120287285Y-107967000D01*
X120430142Y-107895571D01*
X120787285Y-107895571D01*
X120930142Y-107967000D01*
X121001571Y-108038428D01*
X121073000Y-108181285D01*
X121073000Y-108324142D01*
X121001571Y-108538428D01*
X120144428Y-109395571D01*
X121073000Y-109395571D01*
X122001571Y-107895571D02*
X122144428Y-107895571D01*
X122287285Y-107967000D01*
X122358714Y-108038428D01*
X122430142Y-108181285D01*
X122501571Y-108467000D01*
X122501571Y-108824142D01*
X122430142Y-109109857D01*
X122358714Y-109252714D01*
X122287285Y-109324142D01*
X122144428Y-109395571D01*
X122001571Y-109395571D01*
X121858714Y-109324142D01*
X121787285Y-109252714D01*
X121715857Y-109109857D01*
X121644428Y-108824142D01*
X121644428Y-108467000D01*
X121715857Y-108181285D01*
X121787285Y-108038428D01*
X121858714Y-107967000D01*
X122001571Y-107895571D01*
X123073000Y-108038428D02*
X123144428Y-107967000D01*
X123287285Y-107895571D01*
X123644428Y-107895571D01*
X123787285Y-107967000D01*
X123858714Y-108038428D01*
X123930142Y-108181285D01*
X123930142Y-108324142D01*
X123858714Y-108538428D01*
X123001571Y-109395571D01*
X123930142Y-109395571D01*
X124430142Y-107895571D02*
X125358714Y-107895571D01*
X124858714Y-108467000D01*
X125073000Y-108467000D01*
X125215857Y-108538428D01*
X125287285Y-108609857D01*
X125358714Y-108752714D01*
X125358714Y-109109857D01*
X125287285Y-109252714D01*
X125215857Y-109324142D01*
X125073000Y-109395571D01*
X124644428Y-109395571D01*
X124501571Y-109324142D01*
X124430142Y-109252714D01*
X127144428Y-108609857D02*
X127644428Y-108609857D01*
X127858714Y-109395571D02*
X127144428Y-109395571D01*
X127144428Y-107895571D01*
X127858714Y-107895571D01*
X128501571Y-109395571D02*
X128501571Y-107895571D01*
X129001571Y-108967000D01*
X129501571Y-107895571D01*
X129501571Y-109395571D01*
X130215857Y-109395571D02*
X130215857Y-107895571D01*
X130715857Y-108967000D01*
X131215857Y-107895571D01*
X131215857Y-109395571D01*
X103787285Y-110945571D02*
X104073000Y-111945571D01*
X104358714Y-111231285D01*
X104644428Y-111945571D01*
X104930142Y-110945571D01*
X105358714Y-110945571D02*
X105644428Y-111945571D01*
X105930142Y-111231285D01*
X106215857Y-111945571D01*
X106501571Y-110945571D01*
X106930142Y-110945571D02*
X107215857Y-111945571D01*
X107501571Y-111231285D01*
X107787285Y-111945571D01*
X108073000Y-110945571D01*
X108644428Y-111802714D02*
X108715857Y-111874142D01*
X108644428Y-111945571D01*
X108573000Y-111874142D01*
X108644428Y-111802714D01*
X108644428Y-111945571D01*
X109358714Y-111945571D02*
X109358714Y-110445571D01*
X110001571Y-111945571D02*
X110001571Y-111159857D01*
X109930142Y-111017000D01*
X109787285Y-110945571D01*
X109573000Y-110945571D01*
X109430142Y-111017000D01*
X109358714Y-111088428D01*
X110930142Y-111945571D02*
X110787285Y-111874142D01*
X110715857Y-111802714D01*
X110644428Y-111659857D01*
X110644428Y-111231285D01*
X110715857Y-111088428D01*
X110787285Y-111017000D01*
X110930142Y-110945571D01*
X111144428Y-110945571D01*
X111287285Y-111017000D01*
X111358714Y-111088428D01*
X111430142Y-111231285D01*
X111430142Y-111659857D01*
X111358714Y-111802714D01*
X111287285Y-111874142D01*
X111144428Y-111945571D01*
X110930142Y-111945571D01*
X112073000Y-111945571D02*
X112073000Y-110945571D01*
X112073000Y-111088428D02*
X112144428Y-111017000D01*
X112287285Y-110945571D01*
X112501571Y-110945571D01*
X112644428Y-111017000D01*
X112715857Y-111159857D01*
X112715857Y-111945571D01*
X112715857Y-111159857D02*
X112787285Y-111017000D01*
X112930142Y-110945571D01*
X113144428Y-110945571D01*
X113287285Y-111017000D01*
X113358714Y-111159857D01*
X113358714Y-111945571D01*
X114644428Y-111874142D02*
X114501571Y-111945571D01*
X114215857Y-111945571D01*
X114073000Y-111874142D01*
X114001571Y-111731285D01*
X114001571Y-111159857D01*
X114073000Y-111017000D01*
X114215857Y-110945571D01*
X114501571Y-110945571D01*
X114644428Y-111017000D01*
X114715857Y-111159857D01*
X114715857Y-111302714D01*
X114001571Y-111445571D01*
X115358714Y-111945571D02*
X115358714Y-110445571D01*
X115358714Y-111017000D02*
X115501571Y-110945571D01*
X115787285Y-110945571D01*
X115930142Y-111017000D01*
X116001571Y-111088428D01*
X116073000Y-111231285D01*
X116073000Y-111659857D01*
X116001571Y-111802714D01*
X115930142Y-111874142D01*
X115787285Y-111945571D01*
X115501571Y-111945571D01*
X115358714Y-111874142D01*
X116715857Y-111945571D02*
X116715857Y-110945571D01*
X116715857Y-111231285D02*
X116787285Y-111088428D01*
X116858714Y-111017000D01*
X117001571Y-110945571D01*
X117144428Y-110945571D01*
X118215857Y-111874142D02*
X118073000Y-111945571D01*
X117787285Y-111945571D01*
X117644428Y-111874142D01*
X117573000Y-111731285D01*
X117573000Y-111159857D01*
X117644428Y-111017000D01*
X117787285Y-110945571D01*
X118073000Y-110945571D01*
X118215857Y-111017000D01*
X118287285Y-111159857D01*
X118287285Y-111302714D01*
X117573000Y-111445571D01*
X118787285Y-110945571D02*
X119073000Y-111945571D01*
X119358714Y-111231285D01*
X119644428Y-111945571D01*
X119930142Y-110945571D01*
X120715857Y-111088428D02*
X120573000Y-111017000D01*
X120501571Y-110945571D01*
X120430142Y-110802714D01*
X120430142Y-110731285D01*
X120501571Y-110588428D01*
X120573000Y-110517000D01*
X120715857Y-110445571D01*
X121001571Y-110445571D01*
X121144428Y-110517000D01*
X121215857Y-110588428D01*
X121287285Y-110731285D01*
X121287285Y-110802714D01*
X121215857Y-110945571D01*
X121144428Y-111017000D01*
X121001571Y-111088428D01*
X120715857Y-111088428D01*
X120573000Y-111159857D01*
X120501571Y-111231285D01*
X120430142Y-111374142D01*
X120430142Y-111659857D01*
X120501571Y-111802714D01*
X120573000Y-111874142D01*
X120715857Y-111945571D01*
X121001571Y-111945571D01*
X121144428Y-111874142D01*
X121215857Y-111802714D01*
X121287285Y-111659857D01*
X121287285Y-111374142D01*
X121215857Y-111231285D01*
X121144428Y-111159857D01*
X121001571Y-111088428D01*
X122215857Y-110445571D02*
X122358714Y-110445571D01*
X122501571Y-110517000D01*
X122573000Y-110588428D01*
X122644428Y-110731285D01*
X122715857Y-111017000D01*
X122715857Y-111374142D01*
X122644428Y-111659857D01*
X122573000Y-111802714D01*
X122501571Y-111874142D01*
X122358714Y-111945571D01*
X122215857Y-111945571D01*
X122073000Y-111874142D01*
X122001571Y-111802714D01*
X121930142Y-111659857D01*
X121858714Y-111374142D01*
X121858714Y-111017000D01*
X121930142Y-110731285D01*
X122001571Y-110588428D01*
X122073000Y-110517000D01*
X122215857Y-110445571D01*
X123573000Y-111088428D02*
X123430142Y-111017000D01*
X123358714Y-110945571D01*
X123287285Y-110802714D01*
X123287285Y-110731285D01*
X123358714Y-110588428D01*
X123430142Y-110517000D01*
X123573000Y-110445571D01*
X123858714Y-110445571D01*
X124001571Y-110517000D01*
X124073000Y-110588428D01*
X124144428Y-110731285D01*
X124144428Y-110802714D01*
X124073000Y-110945571D01*
X124001571Y-111017000D01*
X123858714Y-111088428D01*
X123573000Y-111088428D01*
X123430142Y-111159857D01*
X123358714Y-111231285D01*
X123287285Y-111374142D01*
X123287285Y-111659857D01*
X123358714Y-111802714D01*
X123430142Y-111874142D01*
X123573000Y-111945571D01*
X123858714Y-111945571D01*
X124001571Y-111874142D01*
X124073000Y-111802714D01*
X124144428Y-111659857D01*
X124144428Y-111374142D01*
X124073000Y-111231285D01*
X124001571Y-111159857D01*
X123858714Y-111088428D01*
X125001571Y-111088428D02*
X124858714Y-111017000D01*
X124787285Y-110945571D01*
X124715857Y-110802714D01*
X124715857Y-110731285D01*
X124787285Y-110588428D01*
X124858714Y-110517000D01*
X125001571Y-110445571D01*
X125287285Y-110445571D01*
X125430142Y-110517000D01*
X125501571Y-110588428D01*
X125573000Y-110731285D01*
X125573000Y-110802714D01*
X125501571Y-110945571D01*
X125430142Y-111017000D01*
X125287285Y-111088428D01*
X125001571Y-111088428D01*
X124858714Y-111159857D01*
X124787285Y-111231285D01*
X124715857Y-111374142D01*
X124715857Y-111659857D01*
X124787285Y-111802714D01*
X124858714Y-111874142D01*
X125001571Y-111945571D01*
X125287285Y-111945571D01*
X125430142Y-111874142D01*
X125501571Y-111802714D01*
X125573000Y-111659857D01*
X125573000Y-111374142D01*
X125501571Y-111231285D01*
X125430142Y-111159857D01*
X125287285Y-111088428D01*
X126215857Y-111802714D02*
X126287285Y-111874142D01*
X126215857Y-111945571D01*
X126144428Y-111874142D01*
X126215857Y-111802714D01*
X126215857Y-111945571D01*
X127573000Y-111874142D02*
X127430142Y-111945571D01*
X127144428Y-111945571D01*
X127001571Y-111874142D01*
X126930142Y-111802714D01*
X126858714Y-111659857D01*
X126858714Y-111231285D01*
X126930142Y-111088428D01*
X127001571Y-111017000D01*
X127144428Y-110945571D01*
X127430142Y-110945571D01*
X127573000Y-111017000D01*
X128430142Y-111945571D02*
X128287285Y-111874142D01*
X128215857Y-111802714D01*
X128144428Y-111659857D01*
X128144428Y-111231285D01*
X128215857Y-111088428D01*
X128287285Y-111017000D01*
X128430142Y-110945571D01*
X128644428Y-110945571D01*
X128787285Y-111017000D01*
X128858714Y-111088428D01*
X128930142Y-111231285D01*
X128930142Y-111659857D01*
X128858714Y-111802714D01*
X128787285Y-111874142D01*
X128644428Y-111945571D01*
X128430142Y-111945571D01*
X129573000Y-111945571D02*
X129573000Y-110945571D01*
X129573000Y-111088428D02*
X129644428Y-111017000D01*
X129787285Y-110945571D01*
X130001571Y-110945571D01*
X130144428Y-111017000D01*
X130215857Y-111159857D01*
X130215857Y-111945571D01*
X130215857Y-111159857D02*
X130287285Y-111017000D01*
X130430142Y-110945571D01*
X130644428Y-110945571D01*
X130787285Y-111017000D01*
X130858714Y-111159857D01*
X130858714Y-111945571D01*
D10*
X171525595Y-129065261D02*
X171525595Y-128430261D01*
X171767500Y-128430261D01*
X171827976Y-128460500D01*
X171858214Y-128490738D01*
X171888452Y-128551214D01*
X171888452Y-128641928D01*
X171858214Y-128702404D01*
X171827976Y-128732642D01*
X171767500Y-128762880D01*
X171525595Y-128762880D01*
X172160595Y-129065261D02*
X172160595Y-128430261D01*
X172462976Y-129065261D02*
X172462976Y-128430261D01*
X172825833Y-129065261D01*
X172825833Y-128430261D01*
X173944642Y-129065261D02*
X173581785Y-129065261D01*
X173763214Y-129065261D02*
X173763214Y-128430261D01*
X173702738Y-128520976D01*
X173642261Y-128581452D01*
X173581785Y-128611690D01*
X100659595Y-89969944D02*
X100689833Y-89909468D01*
X100720071Y-89879230D01*
X100780547Y-89848992D01*
X100810785Y-89848992D01*
X100871261Y-89879230D01*
X100901500Y-89909468D01*
X100931738Y-89969944D01*
X100931738Y-90090897D01*
X100901500Y-90151373D01*
X100871261Y-90181611D01*
X100810785Y-90211849D01*
X100780547Y-90211849D01*
X100720071Y-90181611D01*
X100689833Y-90151373D01*
X100659595Y-90090897D01*
X100659595Y-89969944D01*
X100629357Y-89909468D01*
X100599119Y-89879230D01*
X100538642Y-89848992D01*
X100417690Y-89848992D01*
X100357214Y-89879230D01*
X100326976Y-89909468D01*
X100296738Y-89969944D01*
X100296738Y-90090897D01*
X100326976Y-90151373D01*
X100357214Y-90181611D01*
X100417690Y-90211849D01*
X100538642Y-90211849D01*
X100599119Y-90181611D01*
X100629357Y-90151373D01*
X100659595Y-90090897D01*
X100296738Y-90483992D02*
X100931738Y-90483992D01*
X100296738Y-90846849D02*
X100659595Y-90574706D01*
X100931738Y-90846849D02*
X100568880Y-90483992D01*
X100296738Y-91965659D02*
X100599119Y-91753992D01*
X100296738Y-91602801D02*
X100931738Y-91602801D01*
X100931738Y-91844706D01*
X100901500Y-91905182D01*
X100871261Y-91935420D01*
X100810785Y-91965659D01*
X100720071Y-91965659D01*
X100659595Y-91935420D01*
X100629357Y-91905182D01*
X100599119Y-91844706D01*
X100599119Y-91602801D01*
X100931738Y-92358754D02*
X100931738Y-92479706D01*
X100901500Y-92540182D01*
X100841023Y-92600659D01*
X100720071Y-92630897D01*
X100508404Y-92630897D01*
X100387452Y-92600659D01*
X100326976Y-92540182D01*
X100296738Y-92479706D01*
X100296738Y-92358754D01*
X100326976Y-92298278D01*
X100387452Y-92237801D01*
X100508404Y-92207563D01*
X100720071Y-92207563D01*
X100841023Y-92237801D01*
X100901500Y-92298278D01*
X100931738Y-92358754D01*
X100296738Y-92903040D02*
X100931738Y-92903040D01*
X100478166Y-93114706D01*
X100931738Y-93326373D01*
X100296738Y-93326373D01*
D12*
G04 #@! TO.C,U15*
X116570000Y-118050000D02*
G75*
G02*
X114570000Y-118050000I-1000000J0D01*
G01*
X114570000Y-118050000D02*
X112920000Y-118050000D01*
X112920000Y-118050000D02*
X112920000Y-138490000D01*
X112920000Y-138490000D02*
X118220000Y-138490000D01*
X118220000Y-138490000D02*
X118220000Y-118050000D01*
X118220000Y-118050000D02*
X116570000Y-118050000D01*
G04 #@! TO.C,U14*
X126730000Y-118050000D02*
G75*
G02*
X124730000Y-118050000I-1000000J0D01*
G01*
X124730000Y-118050000D02*
X123080000Y-118050000D01*
X123080000Y-118050000D02*
X123080000Y-138490000D01*
X123080000Y-138490000D02*
X128380000Y-138490000D01*
X128380000Y-138490000D02*
X128380000Y-118050000D01*
X128380000Y-118050000D02*
X126730000Y-118050000D01*
G04 #@! TO.C,U13*
X136890000Y-118050000D02*
G75*
G02*
X134890000Y-118050000I-1000000J0D01*
G01*
X134890000Y-118050000D02*
X133240000Y-118050000D01*
X133240000Y-118050000D02*
X133240000Y-138490000D01*
X133240000Y-138490000D02*
X138540000Y-138490000D01*
X138540000Y-138490000D02*
X138540000Y-118050000D01*
X138540000Y-118050000D02*
X136890000Y-118050000D01*
G04 #@! TO.C,U5*
X186750000Y-86090000D02*
G75*
G02*
X186750000Y-84090000I0J1000000D01*
G01*
X186750000Y-84090000D02*
X186750000Y-82440000D01*
X186750000Y-82440000D02*
X166310000Y-82440000D01*
X166310000Y-82440000D02*
X166310000Y-87740000D01*
X166310000Y-87740000D02*
X186750000Y-87740000D01*
X186750000Y-87740000D02*
X186750000Y-86090000D01*
G04 #@! TO.C,U4*
X147050000Y-118050000D02*
G75*
G02*
X145050000Y-118050000I-1000000J0D01*
G01*
X145050000Y-118050000D02*
X143400000Y-118050000D01*
X143400000Y-118050000D02*
X143400000Y-138490000D01*
X143400000Y-138490000D02*
X148700000Y-138490000D01*
X148700000Y-138490000D02*
X148700000Y-118050000D01*
X148700000Y-118050000D02*
X147050000Y-118050000D01*
G04 #@! TO.C,U3*
X138490000Y-92440000D02*
G75*
G02*
X138490000Y-90440000I0J1000000D01*
G01*
X138490000Y-90440000D02*
X138490000Y-84980000D01*
X138490000Y-84980000D02*
X102810000Y-84980000D01*
X102810000Y-84980000D02*
X102810000Y-97900000D01*
X102810000Y-97900000D02*
X138490000Y-97900000D01*
X138490000Y-97900000D02*
X138490000Y-92440000D01*
G04 #@! TO.C,J2*
X166310000Y-90872000D02*
X166310000Y-96072000D01*
X184150000Y-90872000D02*
X166310000Y-90872000D01*
X186750000Y-96072000D02*
X166310000Y-96072000D01*
X184150000Y-90872000D02*
X184150000Y-93472000D01*
X184150000Y-93472000D02*
X186750000Y-93472000D01*
X186750000Y-93472000D02*
X186750000Y-96072000D01*
X185420000Y-90872000D02*
X186750000Y-90872000D01*
X186750000Y-90872000D02*
X186750000Y-92202000D01*
G04 #@! TO.C,C16*
X189792000Y-84130000D02*
X189792000Y-88670000D01*
X187652000Y-84130000D02*
X187652000Y-88670000D01*
X189792000Y-84130000D02*
X189777000Y-84130000D01*
X187667000Y-84130000D02*
X187652000Y-84130000D01*
X189792000Y-88670000D02*
X189777000Y-88670000D01*
X187667000Y-88670000D02*
X187652000Y-88670000D01*
G04 #@! TO.C,C15*
X124770000Y-115008000D02*
X129310000Y-115008000D01*
X124770000Y-117148000D02*
X129310000Y-117148000D01*
X124770000Y-115008000D02*
X124770000Y-115023000D01*
X124770000Y-117133000D02*
X124770000Y-117148000D01*
X129310000Y-115008000D02*
X129310000Y-115023000D01*
X129310000Y-117133000D02*
X129310000Y-117148000D01*
G04 #@! TO.C,C14*
X141532000Y-94290000D02*
X141532000Y-98830000D01*
X139392000Y-94290000D02*
X139392000Y-98830000D01*
X141532000Y-94290000D02*
X141517000Y-94290000D01*
X139407000Y-94290000D02*
X139392000Y-94290000D01*
X141532000Y-98830000D02*
X141517000Y-98830000D01*
X139407000Y-98830000D02*
X139392000Y-98830000D01*
G04 #@! TO.C,C10*
X134930000Y-115008000D02*
X139470000Y-115008000D01*
X134930000Y-117148000D02*
X139470000Y-117148000D01*
X134930000Y-115008000D02*
X134930000Y-115023000D01*
X134930000Y-117133000D02*
X134930000Y-117148000D01*
X139470000Y-115008000D02*
X139470000Y-115023000D01*
X139470000Y-117133000D02*
X139470000Y-117148000D01*
G04 #@! TO.C,C9*
X114610000Y-115008000D02*
X119150000Y-115008000D01*
X114610000Y-117148000D02*
X119150000Y-117148000D01*
X114610000Y-115008000D02*
X114610000Y-115023000D01*
X114610000Y-117133000D02*
X114610000Y-117148000D01*
X119150000Y-115008000D02*
X119150000Y-115023000D01*
X119150000Y-117133000D02*
X119150000Y-117148000D01*
G04 #@! TO.C,C8*
X145090000Y-115008000D02*
X149630000Y-115008000D01*
X145090000Y-117148000D02*
X149630000Y-117148000D01*
X145090000Y-115008000D02*
X145090000Y-115023000D01*
X145090000Y-117133000D02*
X145090000Y-117148000D01*
X149630000Y-115008000D02*
X149630000Y-115023000D01*
X149630000Y-117133000D02*
X149630000Y-117148000D01*
G04 #@! TO.C,U2*
X186887500Y-130873500D02*
X184347500Y-130873500D01*
X186887500Y-128333500D02*
X184347500Y-128333500D01*
X186887500Y-125793500D02*
X184347500Y-125793500D01*
X202777500Y-133453500D02*
X186887500Y-133453500D01*
X202777500Y-123213500D02*
X186887500Y-123213500D01*
X202777500Y-123213500D02*
X202777500Y-133453500D01*
X186887500Y-123213500D02*
X186887500Y-133453500D01*
G04 #@! TO.C,C5*
X178078500Y-112783500D02*
X178063500Y-112783500D01*
X180203500Y-112783500D02*
X180188500Y-112783500D01*
X178078500Y-108243500D02*
X178063500Y-108243500D01*
X180203500Y-108243500D02*
X180188500Y-108243500D01*
X178063500Y-108243500D02*
X178063500Y-112783500D01*
X180203500Y-108243500D02*
X180203500Y-112783500D01*
G04 #@! TO.C,C4*
X173172000Y-104433000D02*
X173172000Y-104448000D01*
X173172000Y-102308000D02*
X173172000Y-102323000D01*
X168632000Y-104433000D02*
X168632000Y-104448000D01*
X168632000Y-102308000D02*
X168632000Y-102323000D01*
X168632000Y-104448000D02*
X173172000Y-104448000D01*
X168632000Y-102308000D02*
X173172000Y-102308000D01*
G04 #@! TO.C,C2*
X179363500Y-117118500D02*
X179363500Y-117103500D01*
X179363500Y-119243500D02*
X179363500Y-119228500D01*
X183903500Y-117118500D02*
X183903500Y-117103500D01*
X183903500Y-119243500D02*
X183903500Y-119228500D01*
X183903500Y-117103500D02*
X179363500Y-117103500D01*
X183903500Y-119243500D02*
X179363500Y-119243500D01*
G04 #@! TO.C,C1*
X170775500Y-133452500D02*
X170775500Y-133467500D01*
X170775500Y-131327500D02*
X170775500Y-131342500D01*
X166235500Y-133452500D02*
X166235500Y-133467500D01*
X166235500Y-131327500D02*
X166235500Y-131342500D01*
X166235500Y-133467500D02*
X170775500Y-133467500D01*
X166235500Y-131327500D02*
X170775500Y-131327500D01*
G04 #@! TO.C,USB1*
X193853500Y-121017500D02*
X202393500Y-121017500D01*
X202393500Y-121017500D02*
X202393500Y-106297500D01*
X193853500Y-106297500D02*
X202393500Y-106297500D01*
X188173500Y-121017500D02*
X188173500Y-106297500D01*
X188173500Y-121017500D02*
X190153500Y-121017500D01*
X190153500Y-106297500D02*
X188173500Y-106297500D01*
X187293500Y-117657500D02*
X187793500Y-117157500D01*
X187793500Y-117157500D02*
X187293500Y-116657500D01*
X187293500Y-116657500D02*
X187293500Y-117657500D01*
G04 #@! TO.C,Y2*
X167790500Y-105488500D02*
X174040500Y-105488500D01*
X167790500Y-110538500D02*
X174040500Y-110538500D01*
X174040500Y-110538500D02*
G75*
G03*
X174040500Y-105488500I0J2525000D01*
G01*
X167790500Y-110538500D02*
G75*
G02*
X167790500Y-105488500I0J2525000D01*
G01*
G04 #@! TO.C,U1*
X170927500Y-111526500D02*
X167067500Y-111526500D01*
X167067500Y-111526500D02*
X167067500Y-111771500D01*
X170927500Y-111526500D02*
X174787500Y-111526500D01*
X174787500Y-111526500D02*
X174787500Y-111771500D01*
X170927500Y-129646500D02*
X167067500Y-129646500D01*
X167067500Y-129646500D02*
X167067500Y-129401500D01*
X170927500Y-129646500D02*
X174787500Y-129646500D01*
X174787500Y-129646500D02*
X174787500Y-129401500D01*
X174787500Y-129401500D02*
X176602500Y-129401500D01*
G04 #@! TO.C,R2*
X180054000Y-101700000D02*
X180054000Y-98960000D01*
X180054000Y-98960000D02*
X173514000Y-98960000D01*
X173514000Y-98960000D02*
X173514000Y-101700000D01*
X173514000Y-101700000D02*
X180054000Y-101700000D01*
X180824000Y-100330000D02*
X180054000Y-100330000D01*
X172744000Y-100330000D02*
X173514000Y-100330000D01*
G04 #@! TO.C,D1*
X185710000Y-106392000D02*
X185710000Y-106236000D01*
X185710000Y-104076000D02*
X185710000Y-103920000D01*
X183108870Y-104076163D02*
G75*
G02*
X185190961Y-104076000I1041130J-1079837D01*
G01*
X183108870Y-106235837D02*
G75*
G03*
X185190961Y-106236000I1041130J1079837D01*
G01*
X182477665Y-104077392D02*
G75*
G02*
X185710000Y-103920484I1672335J-1078608D01*
G01*
X182477665Y-106234608D02*
G75*
G03*
X185710000Y-106391516I1672335J1078608D01*
G01*
G04 #@! TO.C,C7*
X183903500Y-121783500D02*
X179363500Y-121783500D01*
X183903500Y-119643500D02*
X179363500Y-119643500D01*
X183903500Y-121783500D02*
X183903500Y-121768500D01*
X183903500Y-119658500D02*
X183903500Y-119643500D01*
X179363500Y-121783500D02*
X179363500Y-121768500D01*
X179363500Y-119658500D02*
X179363500Y-119643500D01*
G04 #@! TO.C,C6*
X178063500Y-129119500D02*
X178063500Y-124579500D01*
X180203500Y-129119500D02*
X180203500Y-124579500D01*
X178063500Y-129119500D02*
X178078500Y-129119500D01*
X180188500Y-129119500D02*
X180203500Y-129119500D01*
X178063500Y-124579500D02*
X178078500Y-124579500D01*
X180188500Y-124579500D02*
X180203500Y-124579500D01*
G04 #@! TO.C,U15*
D13*
X112450952Y-138942380D02*
X113117619Y-138942380D01*
X112689047Y-139942380D01*
X113927142Y-139275714D02*
X113927142Y-139942380D01*
X113689047Y-138894761D02*
X113450952Y-139609047D01*
X114070000Y-139609047D01*
X114927142Y-139942380D02*
X114450952Y-139942380D01*
X114450952Y-138942380D01*
X115212857Y-139894761D02*
X115355714Y-139942380D01*
X115593809Y-139942380D01*
X115689047Y-139894761D01*
X115736666Y-139847142D01*
X115784285Y-139751904D01*
X115784285Y-139656666D01*
X115736666Y-139561428D01*
X115689047Y-139513809D01*
X115593809Y-139466190D01*
X115403333Y-139418571D01*
X115308095Y-139370952D01*
X115260476Y-139323333D01*
X115212857Y-139228095D01*
X115212857Y-139132857D01*
X115260476Y-139037619D01*
X115308095Y-138990000D01*
X115403333Y-138942380D01*
X115641428Y-138942380D01*
X115784285Y-138990000D01*
X116736666Y-139942380D02*
X116165238Y-139942380D01*
X116450952Y-139942380D02*
X116450952Y-138942380D01*
X116355714Y-139085238D01*
X116260476Y-139180476D01*
X116165238Y-139228095D01*
X117070000Y-138942380D02*
X117689047Y-138942380D01*
X117355714Y-139323333D01*
X117498571Y-139323333D01*
X117593809Y-139370952D01*
X117641428Y-139418571D01*
X117689047Y-139513809D01*
X117689047Y-139751904D01*
X117641428Y-139847142D01*
X117593809Y-139894761D01*
X117498571Y-139942380D01*
X117212857Y-139942380D01*
X117117619Y-139894761D01*
X117070000Y-139847142D01*
X118260476Y-139370952D02*
X118165238Y-139323333D01*
X118117619Y-139275714D01*
X118070000Y-139180476D01*
X118070000Y-139132857D01*
X118117619Y-139037619D01*
X118165238Y-138990000D01*
X118260476Y-138942380D01*
X118450952Y-138942380D01*
X118546190Y-138990000D01*
X118593809Y-139037619D01*
X118641428Y-139132857D01*
X118641428Y-139180476D01*
X118593809Y-139275714D01*
X118546190Y-139323333D01*
X118450952Y-139370952D01*
X118260476Y-139370952D01*
X118165238Y-139418571D01*
X118117619Y-139466190D01*
X118070000Y-139561428D01*
X118070000Y-139751904D01*
X118117619Y-139847142D01*
X118165238Y-139894761D01*
X118260476Y-139942380D01*
X118450952Y-139942380D01*
X118546190Y-139894761D01*
X118593809Y-139847142D01*
X118641428Y-139751904D01*
X118641428Y-139561428D01*
X118593809Y-139466190D01*
X118546190Y-139418571D01*
X118450952Y-139370952D01*
G04 #@! TO.C,U14*
X122610952Y-138942380D02*
X123277619Y-138942380D01*
X122849047Y-139942380D01*
X124087142Y-139275714D02*
X124087142Y-139942380D01*
X123849047Y-138894761D02*
X123610952Y-139609047D01*
X124230000Y-139609047D01*
X125087142Y-139942380D02*
X124610952Y-139942380D01*
X124610952Y-138942380D01*
X125372857Y-139894761D02*
X125515714Y-139942380D01*
X125753809Y-139942380D01*
X125849047Y-139894761D01*
X125896666Y-139847142D01*
X125944285Y-139751904D01*
X125944285Y-139656666D01*
X125896666Y-139561428D01*
X125849047Y-139513809D01*
X125753809Y-139466190D01*
X125563333Y-139418571D01*
X125468095Y-139370952D01*
X125420476Y-139323333D01*
X125372857Y-139228095D01*
X125372857Y-139132857D01*
X125420476Y-139037619D01*
X125468095Y-138990000D01*
X125563333Y-138942380D01*
X125801428Y-138942380D01*
X125944285Y-138990000D01*
X126896666Y-139942380D02*
X126325238Y-139942380D01*
X126610952Y-139942380D02*
X126610952Y-138942380D01*
X126515714Y-139085238D01*
X126420476Y-139180476D01*
X126325238Y-139228095D01*
X127230000Y-138942380D02*
X127849047Y-138942380D01*
X127515714Y-139323333D01*
X127658571Y-139323333D01*
X127753809Y-139370952D01*
X127801428Y-139418571D01*
X127849047Y-139513809D01*
X127849047Y-139751904D01*
X127801428Y-139847142D01*
X127753809Y-139894761D01*
X127658571Y-139942380D01*
X127372857Y-139942380D01*
X127277619Y-139894761D01*
X127230000Y-139847142D01*
X128420476Y-139370952D02*
X128325238Y-139323333D01*
X128277619Y-139275714D01*
X128230000Y-139180476D01*
X128230000Y-139132857D01*
X128277619Y-139037619D01*
X128325238Y-138990000D01*
X128420476Y-138942380D01*
X128610952Y-138942380D01*
X128706190Y-138990000D01*
X128753809Y-139037619D01*
X128801428Y-139132857D01*
X128801428Y-139180476D01*
X128753809Y-139275714D01*
X128706190Y-139323333D01*
X128610952Y-139370952D01*
X128420476Y-139370952D01*
X128325238Y-139418571D01*
X128277619Y-139466190D01*
X128230000Y-139561428D01*
X128230000Y-139751904D01*
X128277619Y-139847142D01*
X128325238Y-139894761D01*
X128420476Y-139942380D01*
X128610952Y-139942380D01*
X128706190Y-139894761D01*
X128753809Y-139847142D01*
X128801428Y-139751904D01*
X128801428Y-139561428D01*
X128753809Y-139466190D01*
X128706190Y-139418571D01*
X128610952Y-139370952D01*
G04 #@! TO.C,U13*
X132770952Y-138942380D02*
X133437619Y-138942380D01*
X133009047Y-139942380D01*
X134247142Y-139275714D02*
X134247142Y-139942380D01*
X134009047Y-138894761D02*
X133770952Y-139609047D01*
X134390000Y-139609047D01*
X135247142Y-139942380D02*
X134770952Y-139942380D01*
X134770952Y-138942380D01*
X135532857Y-139894761D02*
X135675714Y-139942380D01*
X135913809Y-139942380D01*
X136009047Y-139894761D01*
X136056666Y-139847142D01*
X136104285Y-139751904D01*
X136104285Y-139656666D01*
X136056666Y-139561428D01*
X136009047Y-139513809D01*
X135913809Y-139466190D01*
X135723333Y-139418571D01*
X135628095Y-139370952D01*
X135580476Y-139323333D01*
X135532857Y-139228095D01*
X135532857Y-139132857D01*
X135580476Y-139037619D01*
X135628095Y-138990000D01*
X135723333Y-138942380D01*
X135961428Y-138942380D01*
X136104285Y-138990000D01*
X137056666Y-139942380D02*
X136485238Y-139942380D01*
X136770952Y-139942380D02*
X136770952Y-138942380D01*
X136675714Y-139085238D01*
X136580476Y-139180476D01*
X136485238Y-139228095D01*
X137390000Y-138942380D02*
X138009047Y-138942380D01*
X137675714Y-139323333D01*
X137818571Y-139323333D01*
X137913809Y-139370952D01*
X137961428Y-139418571D01*
X138009047Y-139513809D01*
X138009047Y-139751904D01*
X137961428Y-139847142D01*
X137913809Y-139894761D01*
X137818571Y-139942380D01*
X137532857Y-139942380D01*
X137437619Y-139894761D01*
X137390000Y-139847142D01*
X138580476Y-139370952D02*
X138485238Y-139323333D01*
X138437619Y-139275714D01*
X138390000Y-139180476D01*
X138390000Y-139132857D01*
X138437619Y-139037619D01*
X138485238Y-138990000D01*
X138580476Y-138942380D01*
X138770952Y-138942380D01*
X138866190Y-138990000D01*
X138913809Y-139037619D01*
X138961428Y-139132857D01*
X138961428Y-139180476D01*
X138913809Y-139275714D01*
X138866190Y-139323333D01*
X138770952Y-139370952D01*
X138580476Y-139370952D01*
X138485238Y-139418571D01*
X138437619Y-139466190D01*
X138390000Y-139561428D01*
X138390000Y-139751904D01*
X138437619Y-139847142D01*
X138485238Y-139894761D01*
X138580476Y-139942380D01*
X138770952Y-139942380D01*
X138866190Y-139894761D01*
X138913809Y-139847142D01*
X138961428Y-139751904D01*
X138961428Y-139561428D01*
X138913809Y-139466190D01*
X138866190Y-139418571D01*
X138770952Y-139370952D01*
G04 #@! TO.C,U5*
X165857619Y-81970952D02*
X165857619Y-82637619D01*
X164857619Y-82209047D01*
X165524285Y-83447142D02*
X164857619Y-83447142D01*
X165905238Y-83209047D02*
X165190952Y-82970952D01*
X165190952Y-83590000D01*
X164857619Y-84447142D02*
X164857619Y-83970952D01*
X165857619Y-83970952D01*
X164905238Y-84732857D02*
X164857619Y-84875714D01*
X164857619Y-85113809D01*
X164905238Y-85209047D01*
X164952857Y-85256666D01*
X165048095Y-85304285D01*
X165143333Y-85304285D01*
X165238571Y-85256666D01*
X165286190Y-85209047D01*
X165333809Y-85113809D01*
X165381428Y-84923333D01*
X165429047Y-84828095D01*
X165476666Y-84780476D01*
X165571904Y-84732857D01*
X165667142Y-84732857D01*
X165762380Y-84780476D01*
X165810000Y-84828095D01*
X165857619Y-84923333D01*
X165857619Y-85161428D01*
X165810000Y-85304285D01*
X164857619Y-86256666D02*
X164857619Y-85685238D01*
X164857619Y-85970952D02*
X165857619Y-85970952D01*
X165714761Y-85875714D01*
X165619523Y-85780476D01*
X165571904Y-85685238D01*
X165857619Y-86590000D02*
X165857619Y-87209047D01*
X165476666Y-86875714D01*
X165476666Y-87018571D01*
X165429047Y-87113809D01*
X165381428Y-87161428D01*
X165286190Y-87209047D01*
X165048095Y-87209047D01*
X164952857Y-87161428D01*
X164905238Y-87113809D01*
X164857619Y-87018571D01*
X164857619Y-86732857D01*
X164905238Y-86637619D01*
X164952857Y-86590000D01*
X165429047Y-87780476D02*
X165476666Y-87685238D01*
X165524285Y-87637619D01*
X165619523Y-87590000D01*
X165667142Y-87590000D01*
X165762380Y-87637619D01*
X165810000Y-87685238D01*
X165857619Y-87780476D01*
X165857619Y-87970952D01*
X165810000Y-88066190D01*
X165762380Y-88113809D01*
X165667142Y-88161428D01*
X165619523Y-88161428D01*
X165524285Y-88113809D01*
X165476666Y-88066190D01*
X165429047Y-87970952D01*
X165429047Y-87780476D01*
X165381428Y-87685238D01*
X165333809Y-87637619D01*
X165238571Y-87590000D01*
X165048095Y-87590000D01*
X164952857Y-87637619D01*
X164905238Y-87685238D01*
X164857619Y-87780476D01*
X164857619Y-87970952D01*
X164905238Y-88066190D01*
X164952857Y-88113809D01*
X165048095Y-88161428D01*
X165238571Y-88161428D01*
X165333809Y-88113809D01*
X165381428Y-88066190D01*
X165429047Y-87970952D01*
G04 #@! TO.C,U4*
X142930952Y-138942380D02*
X143597619Y-138942380D01*
X143169047Y-139942380D01*
X144407142Y-139275714D02*
X144407142Y-139942380D01*
X144169047Y-138894761D02*
X143930952Y-139609047D01*
X144550000Y-139609047D01*
X145407142Y-139942380D02*
X144930952Y-139942380D01*
X144930952Y-138942380D01*
X145692857Y-139894761D02*
X145835714Y-139942380D01*
X146073809Y-139942380D01*
X146169047Y-139894761D01*
X146216666Y-139847142D01*
X146264285Y-139751904D01*
X146264285Y-139656666D01*
X146216666Y-139561428D01*
X146169047Y-139513809D01*
X146073809Y-139466190D01*
X145883333Y-139418571D01*
X145788095Y-139370952D01*
X145740476Y-139323333D01*
X145692857Y-139228095D01*
X145692857Y-139132857D01*
X145740476Y-139037619D01*
X145788095Y-138990000D01*
X145883333Y-138942380D01*
X146121428Y-138942380D01*
X146264285Y-138990000D01*
X147216666Y-139942380D02*
X146645238Y-139942380D01*
X146930952Y-139942380D02*
X146930952Y-138942380D01*
X146835714Y-139085238D01*
X146740476Y-139180476D01*
X146645238Y-139228095D01*
X147550000Y-138942380D02*
X148169047Y-138942380D01*
X147835714Y-139323333D01*
X147978571Y-139323333D01*
X148073809Y-139370952D01*
X148121428Y-139418571D01*
X148169047Y-139513809D01*
X148169047Y-139751904D01*
X148121428Y-139847142D01*
X148073809Y-139894761D01*
X147978571Y-139942380D01*
X147692857Y-139942380D01*
X147597619Y-139894761D01*
X147550000Y-139847142D01*
X148740476Y-139370952D02*
X148645238Y-139323333D01*
X148597619Y-139275714D01*
X148550000Y-139180476D01*
X148550000Y-139132857D01*
X148597619Y-139037619D01*
X148645238Y-138990000D01*
X148740476Y-138942380D01*
X148930952Y-138942380D01*
X149026190Y-138990000D01*
X149073809Y-139037619D01*
X149121428Y-139132857D01*
X149121428Y-139180476D01*
X149073809Y-139275714D01*
X149026190Y-139323333D01*
X148930952Y-139370952D01*
X148740476Y-139370952D01*
X148645238Y-139418571D01*
X148597619Y-139466190D01*
X148550000Y-139561428D01*
X148550000Y-139751904D01*
X148597619Y-139847142D01*
X148645238Y-139894761D01*
X148740476Y-139942380D01*
X148930952Y-139942380D01*
X149026190Y-139894761D01*
X149073809Y-139847142D01*
X149121428Y-139751904D01*
X149121428Y-139561428D01*
X149073809Y-139466190D01*
X149026190Y-139418571D01*
X148930952Y-139370952D01*
G04 #@! TO.C,U3*
X102262380Y-88749523D02*
X102310000Y-88797142D01*
X102357619Y-88892380D01*
X102357619Y-89130476D01*
X102310000Y-89225714D01*
X102262380Y-89273333D01*
X102167142Y-89320952D01*
X102071904Y-89320952D01*
X101929047Y-89273333D01*
X101357619Y-88701904D01*
X101357619Y-89320952D01*
X101929047Y-89892380D02*
X101976666Y-89797142D01*
X102024285Y-89749523D01*
X102119523Y-89701904D01*
X102167142Y-89701904D01*
X102262380Y-89749523D01*
X102310000Y-89797142D01*
X102357619Y-89892380D01*
X102357619Y-90082857D01*
X102310000Y-90178095D01*
X102262380Y-90225714D01*
X102167142Y-90273333D01*
X102119523Y-90273333D01*
X102024285Y-90225714D01*
X101976666Y-90178095D01*
X101929047Y-90082857D01*
X101929047Y-89892380D01*
X101881428Y-89797142D01*
X101833809Y-89749523D01*
X101738571Y-89701904D01*
X101548095Y-89701904D01*
X101452857Y-89749523D01*
X101405238Y-89797142D01*
X101357619Y-89892380D01*
X101357619Y-90082857D01*
X101405238Y-90178095D01*
X101452857Y-90225714D01*
X101548095Y-90273333D01*
X101738571Y-90273333D01*
X101833809Y-90225714D01*
X101881428Y-90178095D01*
X101929047Y-90082857D01*
X101452857Y-91273333D02*
X101405238Y-91225714D01*
X101357619Y-91082857D01*
X101357619Y-90987619D01*
X101405238Y-90844761D01*
X101500476Y-90749523D01*
X101595714Y-90701904D01*
X101786190Y-90654285D01*
X101929047Y-90654285D01*
X102119523Y-90701904D01*
X102214761Y-90749523D01*
X102310000Y-90844761D01*
X102357619Y-90987619D01*
X102357619Y-91082857D01*
X102310000Y-91225714D01*
X102262380Y-91273333D01*
X102262380Y-91654285D02*
X102310000Y-91701904D01*
X102357619Y-91797142D01*
X102357619Y-92035238D01*
X102310000Y-92130476D01*
X102262380Y-92178095D01*
X102167142Y-92225714D01*
X102071904Y-92225714D01*
X101929047Y-92178095D01*
X101357619Y-91606666D01*
X101357619Y-92225714D01*
X102357619Y-93130476D02*
X102357619Y-92654285D01*
X101881428Y-92606666D01*
X101929047Y-92654285D01*
X101976666Y-92749523D01*
X101976666Y-92987619D01*
X101929047Y-93082857D01*
X101881428Y-93130476D01*
X101786190Y-93178095D01*
X101548095Y-93178095D01*
X101452857Y-93130476D01*
X101405238Y-93082857D01*
X101357619Y-92987619D01*
X101357619Y-92749523D01*
X101405238Y-92654285D01*
X101452857Y-92606666D01*
X102357619Y-94035238D02*
X102357619Y-93844761D01*
X102310000Y-93749523D01*
X102262380Y-93701904D01*
X102119523Y-93606666D01*
X101929047Y-93559047D01*
X101548095Y-93559047D01*
X101452857Y-93606666D01*
X101405238Y-93654285D01*
X101357619Y-93749523D01*
X101357619Y-93940000D01*
X101405238Y-94035238D01*
X101452857Y-94082857D01*
X101548095Y-94130476D01*
X101786190Y-94130476D01*
X101881428Y-94082857D01*
X101929047Y-94035238D01*
X101976666Y-93940000D01*
X101976666Y-93749523D01*
X101929047Y-93654285D01*
X101881428Y-93606666D01*
X101786190Y-93559047D01*
G04 #@! TO.C,J2*
X164857619Y-91329142D02*
X165333809Y-90995809D01*
X164857619Y-90757714D02*
X165857619Y-90757714D01*
X165857619Y-91138666D01*
X165810000Y-91233904D01*
X165762380Y-91281523D01*
X165667142Y-91329142D01*
X165524285Y-91329142D01*
X165429047Y-91281523D01*
X165381428Y-91233904D01*
X165333809Y-91138666D01*
X165333809Y-90757714D01*
X165857619Y-91948190D02*
X165857619Y-92138666D01*
X165810000Y-92233904D01*
X165714761Y-92329142D01*
X165524285Y-92376761D01*
X165190952Y-92376761D01*
X165000476Y-92329142D01*
X164905238Y-92233904D01*
X164857619Y-92138666D01*
X164857619Y-91948190D01*
X164905238Y-91852952D01*
X165000476Y-91757714D01*
X165190952Y-91710095D01*
X165524285Y-91710095D01*
X165714761Y-91757714D01*
X165810000Y-91852952D01*
X165857619Y-91948190D01*
X164857619Y-92805333D02*
X165857619Y-92805333D01*
X165143333Y-93138666D01*
X165857619Y-93472000D01*
X164857619Y-93472000D01*
X164952857Y-95281523D02*
X164905238Y-95233904D01*
X164857619Y-95091047D01*
X164857619Y-94995809D01*
X164905238Y-94852952D01*
X165000476Y-94757714D01*
X165095714Y-94710095D01*
X165286190Y-94662476D01*
X165429047Y-94662476D01*
X165619523Y-94710095D01*
X165714761Y-94757714D01*
X165810000Y-94852952D01*
X165857619Y-94995809D01*
X165857619Y-95091047D01*
X165810000Y-95233904D01*
X165762380Y-95281523D01*
X164905238Y-95662476D02*
X164857619Y-95805333D01*
X164857619Y-96043428D01*
X164905238Y-96138666D01*
X164952857Y-96186285D01*
X165048095Y-96233904D01*
X165143333Y-96233904D01*
X165238571Y-96186285D01*
X165286190Y-96138666D01*
X165333809Y-96043428D01*
X165381428Y-95852952D01*
X165429047Y-95757714D01*
X165476666Y-95710095D01*
X165571904Y-95662476D01*
X165667142Y-95662476D01*
X165762380Y-95710095D01*
X165810000Y-95757714D01*
X165857619Y-95852952D01*
X165857619Y-96091047D01*
X165810000Y-96233904D01*
G04 #@! TO.C,C16*
X191301619Y-84717142D02*
X191301619Y-84812380D01*
X191254000Y-84907619D01*
X191206380Y-84955238D01*
X191111142Y-85002857D01*
X190920666Y-85050476D01*
X190682571Y-85050476D01*
X190492095Y-85002857D01*
X190396857Y-84955238D01*
X190349238Y-84907619D01*
X190301619Y-84812380D01*
X190301619Y-84717142D01*
X190349238Y-84621904D01*
X190396857Y-84574285D01*
X190492095Y-84526666D01*
X190682571Y-84479047D01*
X190920666Y-84479047D01*
X191111142Y-84526666D01*
X191206380Y-84574285D01*
X191254000Y-84621904D01*
X191301619Y-84717142D01*
X190396857Y-85479047D02*
X190349238Y-85526666D01*
X190301619Y-85479047D01*
X190349238Y-85431428D01*
X190396857Y-85479047D01*
X190301619Y-85479047D01*
X190301619Y-86479047D02*
X190301619Y-85907619D01*
X190301619Y-86193333D02*
X191301619Y-86193333D01*
X191158761Y-86098095D01*
X191063523Y-86002857D01*
X191015904Y-85907619D01*
X190968285Y-87336190D02*
X190301619Y-87336190D01*
X190968285Y-86907619D02*
X190444476Y-86907619D01*
X190349238Y-86955238D01*
X190301619Y-87050476D01*
X190301619Y-87193333D01*
X190349238Y-87288571D01*
X190396857Y-87336190D01*
X190825428Y-88145714D02*
X190825428Y-87812380D01*
X190301619Y-87812380D02*
X191301619Y-87812380D01*
X191301619Y-88288571D01*
G04 #@! TO.C,C15*
X125357142Y-113498380D02*
X125452380Y-113498380D01*
X125547619Y-113546000D01*
X125595238Y-113593619D01*
X125642857Y-113688857D01*
X125690476Y-113879333D01*
X125690476Y-114117428D01*
X125642857Y-114307904D01*
X125595238Y-114403142D01*
X125547619Y-114450761D01*
X125452380Y-114498380D01*
X125357142Y-114498380D01*
X125261904Y-114450761D01*
X125214285Y-114403142D01*
X125166666Y-114307904D01*
X125119047Y-114117428D01*
X125119047Y-113879333D01*
X125166666Y-113688857D01*
X125214285Y-113593619D01*
X125261904Y-113546000D01*
X125357142Y-113498380D01*
X126119047Y-114403142D02*
X126166666Y-114450761D01*
X126119047Y-114498380D01*
X126071428Y-114450761D01*
X126119047Y-114403142D01*
X126119047Y-114498380D01*
X127119047Y-114498380D02*
X126547619Y-114498380D01*
X126833333Y-114498380D02*
X126833333Y-113498380D01*
X126738095Y-113641238D01*
X126642857Y-113736476D01*
X126547619Y-113784095D01*
X127976190Y-113831714D02*
X127976190Y-114498380D01*
X127547619Y-113831714D02*
X127547619Y-114355523D01*
X127595238Y-114450761D01*
X127690476Y-114498380D01*
X127833333Y-114498380D01*
X127928571Y-114450761D01*
X127976190Y-114403142D01*
X128785714Y-113974571D02*
X128452380Y-113974571D01*
X128452380Y-114498380D02*
X128452380Y-113498380D01*
X128928571Y-113498380D01*
G04 #@! TO.C,C14*
X143041619Y-94877142D02*
X143041619Y-94972380D01*
X142994000Y-95067619D01*
X142946380Y-95115238D01*
X142851142Y-95162857D01*
X142660666Y-95210476D01*
X142422571Y-95210476D01*
X142232095Y-95162857D01*
X142136857Y-95115238D01*
X142089238Y-95067619D01*
X142041619Y-94972380D01*
X142041619Y-94877142D01*
X142089238Y-94781904D01*
X142136857Y-94734285D01*
X142232095Y-94686666D01*
X142422571Y-94639047D01*
X142660666Y-94639047D01*
X142851142Y-94686666D01*
X142946380Y-94734285D01*
X142994000Y-94781904D01*
X143041619Y-94877142D01*
X142136857Y-95639047D02*
X142089238Y-95686666D01*
X142041619Y-95639047D01*
X142089238Y-95591428D01*
X142136857Y-95639047D01*
X142041619Y-95639047D01*
X142041619Y-96639047D02*
X142041619Y-96067619D01*
X142041619Y-96353333D02*
X143041619Y-96353333D01*
X142898761Y-96258095D01*
X142803523Y-96162857D01*
X142755904Y-96067619D01*
X142708285Y-97496190D02*
X142041619Y-97496190D01*
X142708285Y-97067619D02*
X142184476Y-97067619D01*
X142089238Y-97115238D01*
X142041619Y-97210476D01*
X142041619Y-97353333D01*
X142089238Y-97448571D01*
X142136857Y-97496190D01*
X142565428Y-98305714D02*
X142565428Y-97972380D01*
X142041619Y-97972380D02*
X143041619Y-97972380D01*
X143041619Y-98448571D01*
G04 #@! TO.C,C10*
X135517142Y-113498380D02*
X135612380Y-113498380D01*
X135707619Y-113546000D01*
X135755238Y-113593619D01*
X135802857Y-113688857D01*
X135850476Y-113879333D01*
X135850476Y-114117428D01*
X135802857Y-114307904D01*
X135755238Y-114403142D01*
X135707619Y-114450761D01*
X135612380Y-114498380D01*
X135517142Y-114498380D01*
X135421904Y-114450761D01*
X135374285Y-114403142D01*
X135326666Y-114307904D01*
X135279047Y-114117428D01*
X135279047Y-113879333D01*
X135326666Y-113688857D01*
X135374285Y-113593619D01*
X135421904Y-113546000D01*
X135517142Y-113498380D01*
X136279047Y-114403142D02*
X136326666Y-114450761D01*
X136279047Y-114498380D01*
X136231428Y-114450761D01*
X136279047Y-114403142D01*
X136279047Y-114498380D01*
X137279047Y-114498380D02*
X136707619Y-114498380D01*
X136993333Y-114498380D02*
X136993333Y-113498380D01*
X136898095Y-113641238D01*
X136802857Y-113736476D01*
X136707619Y-113784095D01*
X138136190Y-113831714D02*
X138136190Y-114498380D01*
X137707619Y-113831714D02*
X137707619Y-114355523D01*
X137755238Y-114450761D01*
X137850476Y-114498380D01*
X137993333Y-114498380D01*
X138088571Y-114450761D01*
X138136190Y-114403142D01*
X138945714Y-113974571D02*
X138612380Y-113974571D01*
X138612380Y-114498380D02*
X138612380Y-113498380D01*
X139088571Y-113498380D01*
G04 #@! TO.C,C9*
X115197142Y-113498380D02*
X115292380Y-113498380D01*
X115387619Y-113546000D01*
X115435238Y-113593619D01*
X115482857Y-113688857D01*
X115530476Y-113879333D01*
X115530476Y-114117428D01*
X115482857Y-114307904D01*
X115435238Y-114403142D01*
X115387619Y-114450761D01*
X115292380Y-114498380D01*
X115197142Y-114498380D01*
X115101904Y-114450761D01*
X115054285Y-114403142D01*
X115006666Y-114307904D01*
X114959047Y-114117428D01*
X114959047Y-113879333D01*
X115006666Y-113688857D01*
X115054285Y-113593619D01*
X115101904Y-113546000D01*
X115197142Y-113498380D01*
X115959047Y-114403142D02*
X116006666Y-114450761D01*
X115959047Y-114498380D01*
X115911428Y-114450761D01*
X115959047Y-114403142D01*
X115959047Y-114498380D01*
X116959047Y-114498380D02*
X116387619Y-114498380D01*
X116673333Y-114498380D02*
X116673333Y-113498380D01*
X116578095Y-113641238D01*
X116482857Y-113736476D01*
X116387619Y-113784095D01*
X117816190Y-113831714D02*
X117816190Y-114498380D01*
X117387619Y-113831714D02*
X117387619Y-114355523D01*
X117435238Y-114450761D01*
X117530476Y-114498380D01*
X117673333Y-114498380D01*
X117768571Y-114450761D01*
X117816190Y-114403142D01*
X118625714Y-113974571D02*
X118292380Y-113974571D01*
X118292380Y-114498380D02*
X118292380Y-113498380D01*
X118768571Y-113498380D01*
G04 #@! TO.C,C8*
X145677142Y-113498380D02*
X145772380Y-113498380D01*
X145867619Y-113546000D01*
X145915238Y-113593619D01*
X145962857Y-113688857D01*
X146010476Y-113879333D01*
X146010476Y-114117428D01*
X145962857Y-114307904D01*
X145915238Y-114403142D01*
X145867619Y-114450761D01*
X145772380Y-114498380D01*
X145677142Y-114498380D01*
X145581904Y-114450761D01*
X145534285Y-114403142D01*
X145486666Y-114307904D01*
X145439047Y-114117428D01*
X145439047Y-113879333D01*
X145486666Y-113688857D01*
X145534285Y-113593619D01*
X145581904Y-113546000D01*
X145677142Y-113498380D01*
X146439047Y-114403142D02*
X146486666Y-114450761D01*
X146439047Y-114498380D01*
X146391428Y-114450761D01*
X146439047Y-114403142D01*
X146439047Y-114498380D01*
X147439047Y-114498380D02*
X146867619Y-114498380D01*
X147153333Y-114498380D02*
X147153333Y-113498380D01*
X147058095Y-113641238D01*
X146962857Y-113736476D01*
X146867619Y-113784095D01*
X148296190Y-113831714D02*
X148296190Y-114498380D01*
X147867619Y-113831714D02*
X147867619Y-114355523D01*
X147915238Y-114450761D01*
X148010476Y-114498380D01*
X148153333Y-114498380D01*
X148248571Y-114450761D01*
X148296190Y-114403142D01*
X149105714Y-113974571D02*
X148772380Y-113974571D01*
X148772380Y-114498380D02*
X148772380Y-113498380D01*
X149248571Y-113498380D01*
G04 #@! TO.C,J1*
X132127666Y-141946380D02*
X132127666Y-142660666D01*
X132080047Y-142803523D01*
X131984809Y-142898761D01*
X131841952Y-142946380D01*
X131746714Y-142946380D01*
X133127666Y-142946380D02*
X132556238Y-142946380D01*
X132841952Y-142946380D02*
X132841952Y-141946380D01*
X132746714Y-142089238D01*
X132651476Y-142184476D01*
X132556238Y-142232095D01*
G04 #@! TO.C,U2*
X180745119Y-124357309D02*
X180745119Y-123881119D01*
X181745119Y-123881119D01*
X180745119Y-124690642D02*
X181745119Y-124690642D01*
X181030833Y-125023976D01*
X181745119Y-125357309D01*
X180745119Y-125357309D01*
X180745119Y-126357309D02*
X180745119Y-125785880D01*
X180745119Y-126071595D02*
X181745119Y-126071595D01*
X181602261Y-125976357D01*
X181507023Y-125881119D01*
X181459404Y-125785880D01*
X180745119Y-127309690D02*
X180745119Y-126738261D01*
X180745119Y-127023976D02*
X181745119Y-127023976D01*
X181602261Y-126928738D01*
X181507023Y-126833500D01*
X181459404Y-126738261D01*
X180745119Y-128262071D02*
X180745119Y-127690642D01*
X180745119Y-127976357D02*
X181745119Y-127976357D01*
X181602261Y-127881119D01*
X181507023Y-127785880D01*
X181459404Y-127690642D01*
X181745119Y-128595404D02*
X181745119Y-129262071D01*
X180745119Y-128833500D01*
X181126071Y-129643023D02*
X181126071Y-130404928D01*
X181745119Y-130785880D02*
X181745119Y-131404928D01*
X181364166Y-131071595D01*
X181364166Y-131214452D01*
X181316547Y-131309690D01*
X181268928Y-131357309D01*
X181173690Y-131404928D01*
X180935595Y-131404928D01*
X180840357Y-131357309D01*
X180792738Y-131309690D01*
X180745119Y-131214452D01*
X180745119Y-130928738D01*
X180792738Y-130833500D01*
X180840357Y-130785880D01*
X180840357Y-131833500D02*
X180792738Y-131881119D01*
X180745119Y-131833500D01*
X180792738Y-131785880D01*
X180840357Y-131833500D01*
X180745119Y-131833500D01*
X181745119Y-132214452D02*
X181745119Y-132833500D01*
X181364166Y-132500166D01*
X181364166Y-132643023D01*
X181316547Y-132738261D01*
X181268928Y-132785880D01*
X181173690Y-132833500D01*
X180935595Y-132833500D01*
X180840357Y-132785880D01*
X180792738Y-132738261D01*
X180745119Y-132643023D01*
X180745119Y-132357309D01*
X180792738Y-132262071D01*
X180840357Y-132214452D01*
G04 #@! TO.C,C5*
X179585880Y-108910642D02*
X179633500Y-108958261D01*
X179681119Y-109053500D01*
X179681119Y-109291595D01*
X179633500Y-109386833D01*
X179585880Y-109434452D01*
X179490642Y-109482071D01*
X179395404Y-109482071D01*
X179252547Y-109434452D01*
X178681119Y-108863023D01*
X178681119Y-109482071D01*
X179585880Y-109863023D02*
X179633500Y-109910642D01*
X179681119Y-110005880D01*
X179681119Y-110243976D01*
X179633500Y-110339214D01*
X179585880Y-110386833D01*
X179490642Y-110434452D01*
X179395404Y-110434452D01*
X179252547Y-110386833D01*
X178681119Y-109815404D01*
X178681119Y-110434452D01*
X179347785Y-110863023D02*
X178347785Y-110863023D01*
X179300166Y-110863023D02*
X179347785Y-110958261D01*
X179347785Y-111148738D01*
X179300166Y-111243976D01*
X179252547Y-111291595D01*
X179157309Y-111339214D01*
X178871595Y-111339214D01*
X178776357Y-111291595D01*
X178728738Y-111243976D01*
X178681119Y-111148738D01*
X178681119Y-110958261D01*
X178728738Y-110863023D01*
X179204928Y-112101119D02*
X179204928Y-111767785D01*
X178681119Y-111767785D02*
X179681119Y-111767785D01*
X179681119Y-112243976D01*
G04 #@! TO.C,C4*
X169299142Y-102925619D02*
X169346761Y-102878000D01*
X169442000Y-102830380D01*
X169680095Y-102830380D01*
X169775333Y-102878000D01*
X169822952Y-102925619D01*
X169870571Y-103020857D01*
X169870571Y-103116095D01*
X169822952Y-103258952D01*
X169251523Y-103830380D01*
X169870571Y-103830380D01*
X170251523Y-102925619D02*
X170299142Y-102878000D01*
X170394380Y-102830380D01*
X170632476Y-102830380D01*
X170727714Y-102878000D01*
X170775333Y-102925619D01*
X170822952Y-103020857D01*
X170822952Y-103116095D01*
X170775333Y-103258952D01*
X170203904Y-103830380D01*
X170822952Y-103830380D01*
X171251523Y-103163714D02*
X171251523Y-104163714D01*
X171251523Y-103211333D02*
X171346761Y-103163714D01*
X171537238Y-103163714D01*
X171632476Y-103211333D01*
X171680095Y-103258952D01*
X171727714Y-103354190D01*
X171727714Y-103639904D01*
X171680095Y-103735142D01*
X171632476Y-103782761D01*
X171537238Y-103830380D01*
X171346761Y-103830380D01*
X171251523Y-103782761D01*
X172489619Y-103306571D02*
X172156285Y-103306571D01*
X172156285Y-103830380D02*
X172156285Y-102830380D01*
X172632476Y-102830380D01*
G04 #@! TO.C,C2*
X180562071Y-118625880D02*
X179990642Y-118625880D01*
X180276357Y-118625880D02*
X180276357Y-117625880D01*
X180181119Y-117768738D01*
X180085880Y-117863976D01*
X179990642Y-117911595D01*
X181181119Y-117625880D02*
X181276357Y-117625880D01*
X181371595Y-117673500D01*
X181419214Y-117721119D01*
X181466833Y-117816357D01*
X181514452Y-118006833D01*
X181514452Y-118244928D01*
X181466833Y-118435404D01*
X181419214Y-118530642D01*
X181371595Y-118578261D01*
X181276357Y-118625880D01*
X181181119Y-118625880D01*
X181085880Y-118578261D01*
X181038261Y-118530642D01*
X180990642Y-118435404D01*
X180943023Y-118244928D01*
X180943023Y-118006833D01*
X180990642Y-117816357D01*
X181038261Y-117721119D01*
X181085880Y-117673500D01*
X181181119Y-117625880D01*
X181943023Y-117959214D02*
X181943023Y-118625880D01*
X181943023Y-118054452D02*
X181990642Y-118006833D01*
X182085880Y-117959214D01*
X182228738Y-117959214D01*
X182323976Y-118006833D01*
X182371595Y-118102071D01*
X182371595Y-118625880D01*
X183181119Y-118102071D02*
X182847785Y-118102071D01*
X182847785Y-118625880D02*
X182847785Y-117625880D01*
X183323976Y-117625880D01*
G04 #@! TO.C,C1*
X166346452Y-131849880D02*
X166441690Y-131849880D01*
X166536928Y-131897500D01*
X166584547Y-131945119D01*
X166632166Y-132040357D01*
X166679785Y-132230833D01*
X166679785Y-132468928D01*
X166632166Y-132659404D01*
X166584547Y-132754642D01*
X166536928Y-132802261D01*
X166441690Y-132849880D01*
X166346452Y-132849880D01*
X166251214Y-132802261D01*
X166203595Y-132754642D01*
X166155976Y-132659404D01*
X166108357Y-132468928D01*
X166108357Y-132230833D01*
X166155976Y-132040357D01*
X166203595Y-131945119D01*
X166251214Y-131897500D01*
X166346452Y-131849880D01*
X167108357Y-132754642D02*
X167155976Y-132802261D01*
X167108357Y-132849880D01*
X167060738Y-132802261D01*
X167108357Y-132754642D01*
X167108357Y-132849880D01*
X168013119Y-132183214D02*
X168013119Y-132849880D01*
X167775023Y-131802261D02*
X167536928Y-132516547D01*
X168155976Y-132516547D01*
X168441690Y-131849880D02*
X169108357Y-131849880D01*
X168679785Y-132849880D01*
X169917880Y-132183214D02*
X169917880Y-132849880D01*
X169489309Y-132183214D02*
X169489309Y-132707023D01*
X169536928Y-132802261D01*
X169632166Y-132849880D01*
X169775023Y-132849880D01*
X169870261Y-132802261D01*
X169917880Y-132754642D01*
X170727404Y-132326071D02*
X170394071Y-132326071D01*
X170394071Y-132849880D02*
X170394071Y-131849880D01*
X170870261Y-131849880D01*
G04 #@! TO.C,Y2*
X168870571Y-105608380D02*
X168299142Y-105608380D01*
X168584857Y-105608380D02*
X168584857Y-104608380D01*
X168489619Y-104751238D01*
X168394380Y-104846476D01*
X168299142Y-104894095D01*
X169251523Y-104703619D02*
X169299142Y-104656000D01*
X169394380Y-104608380D01*
X169632476Y-104608380D01*
X169727714Y-104656000D01*
X169775333Y-104703619D01*
X169822952Y-104798857D01*
X169822952Y-104894095D01*
X169775333Y-105036952D01*
X169203904Y-105608380D01*
X169822952Y-105608380D01*
X171013428Y-105608380D02*
X171013428Y-104608380D01*
X171346761Y-105322666D01*
X171680095Y-104608380D01*
X171680095Y-105608380D01*
X172156285Y-105608380D02*
X172156285Y-104608380D01*
X172156285Y-105084571D02*
X172727714Y-105084571D01*
X172727714Y-105608380D02*
X172727714Y-104608380D01*
X173108666Y-104941714D02*
X173632476Y-104941714D01*
X173108666Y-105608380D01*
X173632476Y-105608380D01*
G04 #@! TO.C,U1*
X169362642Y-130722642D02*
X169315023Y-130770261D01*
X169172166Y-130817880D01*
X169076928Y-130817880D01*
X168934071Y-130770261D01*
X168838833Y-130675023D01*
X168791214Y-130579785D01*
X168743595Y-130389309D01*
X168743595Y-130246452D01*
X168791214Y-130055976D01*
X168838833Y-129960738D01*
X168934071Y-129865500D01*
X169076928Y-129817880D01*
X169172166Y-129817880D01*
X169315023Y-129865500D01*
X169362642Y-129913119D01*
X169791214Y-130817880D02*
X169791214Y-129817880D01*
X169791214Y-130294071D02*
X170362642Y-130294071D01*
X170362642Y-130817880D02*
X170362642Y-129817880D01*
X170743595Y-129817880D02*
X171362642Y-129817880D01*
X171029309Y-130198833D01*
X171172166Y-130198833D01*
X171267404Y-130246452D01*
X171315023Y-130294071D01*
X171362642Y-130389309D01*
X171362642Y-130627404D01*
X171315023Y-130722642D01*
X171267404Y-130770261D01*
X171172166Y-130817880D01*
X170886452Y-130817880D01*
X170791214Y-130770261D01*
X170743595Y-130722642D01*
X171695976Y-129817880D02*
X172362642Y-129817880D01*
X171934071Y-130817880D01*
X173172166Y-129817880D02*
X172981690Y-129817880D01*
X172886452Y-129865500D01*
X172838833Y-129913119D01*
X172743595Y-130055976D01*
X172695976Y-130246452D01*
X172695976Y-130627404D01*
X172743595Y-130722642D01*
X172791214Y-130770261D01*
X172886452Y-130817880D01*
X173076928Y-130817880D01*
X173172166Y-130770261D01*
X173219785Y-130722642D01*
X173267404Y-130627404D01*
X173267404Y-130389309D01*
X173219785Y-130294071D01*
X173172166Y-130246452D01*
X173076928Y-130198833D01*
X172886452Y-130198833D01*
X172791214Y-130246452D01*
X172743595Y-130294071D01*
X172695976Y-130389309D01*
G04 #@! TO.C,R2*
X174617333Y-100782380D02*
X174045904Y-100782380D01*
X174331619Y-100782380D02*
X174331619Y-99782380D01*
X174236380Y-99925238D01*
X174141142Y-100020476D01*
X174045904Y-100068095D01*
X175045904Y-100782380D02*
X175045904Y-99782380D01*
X175617333Y-100782380D02*
X175188761Y-100210952D01*
X175617333Y-99782380D02*
X175045904Y-100353809D01*
X176950666Y-100782380D02*
X176855428Y-100734761D01*
X176807809Y-100687142D01*
X176760190Y-100591904D01*
X176760190Y-100306190D01*
X176807809Y-100210952D01*
X176855428Y-100163333D01*
X176950666Y-100115714D01*
X177093523Y-100115714D01*
X177188761Y-100163333D01*
X177236380Y-100210952D01*
X177284000Y-100306190D01*
X177284000Y-100591904D01*
X177236380Y-100687142D01*
X177188761Y-100734761D01*
X177093523Y-100782380D01*
X176950666Y-100782380D01*
X177712571Y-100782380D02*
X177712571Y-99782380D01*
X178141142Y-100782380D02*
X178141142Y-100258571D01*
X178093523Y-100163333D01*
X177998285Y-100115714D01*
X177855428Y-100115714D01*
X177760190Y-100163333D01*
X177712571Y-100210952D01*
X178617333Y-100782380D02*
X178617333Y-100115714D01*
X178617333Y-100210952D02*
X178664952Y-100163333D01*
X178760190Y-100115714D01*
X178903047Y-100115714D01*
X178998285Y-100163333D01*
X179045904Y-100258571D01*
X179045904Y-100782380D01*
X179045904Y-100258571D02*
X179093523Y-100163333D01*
X179188761Y-100115714D01*
X179331619Y-100115714D01*
X179426857Y-100163333D01*
X179474476Y-100258571D01*
X179474476Y-100782380D01*
G04 #@! TO.C,D1*
X183914142Y-102452714D02*
X183551285Y-102452714D01*
X183551285Y-101690714D01*
X184168142Y-102053571D02*
X184422142Y-102053571D01*
X184531000Y-102452714D02*
X184168142Y-102452714D01*
X184168142Y-101690714D01*
X184531000Y-101690714D01*
X184857571Y-102452714D02*
X184857571Y-101690714D01*
X185039000Y-101690714D01*
X185147857Y-101727000D01*
X185220428Y-101799571D01*
X185256714Y-101872142D01*
X185293000Y-102017285D01*
X185293000Y-102126142D01*
X185256714Y-102271285D01*
X185220428Y-102343857D01*
X185147857Y-102416428D01*
X185039000Y-102452714D01*
X184857571Y-102452714D01*
G04 #@! TO.C,C7*
X179950642Y-120165880D02*
X180045880Y-120165880D01*
X180141119Y-120213500D01*
X180188738Y-120261119D01*
X180236357Y-120356357D01*
X180283976Y-120546833D01*
X180283976Y-120784928D01*
X180236357Y-120975404D01*
X180188738Y-121070642D01*
X180141119Y-121118261D01*
X180045880Y-121165880D01*
X179950642Y-121165880D01*
X179855404Y-121118261D01*
X179807785Y-121070642D01*
X179760166Y-120975404D01*
X179712547Y-120784928D01*
X179712547Y-120546833D01*
X179760166Y-120356357D01*
X179807785Y-120261119D01*
X179855404Y-120213500D01*
X179950642Y-120165880D01*
X180712547Y-121070642D02*
X180760166Y-121118261D01*
X180712547Y-121165880D01*
X180664928Y-121118261D01*
X180712547Y-121070642D01*
X180712547Y-121165880D01*
X181712547Y-121165880D02*
X181141119Y-121165880D01*
X181426833Y-121165880D02*
X181426833Y-120165880D01*
X181331595Y-120308738D01*
X181236357Y-120403976D01*
X181141119Y-120451595D01*
X182569690Y-120499214D02*
X182569690Y-121165880D01*
X182141119Y-120499214D02*
X182141119Y-121023023D01*
X182188738Y-121118261D01*
X182283976Y-121165880D01*
X182426833Y-121165880D01*
X182522071Y-121118261D01*
X182569690Y-121070642D01*
X183379214Y-120642071D02*
X183045880Y-120642071D01*
X183045880Y-121165880D02*
X183045880Y-120165880D01*
X183522071Y-120165880D01*
G04 #@! TO.C,C6*
X179681119Y-125206642D02*
X179681119Y-125301880D01*
X179633500Y-125397119D01*
X179585880Y-125444738D01*
X179490642Y-125492357D01*
X179300166Y-125539976D01*
X179062071Y-125539976D01*
X178871595Y-125492357D01*
X178776357Y-125444738D01*
X178728738Y-125397119D01*
X178681119Y-125301880D01*
X178681119Y-125206642D01*
X178728738Y-125111404D01*
X178776357Y-125063785D01*
X178871595Y-125016166D01*
X179062071Y-124968547D01*
X179300166Y-124968547D01*
X179490642Y-125016166D01*
X179585880Y-125063785D01*
X179633500Y-125111404D01*
X179681119Y-125206642D01*
X178776357Y-125968547D02*
X178728738Y-126016166D01*
X178681119Y-125968547D01*
X178728738Y-125920928D01*
X178776357Y-125968547D01*
X178681119Y-125968547D01*
X178681119Y-126968547D02*
X178681119Y-126397119D01*
X178681119Y-126682833D02*
X179681119Y-126682833D01*
X179538261Y-126587595D01*
X179443023Y-126492357D01*
X179395404Y-126397119D01*
X179347785Y-127825690D02*
X178681119Y-127825690D01*
X179347785Y-127397119D02*
X178823976Y-127397119D01*
X178728738Y-127444738D01*
X178681119Y-127539976D01*
X178681119Y-127682833D01*
X178728738Y-127778071D01*
X178776357Y-127825690D01*
X179204928Y-128635214D02*
X179204928Y-128301880D01*
X178681119Y-128301880D02*
X179681119Y-128301880D01*
X179681119Y-128778071D01*
G04 #@! TD*
M02*
