M48
; DRILL file {KiCad (5.1.8)-1} date 05/28/23 04:51:14
; FORMAT={-:-/ absolute / inch / decimal}
; #@! TF.CreationDate,2023-05-28T04:51:14-06:00
; #@! TF.GenerationSoftware,Kicad,Pcbnew,(5.1.8)-1
; #@! TF.FileFunction,Plated,1,2,PTH
FMAT,2
INCH
T1C0.0157
T2C0.0315
T3C0.0354
T4C0.0362
T5C0.0394
T6C0.0433
T7C0.0906
T8C0.1200
T9C0.1378
%
G90
G05
T1
X4.0Y-3.71
X4.0Y-4.59
X4.0Y-5.42
X4.05Y-3.46
X4.05Y-5.7
X4.1Y-3.71
X4.1Y-4.09
X4.15Y-3.49
X4.15Y-5.7
X4.2Y-4.06
X4.2Y-4.55
X4.2Y-5.22
X4.22Y-3.43
X4.25Y-3.52
X4.25Y-4.36
X4.25Y-5.7
X4.3Y-4.03
X4.32Y-3.4
X4.34Y-5.7
X4.35Y-3.55
X4.4Y-4.0
X4.42Y-3.37
X4.45Y-3.58
X4.45Y-5.7
X4.5Y-3.97
X4.5Y-5.02
X4.52Y-3.46
X4.53Y-4.72
X4.53Y-5.7
X4.55Y-3.61
X4.6Y-4.82
X4.6Y-5.7
X4.62Y-3.49
X4.62Y-3.77
X4.63Y-4.92
X4.65Y-3.64
X4.67Y-5.7
X4.7Y-4.12
X4.72Y-3.52
X4.75Y-3.67
X4.79Y-3.83
X4.82Y-3.55
X4.85Y-4.18
X4.85Y-5.7
X4.9Y-4.15
X4.9Y-4.72
X4.92Y-3.58
X4.93Y-4.82
X4.93Y-5.7
X4.96Y-4.78
X4.96Y-5.15
X5.0Y-4.92
X5.0Y-5.7
X5.02Y-3.61
X5.03Y-5.02
X5.05Y-4.12
X5.07Y-5.7
X5.1Y-4.18
X5.12Y-3.64
X5.15Y-4.15
X5.2Y-3.71
X5.22Y-3.67
X5.25Y-5.7
X5.26Y-5.22
X5.3Y-4.72
X5.32Y-3.8
X5.33Y-4.82
X5.33Y-5.7
X5.35Y-3.46
X5.36Y-4.78
X5.36Y-5.15
X5.4Y-3.71
X5.4Y-4.92
X5.4Y-5.7
X5.43Y-5.02
X5.47Y-5.7
X5.48Y-3.3
X5.57Y-3.27
X5.57Y-3.46
X5.6Y-3.33
X5.65Y-5.7
X5.67Y-5.02
X5.67Y-5.4
X5.7Y-4.72
X5.7Y-5.63
X5.73Y-4.82
X5.73Y-5.7
X5.75Y-5.38
X5.77Y-3.52
X5.77Y-5.66
X5.78Y-5.28
X5.8Y-3.57
X5.8Y-4.92
X5.8Y-5.7
X5.83Y-3.24
X5.87Y-5.7
X5.97Y-3.83
X6.0Y-3.8
X6.04Y-4.59
X6.04Y-4.82
X6.05Y-5.15
X6.05Y-5.7
X6.08Y-3.9
X6.08Y-4.55
X6.09Y-5.29
X6.09Y-5.41
X6.09Y-5.63
X6.12Y-5.38
X6.12Y-5.66
X6.15Y-3.37
X6.15Y-4.43
X6.15Y-5.7
X6.18Y-3.4
X6.18Y-4.48
X6.18Y-5.64
X6.21Y-3.43
X6.21Y-4.53
X6.21Y-5.61
X6.24Y-4.09
X6.24Y-4.58
X6.24Y-5.58
X6.25Y-5.64
X6.25Y-5.7
X6.27Y-4.06
X6.27Y-4.63
X6.27Y-5.55
X6.3Y-4.03
X6.3Y-4.68
X6.3Y-5.52
X6.33Y-4.0
X6.33Y-4.73
X6.33Y-5.49
X6.35Y-5.61
X6.35Y-5.7
X6.36Y-3.97
X6.36Y-4.78
X6.36Y-5.46
X6.45Y-5.58
X6.45Y-5.7
X6.46Y-3.36
X6.5Y-3.42
X6.5Y-3.71
X6.54Y-5.11
X6.55Y-5.55
X6.55Y-5.7
X6.6Y-3.42
X6.6125Y-4.8225
X6.62Y-5.03
X6.62Y-5.35
X6.6425Y-4.4725
X6.65Y-4.97
X6.65Y-5.38
X6.65Y-5.52
X6.65Y-5.7
X6.6525Y-4.7275
X6.68Y-5.41
X6.68Y-4.93
X6.6925Y-4.8225
X6.7325Y-5.1025
X6.75Y-5.49
X6.75Y-5.7
X6.7575Y-4.3125
X6.78Y-3.25
X6.78Y-4.36
X6.78Y-4.72
X6.8Y-5.29
X6.8325Y-4.4225
X6.85Y-5.46
X6.85Y-5.7
X6.9Y-3.42
X6.98Y-3.36
X6.9925Y-4.5425
X6.9925Y-4.6225
X7.0525Y-4.3125
X7.08Y-3.33
X7.1125Y-4.5825
X7.1125Y-5.1225
X7.1125Y-5.2875
X7.18Y-3.3
X7.28Y-3.27
X7.3Y-3.95
X7.43Y-3.42
X7.43Y-3.88
T2
X5.53Y-3.7031
X5.53Y-3.9
X7.43Y-3.3031
X7.43Y-3.5
X4.9031Y-4.57
X5.1Y-4.57
X6.6Y-3.2
X6.6Y-3.5
X6.7Y-3.2
X6.7Y-3.5
X6.8Y-3.2
X6.8Y-3.5
X6.9Y-3.2
X6.9Y-3.5
X7.0Y-3.2
X7.0Y-3.5
X7.1Y-3.2
X7.1Y-3.5
X7.2Y-3.2
X7.2Y-3.5
X7.3Y-3.2
X7.3Y-3.5
X6.76Y-3.95
X7.16Y-3.95
X7.0525Y-4.2525
X7.0525Y-4.4494
X6.5356Y-5.2125
X6.7325Y-5.2125
X7.0525Y-4.8956
X7.0525Y-5.0925
X7.0525Y-4.6525
X7.2494Y-4.6525
X5.6Y-4.7
X5.6Y-4.8
X5.6Y-4.9
X5.6Y-5.0
X5.6Y-5.1
X5.6Y-5.2
X5.6Y-5.3
X5.6Y-5.4
X5.9Y-4.7
X5.9Y-4.8
X5.9Y-4.9
X5.9Y-5.0
X5.9Y-5.1
X5.9Y-5.2
X5.9Y-5.3
X5.9Y-5.4
X6.63Y-4.07
X6.8269Y-4.07
X7.0525Y-4.7525
X7.2494Y-4.7525
X5.2Y-4.7
X5.2Y-4.8
X5.2Y-4.9
X5.2Y-5.0
X5.2Y-5.1
X5.2Y-5.2
X5.2Y-5.3
X5.2Y-5.4
X5.5Y-4.7
X5.5Y-4.8
X5.5Y-4.9
X5.5Y-5.0
X5.5Y-5.1
X5.5Y-5.2
X5.5Y-5.3
X5.5Y-5.4
X4.8Y-4.7
X4.8Y-4.8
X4.8Y-4.9
X4.8Y-5.0
X4.8Y-5.1
X4.8Y-5.2
X4.8Y-5.3
X4.8Y-5.4
X5.1Y-4.7
X5.1Y-4.8
X5.1Y-4.9
X5.1Y-5.0
X5.1Y-5.1
X5.1Y-5.2
X5.1Y-5.3
X5.1Y-5.4
X6.6325Y-4.2525
X6.8254Y-4.2525
X4.1Y-3.3
X4.1Y-3.9
X4.2Y-3.3
X4.2Y-3.9
X4.3Y-3.3
X4.3Y-3.9
X4.4Y-3.3
X4.4Y-3.9
X4.5Y-3.3
X4.5Y-3.9
X4.6Y-3.3
X4.6Y-3.9
X4.7Y-3.3
X4.7Y-3.9
X4.8Y-3.3
X4.8Y-3.9
X4.9Y-3.3
X4.9Y-3.9
X5.0Y-3.3
X5.0Y-3.9
X5.1Y-3.3
X5.1Y-3.9
X5.2Y-3.3
X5.2Y-3.9
X5.3Y-3.3
X5.3Y-3.9
X5.4Y-3.3
X5.4Y-3.9
X5.3031Y-4.57
X5.5Y-4.57
X4.4Y-4.7
X4.4Y-4.8
X4.4Y-4.9
X4.4Y-5.0
X4.4Y-5.1
X4.4Y-5.2
X4.4Y-5.3
X4.4Y-5.4
X4.7Y-4.7
X4.7Y-4.8
X4.7Y-4.9
X4.7Y-5.0
X4.7Y-5.1
X4.7Y-5.2
X4.7Y-5.3
X4.7Y-5.4
X5.7031Y-4.57
X5.9Y-4.57
X4.5031Y-4.57
X4.7Y-4.57
T3
X7.2Y-4.14
X7.3Y-4.14
T4
X7.4525Y-4.3369
X7.4525Y-4.4353
X7.4525Y-4.5141
X7.4525Y-4.6125
T5
X6.31Y-3.52
X6.31Y-3.62
X6.41Y-3.52
X6.41Y-3.62
X6.6Y-3.63
X6.6Y-3.73
X6.7Y-3.63
X6.7Y-3.73
X6.8Y-3.63
X6.8Y-3.73
X6.9Y-3.63
X6.9Y-3.73
X7.0Y-3.63
X7.0Y-3.73
X7.1Y-3.63
X7.1Y-3.73
X7.2Y-3.63
X7.2Y-3.73
X7.3Y-3.63
X7.3Y-3.73
T6
X7.2125Y-4.9525
X7.2125Y-5.0525
X7.2125Y-5.1525
T7
X7.5592Y-4.216
X7.5592Y-4.7334
T8
X7.79Y-5.6
X7.79Y-3.35
T9
X7.8684Y-5.0525
T0
M30
