G04 #@! TF.GenerationSoftware,KiCad,Pcbnew,(5.1.8)-1*
G04 #@! TF.CreationDate,2023-04-05T17:01:07-06:00*
G04 #@! TF.ProjectId,CH376S Module,43483337-3653-4204-9d6f-64756c652e6b,rev?*
G04 #@! TF.SameCoordinates,Original*
G04 #@! TF.FileFunction,Copper,L2,Bot*
G04 #@! TF.FilePolarity,Positive*
%FSLAX46Y46*%
G04 Gerber Fmt 4.6, Leading zero omitted, Abs format (unit mm)*
G04 Created by KiCad (PCBNEW (5.1.8)-1) date 2023-04-05 17:01:07*
%MOMM*%
%LPD*%
G01*
G04 APERTURE LIST*
G04 #@! TA.AperFunction,ComponentPad*
%ADD10O,1.600000X1.600000*%
G04 #@! TD*
G04 #@! TA.AperFunction,ComponentPad*
%ADD11R,1.600000X1.600000*%
G04 #@! TD*
G04 #@! TA.AperFunction,ComponentPad*
%ADD12O,1.700000X1.700000*%
G04 #@! TD*
G04 #@! TA.AperFunction,ComponentPad*
%ADD13R,1.700000X1.700000*%
G04 #@! TD*
G04 #@! TA.AperFunction,ComponentPad*
%ADD14C,1.600000*%
G04 #@! TD*
G04 #@! TA.AperFunction,ConnectorPad*
%ADD15R,1.780000X7.620000*%
G04 #@! TD*
G04 #@! TA.AperFunction,ComponentPad*
%ADD16O,2.000000X1.905000*%
G04 #@! TD*
G04 #@! TA.AperFunction,ComponentPad*
%ADD17R,2.000000X1.905000*%
G04 #@! TD*
G04 #@! TA.AperFunction,ComponentPad*
%ADD18O,4.318000X4.318000*%
G04 #@! TD*
G04 #@! TA.AperFunction,ComponentPad*
%ADD19C,1.524000*%
G04 #@! TD*
G04 #@! TA.AperFunction,ComponentPad*
%ADD20R,1.524000X1.524000*%
G04 #@! TD*
G04 #@! TA.AperFunction,ComponentPad*
%ADD21C,3.500000*%
G04 #@! TD*
G04 #@! TA.AperFunction,ComponentPad*
%ADD22C,1.500000*%
G04 #@! TD*
G04 #@! TA.AperFunction,ComponentPad*
%ADD23C,1.800000*%
G04 #@! TD*
G04 #@! TA.AperFunction,ComponentPad*
%ADD24R,1.800000X1.800000*%
G04 #@! TD*
G04 #@! TA.AperFunction,ViaPad*
%ADD25C,0.800000*%
G04 #@! TD*
G04 #@! TA.AperFunction,Conductor*
%ADD26C,0.330200*%
G04 #@! TD*
G04 #@! TA.AperFunction,Conductor*
%ADD27C,0.250000*%
G04 #@! TD*
G04 APERTURE END LIST*
D10*
G04 #@! TO.P,U3,16*
G04 #@! TO.N,/5+*
X149860000Y-109220000D03*
G04 #@! TO.P,U3,8*
G04 #@! TO.N,/GND*
X142240000Y-127000000D03*
G04 #@! TO.P,U3,15*
G04 #@! TO.N,N/C*
X149860000Y-111760000D03*
G04 #@! TO.P,U3,7*
G04 #@! TO.N,/E3*
X142240000Y-124460000D03*
G04 #@! TO.P,U3,14*
G04 #@! TO.N,N/C*
X149860000Y-114300000D03*
G04 #@! TO.P,U3,6*
G04 #@! TO.N,/E2*
X142240000Y-121920000D03*
G04 #@! TO.P,U3,13*
G04 #@! TO.N,N/C*
X149860000Y-116840000D03*
G04 #@! TO.P,U3,5*
G04 #@! TO.N,/E1*
X142240000Y-119380000D03*
G04 #@! TO.P,U3,12*
G04 #@! TO.N,N/C*
X149860000Y-119380000D03*
G04 #@! TO.P,U3,4*
G04 #@! TO.N,/E0*
X142240000Y-116840000D03*
G04 #@! TO.P,U3,11*
G04 #@! TO.N,N/C*
X149860000Y-121920000D03*
G04 #@! TO.P,U3,3*
G04 #@! TO.N,/A1*
X142240000Y-114300000D03*
G04 #@! TO.P,U3,10*
G04 #@! TO.N,N/C*
X149860000Y-124460000D03*
G04 #@! TO.P,U3,2*
G04 #@! TO.N,/A0*
X142240000Y-111760000D03*
G04 #@! TO.P,U3,9*
G04 #@! TO.N,N/C*
X149860000Y-127000000D03*
D11*
G04 #@! TO.P,U3,1*
G04 #@! TO.N,/IO_00EX*
X142240000Y-109220000D03*
G04 #@! TD*
D12*
G04 #@! TO.P,J3,8*
G04 #@! TO.N,/CH376CS*
X162306000Y-102616000D03*
G04 #@! TO.P,J3,7*
G04 #@! TO.N,/E3*
X162306000Y-105156000D03*
G04 #@! TO.P,J3,6*
G04 #@! TO.N,/CH376CS*
X159766000Y-102616000D03*
G04 #@! TO.P,J3,5*
G04 #@! TO.N,/E2*
X159766000Y-105156000D03*
G04 #@! TO.P,J3,4*
G04 #@! TO.N,/CH376CS*
X157226000Y-102616000D03*
G04 #@! TO.P,J3,3*
G04 #@! TO.N,/E1*
X157226000Y-105156000D03*
G04 #@! TO.P,J3,2*
G04 #@! TO.N,/CH376CS*
X154686000Y-102616000D03*
D13*
G04 #@! TO.P,J3,1*
G04 #@! TO.N,/E0*
X154686000Y-105156000D03*
G04 #@! TD*
D14*
G04 #@! TO.P,C3,2*
G04 #@! TO.N,/5+*
X149860000Y-105918000D03*
G04 #@! TO.P,C3,1*
G04 #@! TO.N,/GND*
X144860000Y-105918000D03*
G04 #@! TD*
D10*
G04 #@! TO.P,U15,16*
G04 #@! TO.N,/5+*
X119380000Y-109220000D03*
G04 #@! TO.P,U15,8*
G04 #@! TO.N,/GND*
X111760000Y-127000000D03*
G04 #@! TO.P,U15,15*
G04 #@! TO.N,Net-(U15-Pad15)*
X119380000Y-111760000D03*
G04 #@! TO.P,U15,7*
G04 #@! TO.N,/IO_00EX*
X111760000Y-124460000D03*
G04 #@! TO.P,U15,14*
G04 #@! TO.N,Net-(U15-Pad14)*
X119380000Y-114300000D03*
G04 #@! TO.P,U15,6*
G04 #@! TO.N,/5+*
X111760000Y-121920000D03*
G04 #@! TO.P,U15,13*
G04 #@! TO.N,Net-(U15-Pad13)*
X119380000Y-116840000D03*
G04 #@! TO.P,U15,5*
G04 #@! TO.N,/IO_00XX*
X111760000Y-119380000D03*
G04 #@! TO.P,U15,12*
G04 #@! TO.N,Net-(U15-Pad12)*
X119380000Y-119380000D03*
G04 #@! TO.P,U15,4*
G04 #@! TO.N,/A4*
X111760000Y-116840000D03*
G04 #@! TO.P,U15,11*
G04 #@! TO.N,Net-(U15-Pad11)*
X119380000Y-121920000D03*
G04 #@! TO.P,U15,3*
G04 #@! TO.N,/A7*
X111760000Y-114300000D03*
G04 #@! TO.P,U15,10*
G04 #@! TO.N,Net-(U15-Pad10)*
X119380000Y-124460000D03*
G04 #@! TO.P,U15,2*
G04 #@! TO.N,/A6*
X111760000Y-111760000D03*
G04 #@! TO.P,U15,9*
G04 #@! TO.N,Net-(U15-Pad9)*
X119380000Y-127000000D03*
D11*
G04 #@! TO.P,U15,1*
G04 #@! TO.N,/A5*
X111760000Y-109220000D03*
G04 #@! TD*
D10*
G04 #@! TO.P,U14,16*
G04 #@! TO.N,/5+*
X129540000Y-109220000D03*
G04 #@! TO.P,U14,8*
G04 #@! TO.N,/GND*
X121920000Y-127000000D03*
G04 #@! TO.P,U14,15*
G04 #@! TO.N,/IO_00XX*
X129540000Y-111760000D03*
G04 #@! TO.P,U14,7*
G04 #@! TO.N,Net-(U14-Pad7)*
X121920000Y-124460000D03*
G04 #@! TO.P,U14,14*
G04 #@! TO.N,Net-(U14-Pad14)*
X129540000Y-114300000D03*
G04 #@! TO.P,U14,6*
G04 #@! TO.N,/5+*
X121920000Y-121920000D03*
G04 #@! TO.P,U14,13*
G04 #@! TO.N,/IO_02XX*
X129540000Y-116840000D03*
G04 #@! TO.P,U14,5*
G04 #@! TO.N,/IO_0XXX*
X121920000Y-119380000D03*
G04 #@! TO.P,U14,12*
G04 #@! TO.N,/IO_03XX*
X129540000Y-119380000D03*
G04 #@! TO.P,U14,4*
G04 #@! TO.N,/A11*
X121920000Y-116840000D03*
G04 #@! TO.P,U14,11*
G04 #@! TO.N,/IO_04XX*
X129540000Y-121920000D03*
G04 #@! TO.P,U14,3*
G04 #@! TO.N,/A10*
X121920000Y-114300000D03*
G04 #@! TO.P,U14,10*
G04 #@! TO.N,Net-(U14-Pad10)*
X129540000Y-124460000D03*
G04 #@! TO.P,U14,2*
G04 #@! TO.N,/A9*
X121920000Y-111760000D03*
G04 #@! TO.P,U14,9*
G04 #@! TO.N,Net-(U14-Pad9)*
X129540000Y-127000000D03*
D11*
G04 #@! TO.P,U14,1*
G04 #@! TO.N,/A8*
X121920000Y-109220000D03*
G04 #@! TD*
D10*
G04 #@! TO.P,U13,16*
G04 #@! TO.N,/5+*
X139700000Y-109220000D03*
G04 #@! TO.P,U13,8*
G04 #@! TO.N,/GND*
X132080000Y-127000000D03*
G04 #@! TO.P,U13,15*
G04 #@! TO.N,/IO_0XXX*
X139700000Y-111760000D03*
G04 #@! TO.P,U13,7*
G04 #@! TO.N,Net-(U13-Pad7)*
X132080000Y-124460000D03*
G04 #@! TO.P,U13,14*
G04 #@! TO.N,Net-(U13-Pad14)*
X139700000Y-114300000D03*
G04 #@! TO.P,U13,6*
G04 #@! TO.N,/5+*
X132080000Y-121920000D03*
G04 #@! TO.P,U13,13*
G04 #@! TO.N,Net-(U13-Pad13)*
X139700000Y-116840000D03*
G04 #@! TO.P,U13,5*
G04 #@! TO.N,/GND*
X132080000Y-119380000D03*
G04 #@! TO.P,U13,12*
G04 #@! TO.N,Net-(U13-Pad12)*
X139700000Y-119380000D03*
G04 #@! TO.P,U13,4*
G04 #@! TO.N,/A15*
X132080000Y-116840000D03*
G04 #@! TO.P,U13,11*
G04 #@! TO.N,Net-(U13-Pad11)*
X139700000Y-121920000D03*
G04 #@! TO.P,U13,3*
G04 #@! TO.N,/A14*
X132080000Y-114300000D03*
G04 #@! TO.P,U13,10*
G04 #@! TO.N,Net-(U13-Pad10)*
X139700000Y-124460000D03*
G04 #@! TO.P,U13,2*
G04 #@! TO.N,/A13*
X132080000Y-111760000D03*
G04 #@! TO.P,U13,9*
G04 #@! TO.N,Net-(U13-Pad9)*
X139700000Y-127000000D03*
D11*
G04 #@! TO.P,U13,1*
G04 #@! TO.N,/A12*
X132080000Y-109220000D03*
G04 #@! TD*
D15*
G04 #@! TO.P,J2,10*
G04 #@! TO.N,/EBD0*
X177800000Y-144780000D03*
G04 #@! TO.P,J2,9*
G04 #@! TO.N,/EBD1*
X180340000Y-144780000D03*
G04 #@! TO.P,J2,8*
G04 #@! TO.N,/EBD2*
X182880000Y-144780000D03*
G04 #@! TO.P,J2,7*
G04 #@! TO.N,/EBD3*
X185420000Y-144780000D03*
G04 #@! TO.P,J2,6*
G04 #@! TO.N,/EBD4*
X187960000Y-144780000D03*
G04 #@! TO.P,J2,5*
G04 #@! TO.N,/EBD5*
X190500000Y-144780000D03*
G04 #@! TO.P,J2,4*
G04 #@! TO.N,/EBD6*
X193040000Y-144780000D03*
G04 #@! TO.P,J2,3*
G04 #@! TO.N,/EBD7*
X195580000Y-144780000D03*
G04 #@! TO.P,J2,2*
G04 #@! TO.N,/EIOR*
X198120000Y-144780000D03*
G04 #@! TO.P,J2,1*
G04 #@! TO.N,/5+*
X200660000Y-144780000D03*
G04 #@! TD*
D14*
G04 #@! TO.P,C16,2*
G04 #@! TO.N,/5+*
X119380000Y-105918000D03*
G04 #@! TO.P,C16,1*
G04 #@! TO.N,/GND*
X114380000Y-105918000D03*
G04 #@! TD*
G04 #@! TO.P,C15,2*
G04 #@! TO.N,/5+*
X139700000Y-105918000D03*
G04 #@! TO.P,C15,1*
G04 #@! TO.N,/GND*
X134700000Y-105918000D03*
G04 #@! TD*
G04 #@! TO.P,C14,2*
G04 #@! TO.N,/5+*
X129540000Y-105918000D03*
G04 #@! TO.P,C14,1*
G04 #@! TO.N,/GND*
X124540000Y-105918000D03*
G04 #@! TD*
D15*
G04 #@! TO.P,J1,25*
G04 #@! TO.N,/D0*
X106680000Y-144780000D03*
G04 #@! TO.P,J1,24*
G04 #@! TO.N,/D1*
X109220000Y-144780000D03*
G04 #@! TO.P,J1,23*
G04 #@! TO.N,/D2*
X111760000Y-144780000D03*
G04 #@! TO.P,J1,22*
G04 #@! TO.N,/D3*
X114300000Y-144780000D03*
G04 #@! TO.P,J1,21*
G04 #@! TO.N,/D4*
X116840000Y-144780000D03*
G04 #@! TO.P,J1,20*
G04 #@! TO.N,/D5*
X119380000Y-144780000D03*
G04 #@! TO.P,J1,19*
G04 #@! TO.N,/D6*
X121920000Y-144780000D03*
G04 #@! TO.P,J1,18*
G04 #@! TO.N,/D7*
X124460000Y-144780000D03*
G04 #@! TO.P,J1,17*
G04 #@! TO.N,Net-(J1-Pad17)*
X127000000Y-144780000D03*
G04 #@! TO.P,J1,16*
G04 #@! TO.N,Net-(J1-Pad16)*
X129540000Y-144780000D03*
G04 #@! TO.P,J1,15*
G04 #@! TO.N,Net-(J1-Pad15)*
X132080000Y-144780000D03*
G04 #@! TO.P,J1,14*
G04 #@! TO.N,Net-(J1-Pad14)*
X134620000Y-144780000D03*
G04 #@! TO.P,J1,13*
G04 #@! TO.N,Net-(J1-Pad13)*
X137160000Y-144780000D03*
G04 #@! TO.P,J1,12*
G04 #@! TO.N,Net-(J1-Pad12)*
X139700000Y-144780000D03*
G04 #@! TO.P,J1,11*
G04 #@! TO.N,Net-(J1-Pad11)*
X142240000Y-144780000D03*
G04 #@! TO.P,J1,10*
G04 #@! TO.N,Net-(J1-Pad10)*
X144780000Y-144780000D03*
G04 #@! TO.P,J1,9*
G04 #@! TO.N,Net-(J1-Pad9)*
X147320000Y-144780000D03*
G04 #@! TO.P,J1,8*
G04 #@! TO.N,/IRQ5*
X149860000Y-144780000D03*
G04 #@! TO.P,J1,7*
G04 #@! TO.N,/IRQ4*
X152400000Y-144780000D03*
G04 #@! TO.P,J1,6*
G04 #@! TO.N,/IRQ3*
X154940000Y-144780000D03*
G04 #@! TO.P,J1,5*
G04 #@! TO.N,/IRQ1*
X157480000Y-144780000D03*
G04 #@! TO.P,J1,4*
G04 #@! TO.N,Net-(J1-Pad4)*
X160020000Y-144780000D03*
G04 #@! TO.P,J1,3*
G04 #@! TO.N,Net-(J1-Pad3)*
X162560000Y-144780000D03*
G04 #@! TO.P,J1,2*
G04 #@! TO.N,/SPK_EN*
X165100000Y-144780000D03*
G04 #@! TO.P,J1,1*
G04 #@! TO.N,/SPK_GO*
X167640000Y-144780000D03*
G04 #@! TD*
D16*
G04 #@! TO.P,U2,3*
G04 #@! TO.N,/5+*
X183197500Y-130873500D03*
G04 #@! TO.P,U2,2*
G04 #@! TO.N,/3v3*
X183197500Y-128333500D03*
D17*
G04 #@! TO.P,U2,1*
G04 #@! TO.N,/GND*
X183197500Y-125793500D03*
D18*
G04 #@! TO.P,U2,*
G04 #@! TO.N,*
X199857500Y-128333500D03*
G04 #@! TD*
D14*
G04 #@! TO.P,C5,2*
G04 #@! TO.N,/GND*
X179133500Y-113013500D03*
G04 #@! TO.P,C5,1*
G04 #@! TO.N,/XO*
X179133500Y-108013500D03*
G04 #@! TD*
G04 #@! TO.P,C4,2*
G04 #@! TO.N,/GND*
X173402000Y-103378000D03*
G04 #@! TO.P,C4,1*
G04 #@! TO.N,/XI*
X168402000Y-103378000D03*
G04 #@! TD*
G04 #@! TO.P,C2,2*
G04 #@! TO.N,/GND*
X179133500Y-118173500D03*
G04 #@! TO.P,C2,1*
G04 #@! TO.N,/PIN_9*
X184133500Y-118173500D03*
G04 #@! TD*
G04 #@! TO.P,C1,2*
G04 #@! TO.N,/RST*
X171005500Y-132397500D03*
G04 #@! TO.P,C1,1*
G04 #@! TO.N,/3v3*
X166005500Y-132397500D03*
G04 #@! TD*
D19*
G04 #@! TO.P,USB1,4*
G04 #@! TO.N,/GND*
X189293500Y-110157500D03*
G04 #@! TO.P,USB1,3*
G04 #@! TO.N,/D+*
X189293500Y-112657500D03*
G04 #@! TO.P,USB1,2*
G04 #@! TO.N,/D-*
X189293500Y-114657500D03*
D20*
G04 #@! TO.P,USB1,1*
G04 #@! TO.N,/5+*
X189293500Y-117157500D03*
D21*
G04 #@! TO.P,USB1,5*
G04 #@! TO.N,N/C*
X192003500Y-120227500D03*
X192003500Y-107087500D03*
G04 #@! TD*
D22*
G04 #@! TO.P,Y2,2*
G04 #@! TO.N,/XO*
X173365500Y-108013500D03*
G04 #@! TO.P,Y2,1*
G04 #@! TO.N,/XI*
X168465500Y-108013500D03*
G04 #@! TD*
D10*
G04 #@! TO.P,R2,2*
G04 #@! TO.N,/LED_PIN*
X171704000Y-100330000D03*
D14*
G04 #@! TO.P,R2,1*
G04 #@! TO.N,/LED*
X181864000Y-100330000D03*
G04 #@! TD*
D23*
G04 #@! TO.P,D1,2*
G04 #@! TO.N,/3v3*
X182880000Y-105156000D03*
D24*
G04 #@! TO.P,D1,1*
G04 #@! TO.N,/LED*
X185420000Y-105156000D03*
G04 #@! TD*
D14*
G04 #@! TO.P,C7,2*
G04 #@! TO.N,/GND*
X179133500Y-120713500D03*
G04 #@! TO.P,C7,1*
G04 #@! TO.N,/3v3*
X184133500Y-120713500D03*
G04 #@! TD*
G04 #@! TO.P,C6,2*
G04 #@! TO.N,/GND*
X179133500Y-124349500D03*
G04 #@! TO.P,C6,1*
G04 #@! TO.N,/5+*
X179133500Y-129349500D03*
G04 #@! TD*
D25*
G04 #@! TO.N,/3v3*
X166116000Y-129794000D03*
G04 #@! TO.N,/LED_PIN*
X168973500Y-120078500D03*
G04 #@! TO.N,/GND*
X179133500Y-109537500D03*
X167957500Y-122491488D03*
X169989512Y-122491488D03*
X199390000Y-139700000D03*
X195834000Y-126492000D03*
X171640500Y-109537500D03*
X166370000Y-109537500D03*
X166370000Y-107188000D03*
X134112000Y-127508000D03*
X134112000Y-119380000D03*
G04 #@! TO.N,/D7*
X124460000Y-138684000D03*
X162306000Y-138684000D03*
X162306000Y-121412000D03*
G04 #@! TO.N,/D6*
X121920000Y-137922000D03*
X161544000Y-137922000D03*
X161544000Y-120142000D03*
G04 #@! TO.N,/D5*
X119380000Y-137160000D03*
X160782000Y-137160000D03*
X160782000Y-118872000D03*
G04 #@! TO.N,/D4*
X116840000Y-136398000D03*
X160020000Y-136398000D03*
X160020000Y-117602000D03*
G04 #@! TO.N,/D3*
X114300000Y-135636000D03*
X159258000Y-135636000D03*
X159258000Y-116332000D03*
G04 #@! TO.N,/D2*
X111760000Y-134874000D03*
X158496000Y-134874000D03*
X158496000Y-115062000D03*
G04 #@! TO.N,/D1*
X109220000Y-134112000D03*
X157734000Y-134112000D03*
X157734000Y-113792000D03*
G04 #@! TO.N,/D0*
X106680000Y-133350000D03*
X156718000Y-133350000D03*
X156718000Y-112522000D03*
G04 #@! TO.N,/D+*
X177609500Y-117411500D03*
X177609500Y-115379500D03*
G04 #@! TO.N,/A0*
X107950000Y-139700000D03*
X107950000Y-131826000D03*
X145288000Y-131826000D03*
X145288000Y-112268000D03*
G04 #@! TO.N,/5+*
X180657500Y-110553500D03*
X180657500Y-130111500D03*
X180657500Y-116395500D03*
X200660000Y-132080000D03*
X147320000Y-110553500D03*
X147320000Y-105410000D03*
X147320000Y-119888000D03*
G04 #@! TO.N,/LED*
X185420000Y-100330000D03*
G04 #@! TO.N,/XO*
X173545500Y-112331500D03*
G04 #@! TO.N,/XI*
X168719500Y-113601500D03*
G04 #@! TO.N,/RST*
X171005500Y-129603500D03*
G04 #@! TO.N,/A1*
X110490000Y-139700000D03*
X110490000Y-132588000D03*
X146050000Y-132588000D03*
X146050000Y-114808000D03*
G04 #@! TO.N,/A2*
X170243500Y-121221494D03*
X113030000Y-139700000D03*
X113030000Y-131064000D03*
X163068000Y-131064000D03*
G04 #@! TO.N,/A4*
X115570000Y-139700000D03*
X115062000Y-117348000D03*
G04 #@! TO.N,/A5*
X118110000Y-139700000D03*
X115824000Y-109728000D03*
G04 #@! TO.N,/A6*
X120650000Y-139700000D03*
X116586000Y-112268000D03*
G04 #@! TO.N,/A7*
X123190000Y-139700000D03*
X117348000Y-114808000D03*
G04 #@! TO.N,/A8*
X125730000Y-139700000D03*
X125222000Y-109728000D03*
G04 #@! TO.N,/A9*
X128270000Y-139700000D03*
X125984000Y-112268000D03*
G04 #@! TO.N,/A10*
X130810000Y-139700000D03*
X126746000Y-114808000D03*
G04 #@! TO.N,/A11*
X133350000Y-139700000D03*
X127508000Y-117348000D03*
G04 #@! TO.N,/A12*
X135890000Y-139700000D03*
X135382000Y-109728000D03*
G04 #@! TO.N,/A13*
X138430000Y-139700000D03*
X136144000Y-112268000D03*
G04 #@! TO.N,/A14*
X140970000Y-139700000D03*
X136906000Y-114808000D03*
G04 #@! TO.N,/A15*
X143510000Y-139700000D03*
X137668000Y-117348000D03*
G04 #@! TO.N,/IORD*
X171259500Y-125031500D03*
X163830000Y-139700000D03*
G04 #@! TO.N,/IOWR*
X166370000Y-139700000D03*
X168402000Y-126492000D03*
G04 #@! TO.N,/IO_0XXX*
X124460000Y-119888000D03*
X124460000Y-113792000D03*
G04 #@! TO.N,/IO_00XX*
X114300000Y-119888000D03*
X114300000Y-113792000D03*
G04 #@! TO.N,/IO_00EX*
X144526000Y-123190000D03*
X144526000Y-109728000D03*
G04 #@! TO.N,/CH376CS*
X155956000Y-127508000D03*
G04 #@! TO.N,/E3*
X162306000Y-111506000D03*
X152908000Y-111506000D03*
X152908000Y-123190000D03*
G04 #@! TO.N,/E2*
X159766000Y-109474000D03*
X153670000Y-109474000D03*
X153670000Y-120650000D03*
G04 #@! TO.N,/E1*
X157226000Y-108712000D03*
X154432000Y-108712000D03*
X154432000Y-118110000D03*
G04 #@! TO.N,/E0*
X155194000Y-115570000D03*
G04 #@! TD*
D26*
G04 #@! TO.N,/3v3*
X184975500Y-121555500D02*
X184133500Y-120713500D01*
X184975500Y-127317500D02*
X184975500Y-121555500D01*
X183959500Y-128333500D02*
X184975500Y-127317500D01*
X183197500Y-128333500D02*
X183959500Y-128333500D01*
X166005500Y-129904500D02*
X166116000Y-129794000D01*
X166005500Y-132397500D02*
X166005500Y-129904500D01*
X185420000Y-119427000D02*
X184133500Y-120713500D01*
X185420000Y-109220000D02*
X185420000Y-119427000D01*
X182880000Y-106680000D02*
X185420000Y-109220000D01*
X182880000Y-105156000D02*
X182880000Y-106680000D01*
D27*
G04 #@! TO.N,/LED_PIN*
X170688000Y-101346000D02*
X171704000Y-100330000D01*
X170688000Y-118364000D02*
X170688000Y-101346000D01*
X168973500Y-120078500D02*
X170688000Y-118364000D01*
D26*
G04 #@! TO.N,/GND*
X179133500Y-118173500D02*
X179133500Y-113013500D01*
X179133500Y-124349500D02*
X179133500Y-120713500D01*
X179133500Y-120713500D02*
X179133500Y-118173500D01*
X179133500Y-113013500D02*
X179133500Y-109537500D01*
X169989512Y-122491488D02*
X167957500Y-122491488D01*
X199390000Y-139700000D02*
X195834000Y-136144000D01*
X195834000Y-136144000D02*
X195834000Y-126492000D01*
X166370000Y-107188000D02*
X166370000Y-109537500D01*
X134112000Y-106506000D02*
X134700000Y-105918000D01*
X134112000Y-127508000D02*
X134112000Y-119380000D01*
X134112000Y-119380000D02*
X134112000Y-106506000D01*
X171640500Y-105139500D02*
X173402000Y-103378000D01*
X171640500Y-109537500D02*
X171640500Y-105139500D01*
D27*
G04 #@! TO.N,/D7*
X124460000Y-144780000D02*
X124460000Y-138684000D01*
X162306000Y-138684000D02*
X162306000Y-121412000D01*
G04 #@! TO.N,/D6*
X121920000Y-144780000D02*
X121920000Y-137922000D01*
X161544000Y-137922000D02*
X161544000Y-120142000D01*
G04 #@! TO.N,/D5*
X119380000Y-144780000D02*
X119380000Y-137160000D01*
X160782000Y-137160000D02*
X160782000Y-118872000D01*
G04 #@! TO.N,/D4*
X116840000Y-144780000D02*
X116840000Y-136398000D01*
X160020000Y-136398000D02*
X160020000Y-117602000D01*
G04 #@! TO.N,/D3*
X114300000Y-144780000D02*
X114300000Y-135636000D01*
X159258000Y-135636000D02*
X159258000Y-116332000D01*
G04 #@! TO.N,/D2*
X111760000Y-144780000D02*
X111760000Y-134874000D01*
X158496000Y-134874000D02*
X158496000Y-115062000D01*
G04 #@! TO.N,/D1*
X109220000Y-144780000D02*
X109220000Y-134112000D01*
X157734000Y-134112000D02*
X157734000Y-113792000D01*
G04 #@! TO.N,/D0*
X106680000Y-144780000D02*
X106680000Y-133350000D01*
X156718000Y-133350000D02*
X156718000Y-112522000D01*
G04 #@! TO.N,/D+*
X177609500Y-115379500D02*
X177609500Y-117411500D01*
G04 #@! TO.N,/A0*
X107950000Y-139700000D02*
X107950000Y-131826000D01*
X145288000Y-131826000D02*
X145288000Y-112268000D01*
D26*
G04 #@! TO.N,/5+*
X180657500Y-110553500D02*
X180657500Y-116395500D01*
X180657500Y-116395500D02*
X180657500Y-130111500D01*
X200660000Y-144780000D02*
X200660000Y-132080000D01*
X149860000Y-105918000D02*
X149860000Y-109220000D01*
X139700000Y-105918000D02*
X139700000Y-109220000D01*
X147320000Y-110553500D02*
X147320000Y-105410000D01*
X119380000Y-105918000D02*
X119380000Y-109220000D01*
X129540000Y-105918000D02*
X129540000Y-109220000D01*
X147320000Y-119888000D02*
X147320000Y-110553500D01*
D27*
G04 #@! TO.N,/LED*
X185420000Y-100330000D02*
X185420000Y-105156000D01*
G04 #@! TO.N,/XO*
X173545500Y-108193500D02*
X173365500Y-108013500D01*
X173545500Y-112331500D02*
X173545500Y-108193500D01*
G04 #@! TO.N,/XI*
X168719500Y-108267500D02*
X168465500Y-108013500D01*
X168719500Y-113601500D02*
X168719500Y-108267500D01*
X168465500Y-103441500D02*
X168402000Y-103378000D01*
X168465500Y-108013500D02*
X168465500Y-103441500D01*
G04 #@! TO.N,/RST*
X171005500Y-132397500D02*
X171005500Y-129603500D01*
G04 #@! TO.N,/A1*
X110490000Y-139700000D02*
X110490000Y-132588000D01*
X146050000Y-132588000D02*
X146050000Y-114808000D01*
G04 #@! TO.N,/A2*
X164528506Y-121221494D02*
X170243500Y-121221494D01*
X113030000Y-139700000D02*
X113030000Y-131064000D01*
X163068000Y-122682000D02*
X164211000Y-121539000D01*
X163068000Y-131064000D02*
X163068000Y-122682000D01*
X164211000Y-121539000D02*
X164528506Y-121221494D01*
X163576000Y-122174000D02*
X164211000Y-121539000D01*
G04 #@! TO.N,/A4*
X115570000Y-139700000D02*
X115570000Y-133350000D01*
X115570000Y-133350000D02*
X115062000Y-132842000D01*
X115062000Y-132842000D02*
X115062000Y-117348000D01*
G04 #@! TO.N,/A5*
X115824000Y-132334000D02*
X115824000Y-109728000D01*
X118110000Y-134620000D02*
X115824000Y-132334000D01*
X118110000Y-139700000D02*
X118110000Y-134620000D01*
G04 #@! TO.N,/A6*
X120650000Y-139700000D02*
X120650000Y-135890000D01*
X120650000Y-135890000D02*
X116586000Y-131826000D01*
X116586000Y-131826000D02*
X116586000Y-112268000D01*
G04 #@! TO.N,/A7*
X123190000Y-137160000D02*
X123190000Y-139700000D01*
X117348000Y-131318000D02*
X123190000Y-137160000D01*
X117348000Y-114808000D02*
X117348000Y-131318000D01*
G04 #@! TO.N,/A8*
X125222000Y-132842000D02*
X125222000Y-109728000D01*
X125730000Y-133350000D02*
X125222000Y-132842000D01*
X125730000Y-139700000D02*
X125730000Y-133350000D01*
G04 #@! TO.N,/A9*
X125984000Y-132334000D02*
X125984000Y-128270000D01*
X128270000Y-134620000D02*
X125984000Y-132334000D01*
X128270000Y-139700000D02*
X128270000Y-134620000D01*
X125984000Y-128270000D02*
X125984000Y-112268000D01*
G04 #@! TO.N,/A10*
X126746000Y-131826000D02*
X126746000Y-128270000D01*
X130810000Y-139700000D02*
X130810000Y-135890000D01*
X130810000Y-135890000D02*
X126746000Y-131826000D01*
X126746000Y-128270000D02*
X126746000Y-114808000D01*
G04 #@! TO.N,/A11*
X133350000Y-137160000D02*
X127508000Y-131318000D01*
X133350000Y-139700000D02*
X133350000Y-137160000D01*
X127508000Y-131318000D02*
X127508000Y-117348000D01*
G04 #@! TO.N,/A12*
X135890000Y-139700000D02*
X135890000Y-133350000D01*
X135890000Y-133350000D02*
X135382000Y-132842000D01*
X135382000Y-132842000D02*
X135382000Y-128270000D01*
X135382000Y-128270000D02*
X135382000Y-109728000D01*
G04 #@! TO.N,/A13*
X138430000Y-134620000D02*
X136144000Y-132334000D01*
X138430000Y-139700000D02*
X138430000Y-134620000D01*
X136144000Y-132334000D02*
X136144000Y-128270000D01*
X136144000Y-128270000D02*
X136144000Y-112268000D01*
G04 #@! TO.N,/A14*
X136906000Y-131826000D02*
X136906000Y-128270000D01*
X140970000Y-139700000D02*
X140970000Y-135890000D01*
X140970000Y-135890000D02*
X136906000Y-131826000D01*
X136906000Y-128270000D02*
X136906000Y-114808000D01*
G04 #@! TO.N,/A15*
X143510000Y-139700000D02*
X143510000Y-137160000D01*
X143510000Y-137160000D02*
X137668000Y-131318000D01*
X137668000Y-131318000D02*
X137668000Y-117348000D01*
G04 #@! TO.N,/IORD*
X170751500Y-124523500D02*
X171259500Y-125031500D01*
X163830000Y-124587000D02*
X163893500Y-124523500D01*
X163830000Y-139700000D02*
X163830000Y-124587000D01*
X163893500Y-124523500D02*
X170751500Y-124523500D01*
G04 #@! TO.N,/IOWR*
X166370000Y-139700000D02*
X168402000Y-137668000D01*
X168402000Y-137668000D02*
X168402000Y-126492000D01*
G04 #@! TO.N,/IO_0XXX*
X124460000Y-119888000D02*
X124460000Y-113792000D01*
X124460000Y-113792000D02*
X124460000Y-113792000D01*
G04 #@! TO.N,/IO_00XX*
X114300000Y-119888000D02*
X114300000Y-113792000D01*
G04 #@! TO.N,/IO_00EX*
X144526000Y-123190000D02*
X144526000Y-109728000D01*
G04 #@! TO.N,/CH376CS*
X155956000Y-103886000D02*
X157226000Y-102616000D01*
X155956000Y-127508000D02*
X155956000Y-103886000D01*
G04 #@! TO.N,/E3*
X162306000Y-105156000D02*
X162306000Y-111506000D01*
X152908000Y-111506000D02*
X152908000Y-123190000D01*
G04 #@! TO.N,/E2*
X159766000Y-105156000D02*
X159766000Y-109474000D01*
X153670000Y-109474000D02*
X153670000Y-120650000D01*
G04 #@! TO.N,/E1*
X157226000Y-105156000D02*
X157226000Y-108712000D01*
X154432000Y-108712000D02*
X154432000Y-118110000D01*
G04 #@! TO.N,/E0*
X155194000Y-105664000D02*
X155194000Y-115570000D01*
X154686000Y-105156000D02*
X155194000Y-105664000D01*
G04 #@! TD*
M02*
