G04 #@! TF.GenerationSoftware,KiCad,Pcbnew,(5.1.8)-1*
G04 #@! TF.CreationDate,2023-04-05T17:01:07-06:00*
G04 #@! TF.ProjectId,CH376S Module,43483337-3653-4204-9d6f-64756c652e6b,rev?*
G04 #@! TF.SameCoordinates,Original*
G04 #@! TF.FileFunction,Soldermask,Bot*
G04 #@! TF.FilePolarity,Negative*
%FSLAX46Y46*%
G04 Gerber Fmt 4.6, Leading zero omitted, Abs format (unit mm)*
G04 Created by KiCad (PCBNEW (5.1.8)-1) date 2023-04-05 17:01:07*
%MOMM*%
%LPD*%
G01*
G04 APERTURE LIST*
%ADD10O,1.600000X1.600000*%
%ADD11R,1.600000X1.600000*%
%ADD12O,1.700000X1.700000*%
%ADD13R,1.700000X1.700000*%
%ADD14C,1.600000*%
%ADD15R,1.780000X7.620000*%
%ADD16O,2.000000X1.905000*%
%ADD17R,2.000000X1.905000*%
%ADD18O,4.318000X4.318000*%
%ADD19C,1.524000*%
%ADD20R,1.524000X1.524000*%
%ADD21C,3.500000*%
%ADD22C,1.500000*%
%ADD23C,1.800000*%
%ADD24R,1.800000X1.800000*%
G04 APERTURE END LIST*
D10*
G04 #@! TO.C,U3*
X149860000Y-109220000D03*
X142240000Y-127000000D03*
X149860000Y-111760000D03*
X142240000Y-124460000D03*
X149860000Y-114300000D03*
X142240000Y-121920000D03*
X149860000Y-116840000D03*
X142240000Y-119380000D03*
X149860000Y-119380000D03*
X142240000Y-116840000D03*
X149860000Y-121920000D03*
X142240000Y-114300000D03*
X149860000Y-124460000D03*
X142240000Y-111760000D03*
X149860000Y-127000000D03*
D11*
X142240000Y-109220000D03*
G04 #@! TD*
D12*
G04 #@! TO.C,J3*
X162306000Y-102616000D03*
X162306000Y-105156000D03*
X159766000Y-102616000D03*
X159766000Y-105156000D03*
X157226000Y-102616000D03*
X157226000Y-105156000D03*
X154686000Y-102616000D03*
D13*
X154686000Y-105156000D03*
G04 #@! TD*
D14*
G04 #@! TO.C,C3*
X149860000Y-105918000D03*
X144860000Y-105918000D03*
G04 #@! TD*
D10*
G04 #@! TO.C,U15*
X119380000Y-109220000D03*
X111760000Y-127000000D03*
X119380000Y-111760000D03*
X111760000Y-124460000D03*
X119380000Y-114300000D03*
X111760000Y-121920000D03*
X119380000Y-116840000D03*
X111760000Y-119380000D03*
X119380000Y-119380000D03*
X111760000Y-116840000D03*
X119380000Y-121920000D03*
X111760000Y-114300000D03*
X119380000Y-124460000D03*
X111760000Y-111760000D03*
X119380000Y-127000000D03*
D11*
X111760000Y-109220000D03*
G04 #@! TD*
D10*
G04 #@! TO.C,U14*
X129540000Y-109220000D03*
X121920000Y-127000000D03*
X129540000Y-111760000D03*
X121920000Y-124460000D03*
X129540000Y-114300000D03*
X121920000Y-121920000D03*
X129540000Y-116840000D03*
X121920000Y-119380000D03*
X129540000Y-119380000D03*
X121920000Y-116840000D03*
X129540000Y-121920000D03*
X121920000Y-114300000D03*
X129540000Y-124460000D03*
X121920000Y-111760000D03*
X129540000Y-127000000D03*
D11*
X121920000Y-109220000D03*
G04 #@! TD*
D10*
G04 #@! TO.C,U13*
X139700000Y-109220000D03*
X132080000Y-127000000D03*
X139700000Y-111760000D03*
X132080000Y-124460000D03*
X139700000Y-114300000D03*
X132080000Y-121920000D03*
X139700000Y-116840000D03*
X132080000Y-119380000D03*
X139700000Y-119380000D03*
X132080000Y-116840000D03*
X139700000Y-121920000D03*
X132080000Y-114300000D03*
X139700000Y-124460000D03*
X132080000Y-111760000D03*
X139700000Y-127000000D03*
D11*
X132080000Y-109220000D03*
G04 #@! TD*
D15*
G04 #@! TO.C,J2*
X177800000Y-144780000D03*
X180340000Y-144780000D03*
X182880000Y-144780000D03*
X185420000Y-144780000D03*
X187960000Y-144780000D03*
X190500000Y-144780000D03*
X193040000Y-144780000D03*
X195580000Y-144780000D03*
X198120000Y-144780000D03*
X200660000Y-144780000D03*
G04 #@! TD*
D14*
G04 #@! TO.C,C16*
X119380000Y-105918000D03*
X114380000Y-105918000D03*
G04 #@! TD*
G04 #@! TO.C,C15*
X139700000Y-105918000D03*
X134700000Y-105918000D03*
G04 #@! TD*
G04 #@! TO.C,C14*
X129540000Y-105918000D03*
X124540000Y-105918000D03*
G04 #@! TD*
D15*
G04 #@! TO.C,J1*
X106680000Y-144780000D03*
X109220000Y-144780000D03*
X111760000Y-144780000D03*
X114300000Y-144780000D03*
X116840000Y-144780000D03*
X119380000Y-144780000D03*
X121920000Y-144780000D03*
X124460000Y-144780000D03*
X127000000Y-144780000D03*
X129540000Y-144780000D03*
X132080000Y-144780000D03*
X134620000Y-144780000D03*
X137160000Y-144780000D03*
X139700000Y-144780000D03*
X142240000Y-144780000D03*
X144780000Y-144780000D03*
X147320000Y-144780000D03*
X149860000Y-144780000D03*
X152400000Y-144780000D03*
X154940000Y-144780000D03*
X157480000Y-144780000D03*
X160020000Y-144780000D03*
X162560000Y-144780000D03*
X165100000Y-144780000D03*
X167640000Y-144780000D03*
G04 #@! TD*
D16*
G04 #@! TO.C,U2*
X183197500Y-130873500D03*
X183197500Y-128333500D03*
D17*
X183197500Y-125793500D03*
D18*
X199857500Y-128333500D03*
G04 #@! TD*
D14*
G04 #@! TO.C,C5*
X179133500Y-113013500D03*
X179133500Y-108013500D03*
G04 #@! TD*
G04 #@! TO.C,C4*
X173402000Y-103378000D03*
X168402000Y-103378000D03*
G04 #@! TD*
G04 #@! TO.C,C2*
X179133500Y-118173500D03*
X184133500Y-118173500D03*
G04 #@! TD*
G04 #@! TO.C,C1*
X171005500Y-132397500D03*
X166005500Y-132397500D03*
G04 #@! TD*
D19*
G04 #@! TO.C,USB1*
X189293500Y-110157500D03*
X189293500Y-112657500D03*
X189293500Y-114657500D03*
D20*
X189293500Y-117157500D03*
D21*
X192003500Y-120227500D03*
X192003500Y-107087500D03*
G04 #@! TD*
D22*
G04 #@! TO.C,Y2*
X173365500Y-108013500D03*
X168465500Y-108013500D03*
G04 #@! TD*
D10*
G04 #@! TO.C,R2*
X171704000Y-100330000D03*
D14*
X181864000Y-100330000D03*
G04 #@! TD*
D23*
G04 #@! TO.C,D1*
X182880000Y-105156000D03*
D24*
X185420000Y-105156000D03*
G04 #@! TD*
D14*
G04 #@! TO.C,C7*
X179133500Y-120713500D03*
X184133500Y-120713500D03*
G04 #@! TD*
G04 #@! TO.C,C6*
X179133500Y-124349500D03*
X179133500Y-129349500D03*
G04 #@! TD*
M02*
