G04 #@! TF.GenerationSoftware,KiCad,Pcbnew,(5.1.8)-1*
G04 #@! TF.CreationDate,2023-05-08T00:19:55-06:00*
G04 #@! TF.ProjectId,CH376S ISA,43483337-3653-4204-9953-412e6b696361,rev?*
G04 #@! TF.SameCoordinates,Original*
G04 #@! TF.FileFunction,Copper,L2,Bot*
G04 #@! TF.FilePolarity,Positive*
%FSLAX46Y46*%
G04 Gerber Fmt 4.6, Leading zero omitted, Abs format (unit mm)*
G04 Created by KiCad (PCBNEW (5.1.8)-1) date 2023-05-08 00:19:55*
%MOMM*%
%LPD*%
G01*
G04 APERTURE LIST*
G04 #@! TA.AperFunction,ComponentPad*
%ADD10O,1.600000X1.600000*%
G04 #@! TD*
G04 #@! TA.AperFunction,ComponentPad*
%ADD11R,1.600000X1.600000*%
G04 #@! TD*
G04 #@! TA.AperFunction,ComponentPad*
%ADD12O,1.700000X1.700000*%
G04 #@! TD*
G04 #@! TA.AperFunction,ComponentPad*
%ADD13R,1.700000X1.700000*%
G04 #@! TD*
G04 #@! TA.AperFunction,ComponentPad*
%ADD14C,1.600000*%
G04 #@! TD*
G04 #@! TA.AperFunction,ComponentPad*
%ADD15C,3.556000*%
G04 #@! TD*
G04 #@! TA.AperFunction,ConnectorPad*
%ADD16R,1.780000X7.620000*%
G04 #@! TD*
G04 #@! TA.AperFunction,ComponentPad*
%ADD17O,2.000000X1.905000*%
G04 #@! TD*
G04 #@! TA.AperFunction,ComponentPad*
%ADD18R,2.000000X1.905000*%
G04 #@! TD*
G04 #@! TA.AperFunction,ComponentPad*
%ADD19O,4.318000X4.318000*%
G04 #@! TD*
G04 #@! TA.AperFunction,ComponentPad*
%ADD20C,1.524000*%
G04 #@! TD*
G04 #@! TA.AperFunction,ComponentPad*
%ADD21R,1.524000X1.524000*%
G04 #@! TD*
G04 #@! TA.AperFunction,ComponentPad*
%ADD22C,3.500000*%
G04 #@! TD*
G04 #@! TA.AperFunction,ComponentPad*
%ADD23C,1.500000*%
G04 #@! TD*
G04 #@! TA.AperFunction,ComponentPad*
%ADD24C,1.800000*%
G04 #@! TD*
G04 #@! TA.AperFunction,ComponentPad*
%ADD25R,1.800000X1.800000*%
G04 #@! TD*
G04 #@! TA.AperFunction,ViaPad*
%ADD26C,0.800000*%
G04 #@! TD*
G04 #@! TA.AperFunction,Conductor*
%ADD27C,0.330200*%
G04 #@! TD*
G04 #@! TA.AperFunction,Conductor*
%ADD28C,0.250000*%
G04 #@! TD*
G04 APERTURE END LIST*
D10*
G04 #@! TO.P,U15,16*
G04 #@! TO.N,/5+*
X119380000Y-119380000D03*
G04 #@! TO.P,U15,8*
G04 #@! TO.N,/GND*
X111760000Y-137160000D03*
G04 #@! TO.P,U15,15*
G04 #@! TO.N,Net-(U15-Pad15)*
X119380000Y-121920000D03*
G04 #@! TO.P,U15,7*
G04 #@! TO.N,/CH376CS*
X111760000Y-134620000D03*
G04 #@! TO.P,U15,14*
G04 #@! TO.N,Net-(U15-Pad14)*
X119380000Y-124460000D03*
G04 #@! TO.P,U15,6*
G04 #@! TO.N,/5+*
X111760000Y-132080000D03*
G04 #@! TO.P,U15,13*
G04 #@! TO.N,Net-(U15-Pad13)*
X119380000Y-127000000D03*
G04 #@! TO.P,U15,5*
G04 #@! TO.N,/IO_00XX*
X111760000Y-129540000D03*
G04 #@! TO.P,U15,12*
G04 #@! TO.N,Net-(U15-Pad12)*
X119380000Y-129540000D03*
G04 #@! TO.P,U15,4*
G04 #@! TO.N,/A4*
X111760000Y-127000000D03*
G04 #@! TO.P,U15,11*
G04 #@! TO.N,Net-(U15-Pad11)*
X119380000Y-132080000D03*
G04 #@! TO.P,U15,3*
G04 #@! TO.N,/A7*
X111760000Y-124460000D03*
G04 #@! TO.P,U15,10*
G04 #@! TO.N,Net-(U15-Pad10)*
X119380000Y-134620000D03*
G04 #@! TO.P,U15,2*
G04 #@! TO.N,/A6*
X111760000Y-121920000D03*
G04 #@! TO.P,U15,9*
G04 #@! TO.N,Net-(U15-Pad9)*
X119380000Y-137160000D03*
D11*
G04 #@! TO.P,U15,1*
G04 #@! TO.N,/A5*
X111760000Y-119380000D03*
G04 #@! TD*
D10*
G04 #@! TO.P,U14,16*
G04 #@! TO.N,/5+*
X129540000Y-119380000D03*
G04 #@! TO.P,U14,8*
G04 #@! TO.N,/GND*
X121920000Y-137160000D03*
G04 #@! TO.P,U14,15*
G04 #@! TO.N,/IO_00XX*
X129540000Y-121920000D03*
G04 #@! TO.P,U14,7*
G04 #@! TO.N,Net-(U14-Pad7)*
X121920000Y-134620000D03*
G04 #@! TO.P,U14,14*
G04 #@! TO.N,Net-(U14-Pad14)*
X129540000Y-124460000D03*
G04 #@! TO.P,U14,6*
G04 #@! TO.N,/5+*
X121920000Y-132080000D03*
G04 #@! TO.P,U14,13*
G04 #@! TO.N,/IO_02XX*
X129540000Y-127000000D03*
G04 #@! TO.P,U14,5*
G04 #@! TO.N,/IO_0XXX*
X121920000Y-129540000D03*
G04 #@! TO.P,U14,12*
G04 #@! TO.N,/IO_03XX*
X129540000Y-129540000D03*
G04 #@! TO.P,U14,4*
G04 #@! TO.N,/A11*
X121920000Y-127000000D03*
G04 #@! TO.P,U14,11*
G04 #@! TO.N,/IO_04XX*
X129540000Y-132080000D03*
G04 #@! TO.P,U14,3*
G04 #@! TO.N,/A10*
X121920000Y-124460000D03*
G04 #@! TO.P,U14,10*
G04 #@! TO.N,Net-(U14-Pad10)*
X129540000Y-134620000D03*
G04 #@! TO.P,U14,2*
G04 #@! TO.N,/A9*
X121920000Y-121920000D03*
G04 #@! TO.P,U14,9*
G04 #@! TO.N,Net-(U14-Pad9)*
X129540000Y-137160000D03*
D11*
G04 #@! TO.P,U14,1*
G04 #@! TO.N,/A8*
X121920000Y-119380000D03*
G04 #@! TD*
D10*
G04 #@! TO.P,U13,16*
G04 #@! TO.N,/5+*
X139700000Y-119380000D03*
G04 #@! TO.P,U13,8*
G04 #@! TO.N,/GND*
X132080000Y-137160000D03*
G04 #@! TO.P,U13,15*
G04 #@! TO.N,/IO_0XXX*
X139700000Y-121920000D03*
G04 #@! TO.P,U13,7*
G04 #@! TO.N,Net-(U13-Pad7)*
X132080000Y-134620000D03*
G04 #@! TO.P,U13,14*
G04 #@! TO.N,Net-(U13-Pad14)*
X139700000Y-124460000D03*
G04 #@! TO.P,U13,6*
G04 #@! TO.N,/REFQ*
X132080000Y-132080000D03*
G04 #@! TO.P,U13,13*
G04 #@! TO.N,Net-(U13-Pad13)*
X139700000Y-127000000D03*
G04 #@! TO.P,U13,5*
G04 #@! TO.N,/AEN*
X132080000Y-129540000D03*
G04 #@! TO.P,U13,12*
G04 #@! TO.N,Net-(U13-Pad12)*
X139700000Y-129540000D03*
G04 #@! TO.P,U13,4*
G04 #@! TO.N,/A15*
X132080000Y-127000000D03*
G04 #@! TO.P,U13,11*
G04 #@! TO.N,Net-(U13-Pad11)*
X139700000Y-132080000D03*
G04 #@! TO.P,U13,3*
G04 #@! TO.N,/A14*
X132080000Y-124460000D03*
G04 #@! TO.P,U13,10*
G04 #@! TO.N,Net-(U13-Pad10)*
X139700000Y-134620000D03*
G04 #@! TO.P,U13,2*
G04 #@! TO.N,/A13*
X132080000Y-121920000D03*
G04 #@! TO.P,U13,9*
G04 #@! TO.N,Net-(U13-Pad9)*
X139700000Y-137160000D03*
D11*
G04 #@! TO.P,U13,1*
G04 #@! TO.N,/A12*
X132080000Y-119380000D03*
G04 #@! TD*
D10*
G04 #@! TO.P,U5,16*
G04 #@! TO.N,/5+*
X185420000Y-88900000D03*
G04 #@! TO.P,U5,8*
G04 #@! TO.N,/GND*
X167640000Y-81280000D03*
G04 #@! TO.P,U5,15*
G04 #@! TO.N,/ROM_CS_0XE0*
X182880000Y-88900000D03*
G04 #@! TO.P,U5,7*
G04 #@! TO.N,/ROM_CS_0XEE*
X170180000Y-81280000D03*
G04 #@! TO.P,U5,14*
G04 #@! TO.N,/ROM_CS_0XE2*
X180340000Y-88900000D03*
G04 #@! TO.P,U5,6*
G04 #@! TO.N,/5+*
X172720000Y-81280000D03*
G04 #@! TO.P,U5,13*
G04 #@! TO.N,/ROM_CS_0XE4*
X177800000Y-88900000D03*
G04 #@! TO.P,U5,5*
G04 #@! TO.N,/GND*
X175260000Y-81280000D03*
G04 #@! TO.P,U5,12*
G04 #@! TO.N,/ROM_CS_0XE6*
X175260000Y-88900000D03*
G04 #@! TO.P,U5,4*
G04 #@! TO.N,/ROM_CS_0XEX*
X177800000Y-81280000D03*
G04 #@! TO.P,U5,11*
G04 #@! TO.N,/ROM_CS_0XE8*
X172720000Y-88900000D03*
G04 #@! TO.P,U5,3*
G04 #@! TO.N,/A15*
X180340000Y-81280000D03*
G04 #@! TO.P,U5,10*
G04 #@! TO.N,/ROM_CS_0XEA*
X170180000Y-88900000D03*
G04 #@! TO.P,U5,2*
G04 #@! TO.N,/A14*
X182880000Y-81280000D03*
G04 #@! TO.P,U5,9*
G04 #@! TO.N,/ROM_CS_0XEC*
X167640000Y-88900000D03*
D11*
G04 #@! TO.P,U5,1*
G04 #@! TO.N,/A13*
X185420000Y-81280000D03*
G04 #@! TD*
D10*
G04 #@! TO.P,U4,16*
G04 #@! TO.N,/5+*
X149860000Y-119380000D03*
G04 #@! TO.P,U4,8*
G04 #@! TO.N,/GND*
X142240000Y-137160000D03*
G04 #@! TO.P,U4,15*
G04 #@! TO.N,Net-(U4-Pad15)*
X149860000Y-121920000D03*
G04 #@! TO.P,U4,7*
G04 #@! TO.N,/ROM_CS_0XEX*
X142240000Y-134620000D03*
G04 #@! TO.P,U4,14*
G04 #@! TO.N,Net-(U4-Pad14)*
X149860000Y-124460000D03*
G04 #@! TO.P,U4,6*
G04 #@! TO.N,/REFQ*
X142240000Y-132080000D03*
G04 #@! TO.P,U4,13*
G04 #@! TO.N,Net-(U4-Pad13)*
X149860000Y-127000000D03*
G04 #@! TO.P,U4,5*
G04 #@! TO.N,/AEN*
X142240000Y-129540000D03*
G04 #@! TO.P,U4,12*
G04 #@! TO.N,Net-(U4-Pad12)*
X149860000Y-129540000D03*
G04 #@! TO.P,U4,4*
G04 #@! TO.N,/A16*
X142240000Y-127000000D03*
G04 #@! TO.P,U4,11*
G04 #@! TO.N,Net-(U4-Pad11)*
X149860000Y-132080000D03*
G04 #@! TO.P,U4,3*
G04 #@! TO.N,/A19*
X142240000Y-124460000D03*
G04 #@! TO.P,U4,10*
G04 #@! TO.N,Net-(U4-Pad10)*
X149860000Y-134620000D03*
G04 #@! TO.P,U4,2*
G04 #@! TO.N,/A18*
X142240000Y-121920000D03*
G04 #@! TO.P,U4,9*
G04 #@! TO.N,Net-(U4-Pad9)*
X149860000Y-137160000D03*
D11*
G04 #@! TO.P,U4,1*
G04 #@! TO.N,/A17*
X142240000Y-119380000D03*
G04 #@! TD*
D10*
G04 #@! TO.P,U3,28*
G04 #@! TO.N,/5+*
X137160000Y-99060000D03*
G04 #@! TO.P,U3,14*
G04 #@! TO.N,/GND*
X104140000Y-83820000D03*
G04 #@! TO.P,U3,27*
G04 #@! TO.N,/MWR*
X134620000Y-99060000D03*
G04 #@! TO.P,U3,13*
G04 #@! TO.N,/D2*
X106680000Y-83820000D03*
G04 #@! TO.P,U3,26*
G04 #@! TO.N,/GND*
X132080000Y-99060000D03*
G04 #@! TO.P,U3,12*
G04 #@! TO.N,/D1*
X109220000Y-83820000D03*
G04 #@! TO.P,U3,25*
G04 #@! TO.N,/A8*
X129540000Y-99060000D03*
G04 #@! TO.P,U3,11*
G04 #@! TO.N,/D0*
X111760000Y-83820000D03*
G04 #@! TO.P,U3,24*
G04 #@! TO.N,/A9*
X127000000Y-99060000D03*
G04 #@! TO.P,U3,10*
G04 #@! TO.N,/A0*
X114300000Y-83820000D03*
G04 #@! TO.P,U3,23*
G04 #@! TO.N,/A11*
X124460000Y-99060000D03*
G04 #@! TO.P,U3,9*
G04 #@! TO.N,/A1*
X116840000Y-83820000D03*
G04 #@! TO.P,U3,22*
G04 #@! TO.N,/MRD*
X121920000Y-99060000D03*
G04 #@! TO.P,U3,8*
G04 #@! TO.N,/A2*
X119380000Y-83820000D03*
G04 #@! TO.P,U3,21*
G04 #@! TO.N,/A10*
X119380000Y-99060000D03*
G04 #@! TO.P,U3,7*
G04 #@! TO.N,/A3*
X121920000Y-83820000D03*
G04 #@! TO.P,U3,20*
G04 #@! TO.N,/ROM_CS*
X116840000Y-99060000D03*
G04 #@! TO.P,U3,6*
G04 #@! TO.N,/A4*
X124460000Y-83820000D03*
G04 #@! TO.P,U3,19*
G04 #@! TO.N,/D7*
X114300000Y-99060000D03*
G04 #@! TO.P,U3,5*
G04 #@! TO.N,/A5*
X127000000Y-83820000D03*
G04 #@! TO.P,U3,18*
G04 #@! TO.N,/D6*
X111760000Y-99060000D03*
G04 #@! TO.P,U3,4*
G04 #@! TO.N,/A6*
X129540000Y-83820000D03*
G04 #@! TO.P,U3,17*
G04 #@! TO.N,/D5*
X109220000Y-99060000D03*
G04 #@! TO.P,U3,3*
G04 #@! TO.N,/A7*
X132080000Y-83820000D03*
G04 #@! TO.P,U3,16*
G04 #@! TO.N,/D4*
X106680000Y-99060000D03*
G04 #@! TO.P,U3,2*
G04 #@! TO.N,/A12*
X134620000Y-83820000D03*
G04 #@! TO.P,U3,15*
G04 #@! TO.N,/D3*
X104140000Y-99060000D03*
D11*
G04 #@! TO.P,U3,1*
G04 #@! TO.N,/GND*
X137160000Y-83820000D03*
G04 #@! TD*
D12*
G04 #@! TO.P,J2,16*
G04 #@! TO.N,/ROM_CS*
X167640000Y-94742000D03*
G04 #@! TO.P,J2,15*
G04 #@! TO.N,/ROM_CS_0XEE*
X167640000Y-92202000D03*
G04 #@! TO.P,J2,14*
G04 #@! TO.N,/ROM_CS*
X170180000Y-94742000D03*
G04 #@! TO.P,J2,13*
G04 #@! TO.N,/ROM_CS_0XEC*
X170180000Y-92202000D03*
G04 #@! TO.P,J2,12*
G04 #@! TO.N,/ROM_CS*
X172720000Y-94742000D03*
G04 #@! TO.P,J2,11*
G04 #@! TO.N,/ROM_CS_0XEA*
X172720000Y-92202000D03*
G04 #@! TO.P,J2,10*
G04 #@! TO.N,/ROM_CS*
X175260000Y-94742000D03*
G04 #@! TO.P,J2,9*
G04 #@! TO.N,/ROM_CS_0XE8*
X175260000Y-92202000D03*
G04 #@! TO.P,J2,8*
G04 #@! TO.N,/ROM_CS*
X177800000Y-94742000D03*
G04 #@! TO.P,J2,7*
G04 #@! TO.N,/ROM_CS_0XE6*
X177800000Y-92202000D03*
G04 #@! TO.P,J2,6*
G04 #@! TO.N,/ROM_CS*
X180340000Y-94742000D03*
G04 #@! TO.P,J2,5*
G04 #@! TO.N,/ROM_CS_0XE4*
X180340000Y-92202000D03*
G04 #@! TO.P,J2,4*
G04 #@! TO.N,/ROM_CS*
X182880000Y-94742000D03*
G04 #@! TO.P,J2,3*
G04 #@! TO.N,/ROM_CS_0XE2*
X182880000Y-92202000D03*
G04 #@! TO.P,J2,2*
G04 #@! TO.N,/ROM_CS*
X185420000Y-94742000D03*
D13*
G04 #@! TO.P,J2,1*
G04 #@! TO.N,/ROM_CS_0XE0*
X185420000Y-92202000D03*
G04 #@! TD*
D14*
G04 #@! TO.P,C16,2*
G04 #@! TO.N,/5+*
X188722000Y-88900000D03*
G04 #@! TO.P,C16,1*
G04 #@! TO.N,/GND*
X188722000Y-83900000D03*
G04 #@! TD*
G04 #@! TO.P,C15,2*
G04 #@! TO.N,/5+*
X129540000Y-116078000D03*
G04 #@! TO.P,C15,1*
G04 #@! TO.N,/GND*
X124540000Y-116078000D03*
G04 #@! TD*
G04 #@! TO.P,C14,2*
G04 #@! TO.N,/5+*
X140462000Y-99060000D03*
G04 #@! TO.P,C14,1*
G04 #@! TO.N,/GND*
X140462000Y-94060000D03*
G04 #@! TD*
G04 #@! TO.P,C10,2*
G04 #@! TO.N,/5+*
X139700000Y-116078000D03*
G04 #@! TO.P,C10,1*
G04 #@! TO.N,/GND*
X134700000Y-116078000D03*
G04 #@! TD*
G04 #@! TO.P,C9,2*
G04 #@! TO.N,/5+*
X119380000Y-116078000D03*
G04 #@! TO.P,C9,1*
G04 #@! TO.N,/GND*
X114380000Y-116078000D03*
G04 #@! TD*
G04 #@! TO.P,C8,2*
G04 #@! TO.N,/5+*
X149860000Y-116078000D03*
G04 #@! TO.P,C8,1*
G04 #@! TO.N,/GND*
X144860000Y-116078000D03*
G04 #@! TD*
D15*
G04 #@! TO.P,R,1*
G04 #@! TO.N,N/C*
X197866000Y-85090000D03*
G04 #@! TD*
G04 #@! TO.P,R,1*
G04 #@! TO.N,N/C*
X197866000Y-142240000D03*
G04 #@! TD*
D16*
G04 #@! TO.P,J1,31*
G04 #@! TO.N,/GND*
X101600000Y-149860000D03*
G04 #@! TO.P,J1,30*
G04 #@! TO.N,Net-(J1-Pad30)*
X104140000Y-149860000D03*
G04 #@! TO.P,J1,29*
G04 #@! TO.N,/5+*
X106680000Y-149860000D03*
G04 #@! TO.P,J1,28*
G04 #@! TO.N,Net-(J1-Pad28)*
X109220000Y-149860000D03*
G04 #@! TO.P,J1,27*
G04 #@! TO.N,Net-(J1-Pad27)*
X111760000Y-149860000D03*
G04 #@! TO.P,J1,26*
G04 #@! TO.N,Net-(J1-Pad26)*
X114300000Y-149860000D03*
G04 #@! TO.P,J1,25*
G04 #@! TO.N,Net-(J1-Pad25)*
X116840000Y-149860000D03*
G04 #@! TO.P,J1,24*
G04 #@! TO.N,Net-(J1-Pad24)*
X119380000Y-149860000D03*
G04 #@! TO.P,J1,23*
G04 #@! TO.N,Net-(J1-Pad23)*
X121920000Y-149860000D03*
G04 #@! TO.P,J1,22*
G04 #@! TO.N,Net-(J1-Pad22)*
X124460000Y-149860000D03*
G04 #@! TO.P,J1,21*
G04 #@! TO.N,Net-(J1-Pad21)*
X127000000Y-149860000D03*
G04 #@! TO.P,J1,20*
G04 #@! TO.N,Net-(J1-Pad20)*
X129540000Y-149860000D03*
G04 #@! TO.P,J1,19*
G04 #@! TO.N,/REFQ*
X132080000Y-149860000D03*
G04 #@! TO.P,J1,18*
G04 #@! TO.N,Net-(J1-Pad18)*
X134620000Y-149860000D03*
G04 #@! TO.P,J1,17*
G04 #@! TO.N,Net-(J1-Pad17)*
X137160000Y-149860000D03*
G04 #@! TO.P,J1,16*
G04 #@! TO.N,Net-(J1-Pad16)*
X139700000Y-149860000D03*
G04 #@! TO.P,J1,15*
G04 #@! TO.N,Net-(J1-Pad15)*
X142240000Y-149860000D03*
G04 #@! TO.P,J1,14*
G04 #@! TO.N,/IORD*
X144780000Y-149860000D03*
G04 #@! TO.P,J1,13*
G04 #@! TO.N,/IOWR*
X147320000Y-149860000D03*
G04 #@! TO.P,J1,12*
G04 #@! TO.N,/MRD*
X149860000Y-149860000D03*
G04 #@! TO.P,J1,11*
G04 #@! TO.N,/MWR*
X152400000Y-149860000D03*
G04 #@! TO.P,J1,10*
G04 #@! TO.N,Net-(J1-Pad10)*
X154940000Y-149860000D03*
G04 #@! TO.P,J1,9*
G04 #@! TO.N,Net-(J1-Pad9)*
X157480000Y-149860000D03*
G04 #@! TO.P,J1,8*
G04 #@! TO.N,Net-(J1-Pad8)*
X160020000Y-149860000D03*
G04 #@! TO.P,J1,7*
G04 #@! TO.N,Net-(J1-Pad7)*
X162560000Y-149860000D03*
G04 #@! TO.P,J1,6*
G04 #@! TO.N,Net-(J1-Pad6)*
X165100000Y-149860000D03*
G04 #@! TO.P,J1,5*
G04 #@! TO.N,Net-(J1-Pad5)*
X167640000Y-149860000D03*
G04 #@! TO.P,J1,4*
G04 #@! TO.N,Net-(J1-Pad4)*
X170180000Y-149860000D03*
G04 #@! TO.P,J1,3*
G04 #@! TO.N,/5+*
X172720000Y-149860000D03*
G04 #@! TO.P,J1,2*
G04 #@! TO.N,Net-(J1-Pad2)*
X175260000Y-149860000D03*
G04 #@! TO.P,J1,1*
G04 #@! TO.N,/GND*
X177800000Y-149860000D03*
G04 #@! TD*
D17*
G04 #@! TO.P,U2,3*
G04 #@! TO.N,/5+*
X183197500Y-130873500D03*
G04 #@! TO.P,U2,2*
G04 #@! TO.N,/3v3*
X183197500Y-128333500D03*
D18*
G04 #@! TO.P,U2,1*
G04 #@! TO.N,/GND*
X183197500Y-125793500D03*
D19*
G04 #@! TO.P,U2,*
G04 #@! TO.N,*
X199857500Y-128333500D03*
G04 #@! TD*
D14*
G04 #@! TO.P,C5,2*
G04 #@! TO.N,/GND*
X179133500Y-113013500D03*
G04 #@! TO.P,C5,1*
G04 #@! TO.N,/XO*
X179133500Y-108013500D03*
G04 #@! TD*
G04 #@! TO.P,C4,2*
G04 #@! TO.N,/GND*
X173402000Y-103378000D03*
G04 #@! TO.P,C4,1*
G04 #@! TO.N,/XI*
X168402000Y-103378000D03*
G04 #@! TD*
G04 #@! TO.P,C2,2*
G04 #@! TO.N,/GND*
X179133500Y-118173500D03*
G04 #@! TO.P,C2,1*
G04 #@! TO.N,/PIN_9*
X184133500Y-118173500D03*
G04 #@! TD*
G04 #@! TO.P,C1,2*
G04 #@! TO.N,/RST*
X171005500Y-132397500D03*
G04 #@! TO.P,C1,1*
G04 #@! TO.N,/3v3*
X166005500Y-132397500D03*
G04 #@! TD*
D20*
G04 #@! TO.P,USB1,4*
G04 #@! TO.N,/GND*
X189293500Y-110157500D03*
G04 #@! TO.P,USB1,3*
G04 #@! TO.N,/D+*
X189293500Y-112657500D03*
G04 #@! TO.P,USB1,2*
G04 #@! TO.N,/D-*
X189293500Y-114657500D03*
D21*
G04 #@! TO.P,USB1,1*
G04 #@! TO.N,/5+*
X189293500Y-117157500D03*
D22*
G04 #@! TO.P,USB1,5*
G04 #@! TO.N,N/C*
X192003500Y-120227500D03*
X192003500Y-107087500D03*
G04 #@! TD*
D23*
G04 #@! TO.P,Y2,2*
G04 #@! TO.N,/XO*
X173365500Y-108013500D03*
G04 #@! TO.P,Y2,1*
G04 #@! TO.N,/XI*
X168465500Y-108013500D03*
G04 #@! TD*
D10*
G04 #@! TO.P,R2,2*
G04 #@! TO.N,/LED_PIN*
X171704000Y-100330000D03*
D14*
G04 #@! TO.P,R2,1*
G04 #@! TO.N,/LED*
X181864000Y-100330000D03*
G04 #@! TD*
D24*
G04 #@! TO.P,D1,2*
G04 #@! TO.N,/3v3*
X182880000Y-105156000D03*
D25*
G04 #@! TO.P,D1,1*
G04 #@! TO.N,/LED*
X185420000Y-105156000D03*
G04 #@! TD*
D14*
G04 #@! TO.P,C7,2*
G04 #@! TO.N,/GND*
X179133500Y-120713500D03*
G04 #@! TO.P,C7,1*
G04 #@! TO.N,/3v3*
X184133500Y-120713500D03*
G04 #@! TD*
G04 #@! TO.P,C6,2*
G04 #@! TO.N,/GND*
X179133500Y-124349500D03*
G04 #@! TO.P,C6,1*
G04 #@! TO.N,/5+*
X179133500Y-129349500D03*
G04 #@! TD*
D26*
G04 #@! TO.N,/3v3*
X166116000Y-129794000D03*
G04 #@! TO.N,/LED_PIN*
X168973500Y-120078500D03*
G04 #@! TO.N,/GND*
X179133500Y-109537500D03*
X167957500Y-122491488D03*
X169989512Y-122491488D03*
X171640500Y-109537500D03*
X101600000Y-137668000D03*
X153416000Y-122428000D03*
X153416000Y-116586000D03*
X104140000Y-94234000D03*
X137160000Y-94234000D03*
X132080000Y-94234000D03*
X101600000Y-94234000D03*
X101600000Y-116586000D03*
X188722000Y-86868000D03*
X162560000Y-86868000D03*
X162560000Y-94234000D03*
X167640000Y-86868000D03*
X175260000Y-86868000D03*
G04 #@! TO.N,/D7*
X173990000Y-144780000D03*
X173990000Y-138684000D03*
X161544000Y-138684000D03*
X161544000Y-121412000D03*
X114300000Y-100838000D03*
X161544000Y-100838000D03*
G04 #@! TO.N,/D6*
X171450000Y-144780000D03*
X171450000Y-139446000D03*
X160782000Y-139446000D03*
X160782000Y-120142000D03*
X111760000Y-101600000D03*
X160782000Y-101600000D03*
G04 #@! TO.N,/D5*
X168910000Y-144780000D03*
X168910000Y-140208000D03*
X160020000Y-140208000D03*
X160020000Y-118872000D03*
X109220000Y-102362000D03*
X160020000Y-102362000D03*
G04 #@! TO.N,/D4*
X166370000Y-144780000D03*
X166370000Y-140970000D03*
X159258000Y-140970000D03*
X159258000Y-117602000D03*
X106680000Y-103124000D03*
X159258000Y-103124000D03*
G04 #@! TO.N,/D3*
X163830000Y-144780000D03*
X163830000Y-141732000D03*
X158496000Y-141732000D03*
X158496000Y-116332000D03*
X104140000Y-103886000D03*
X158496000Y-103886000D03*
G04 #@! TO.N,/D2*
X161290000Y-144780000D03*
X161290000Y-142494000D03*
X157734000Y-142494000D03*
X157734000Y-115062000D03*
X107188000Y-87122000D03*
X157734000Y-87122000D03*
G04 #@! TO.N,/D1*
X158750000Y-144780000D03*
X158750000Y-143256000D03*
X156972000Y-143256000D03*
X156972000Y-113792000D03*
X109728000Y-86360000D03*
X156972000Y-86360000D03*
G04 #@! TO.N,/D0*
X156210000Y-144780000D03*
X156210000Y-112522000D03*
X112268000Y-85598000D03*
X156210000Y-85598000D03*
G04 #@! TO.N,/D+*
X177609500Y-117411500D03*
X177609500Y-115379500D03*
G04 #@! TO.N,/A0*
X102870000Y-144780000D03*
X114808000Y-87884000D03*
X102870000Y-87884000D03*
G04 #@! TO.N,/5+*
X180657500Y-130111500D03*
X180657500Y-116395500D03*
X106680000Y-115570000D03*
X106680000Y-132588000D03*
X180657500Y-134302500D03*
X172720000Y-134366000D03*
X154686000Y-134366000D03*
X154432000Y-115570000D03*
X154432000Y-99060000D03*
X188722000Y-98552000D03*
X172720000Y-86106000D03*
X187706000Y-85852000D03*
G04 #@! TO.N,/LED*
X185420000Y-100330000D03*
G04 #@! TO.N,/XO*
X173545500Y-112331500D03*
G04 #@! TO.N,/XI*
X168719500Y-113601500D03*
G04 #@! TO.N,/RST*
X171005500Y-129603500D03*
G04 #@! TO.N,/A1*
X105410000Y-144780000D03*
X117348000Y-88646000D03*
X105410000Y-88646000D03*
G04 #@! TO.N,/A2*
X107950000Y-144780000D03*
X107950000Y-89408000D03*
X119888006Y-89408000D03*
X172212000Y-119888000D03*
X172212000Y-110744000D03*
X107950000Y-110744000D03*
G04 #@! TO.N,/A3*
X110236000Y-144780000D03*
X110490000Y-90170000D03*
X122428010Y-90170000D03*
G04 #@! TO.N,/A4*
X113030000Y-144780000D03*
X114300000Y-127508000D03*
X113030000Y-90932000D03*
X124968006Y-90932000D03*
G04 #@! TO.N,/A5*
X115062000Y-144780000D03*
X115062000Y-119888000D03*
X115570000Y-91694000D03*
X127508000Y-91694000D03*
G04 #@! TO.N,/A6*
X116840000Y-144780000D03*
X116840000Y-122428000D03*
X118110000Y-92456006D03*
X130048000Y-92456000D03*
G04 #@! TO.N,/A7*
X118618000Y-144780000D03*
X117602000Y-124968000D03*
X120650010Y-93218000D03*
X132588000Y-93218000D03*
G04 #@! TO.N,/A8*
X123190000Y-144780000D03*
X124460000Y-119888000D03*
X129540000Y-106172000D03*
X123190000Y-106172000D03*
G04 #@! TO.N,/A9*
X125222000Y-144780000D03*
X125222000Y-122428000D03*
G04 #@! TO.N,/A10*
X127000000Y-144780000D03*
X127000000Y-124968000D03*
X119380000Y-104648000D03*
X128270000Y-104648000D03*
G04 #@! TO.N,/A11*
X128778000Y-144780000D03*
X127762000Y-127508000D03*
X124460000Y-105410000D03*
X130810000Y-105410000D03*
G04 #@! TO.N,/A12*
X133350000Y-144780000D03*
X134620000Y-119888000D03*
G04 #@! TO.N,/A13*
X135382000Y-144780000D03*
X135382000Y-122428000D03*
X135890000Y-87884000D03*
X141478000Y-87884000D03*
X184912000Y-83058000D03*
X141478000Y-83058000D03*
G04 #@! TO.N,/A14*
X137160000Y-144780000D03*
X137160000Y-124968000D03*
X182372000Y-83820000D03*
X139192000Y-83820000D03*
G04 #@! TO.N,/A15*
X138938000Y-144780000D03*
X137922000Y-127508000D03*
X179832000Y-84582000D03*
X142240000Y-84582000D03*
G04 #@! TO.N,/A16*
X143510000Y-144780000D03*
X144780000Y-127508000D03*
G04 #@! TO.N,/A17*
X145542000Y-144780000D03*
X145542000Y-119888000D03*
G04 #@! TO.N,/A18*
X147320000Y-144780000D03*
X147320000Y-122428000D03*
G04 #@! TO.N,/A19*
X149098000Y-144780000D03*
X148082000Y-124968000D03*
G04 #@! TO.N,/MRD*
X151638000Y-97282000D03*
X121666000Y-97282000D03*
G04 #@! TO.N,/MWR*
X152400000Y-96520000D03*
X135128000Y-96520000D03*
G04 #@! TO.N,/IORD*
X169672008Y-125222000D03*
X144780000Y-143002000D03*
X154686000Y-143002000D03*
X154686000Y-137414000D03*
X169672000Y-137414000D03*
G04 #@! TO.N,/IOWR*
X168910000Y-126238000D03*
X146558000Y-143764000D03*
X155448000Y-143764000D03*
X155448000Y-136652000D03*
X168910000Y-136652000D03*
G04 #@! TO.N,/IO_0XXX*
X136144000Y-130810000D03*
X136144000Y-121412000D03*
G04 #@! TO.N,/IO_00XX*
X125984000Y-130810000D03*
X125984000Y-121412000D03*
G04 #@! TO.N,/CH376CS*
X168148000Y-127762000D03*
X168148008Y-135890000D03*
G04 #@! TO.N,/REFQ*
X133604000Y-132588000D03*
G04 #@! TO.N,/ROM_CS*
X117348000Y-95758000D03*
G04 #@! TO.N,/ROM_CS_0XEX*
X155448000Y-133350000D03*
X155448000Y-84836000D03*
X177292000Y-85344000D03*
G04 #@! TO.N,/AEN*
X153670000Y-144780000D03*
X153670000Y-130810000D03*
G04 #@! TD*
D27*
G04 #@! TO.N,/3v3*
X184975500Y-121555500D02*
X184133500Y-120713500D01*
X184975500Y-127317500D02*
X184975500Y-121555500D01*
X183959500Y-128333500D02*
X184975500Y-127317500D01*
X183197500Y-128333500D02*
X183959500Y-128333500D01*
X166005500Y-129904500D02*
X166116000Y-129794000D01*
X166005500Y-132397500D02*
X166005500Y-129904500D01*
X185420000Y-119427000D02*
X184133500Y-120713500D01*
X185420000Y-109220000D02*
X185420000Y-119427000D01*
X182880000Y-106680000D02*
X185420000Y-109220000D01*
X182880000Y-105156000D02*
X182880000Y-106680000D01*
D28*
G04 #@! TO.N,/LED_PIN*
X170688000Y-101346000D02*
X171704000Y-100330000D01*
X170688000Y-118364000D02*
X170688000Y-101346000D01*
X168973500Y-120078500D02*
X170688000Y-118364000D01*
D27*
G04 #@! TO.N,/GND*
X179133500Y-118173500D02*
X179133500Y-113013500D01*
X179133500Y-124349500D02*
X179133500Y-120713500D01*
X179133500Y-120713500D02*
X179133500Y-118173500D01*
X179133500Y-113013500D02*
X179133500Y-109537500D01*
X169989512Y-122491488D02*
X167957500Y-122491488D01*
X171640500Y-105139500D02*
X173402000Y-103378000D01*
X171640500Y-109537500D02*
X171640500Y-105139500D01*
X101600000Y-149860000D02*
X101600000Y-137668000D01*
X153416000Y-122428000D02*
X153416000Y-116586000D01*
X104140000Y-94234000D02*
X104140000Y-83820000D01*
X132080000Y-99060000D02*
X132080000Y-94234000D01*
X137160000Y-83820000D02*
X137160000Y-94234000D01*
X101600000Y-137668000D02*
X101600000Y-94234000D01*
X177800000Y-125683000D02*
X179133500Y-124349500D01*
X177800000Y-149860000D02*
X177800000Y-125683000D01*
X188722000Y-83900000D02*
X188722000Y-86868000D01*
X167640000Y-81280000D02*
X167640000Y-86868000D01*
X175260000Y-81280000D02*
X175260000Y-86868000D01*
X162560000Y-86868000D02*
X162560000Y-94234000D01*
D28*
G04 #@! TO.N,/D7*
X173990000Y-144780000D02*
X173990000Y-138684000D01*
X161544000Y-138684000D02*
X161544000Y-121412000D01*
X114300000Y-99060000D02*
X114300000Y-100838000D01*
X161544000Y-100838000D02*
X161544000Y-121412000D01*
G04 #@! TO.N,/D6*
X171450000Y-144780000D02*
X171450000Y-139446000D01*
X160782000Y-139446000D02*
X160782000Y-120142000D01*
X111760000Y-99060000D02*
X111760000Y-101600000D01*
X160782000Y-120142000D02*
X160782000Y-101600000D01*
G04 #@! TO.N,/D5*
X168910000Y-144780000D02*
X168910000Y-140208000D01*
X160020000Y-140208000D02*
X160020000Y-118872000D01*
X109220000Y-99060000D02*
X109220000Y-102362000D01*
X160020000Y-102362000D02*
X160020000Y-118872000D01*
G04 #@! TO.N,/D4*
X166370000Y-144780000D02*
X166370000Y-140970000D01*
X159258000Y-140970000D02*
X159258000Y-117602000D01*
X106680000Y-99060000D02*
X106680000Y-103124000D01*
X159258000Y-103124000D02*
X159258000Y-117602000D01*
G04 #@! TO.N,/D3*
X163830000Y-144780000D02*
X163830000Y-141732000D01*
X158496000Y-141732000D02*
X158496000Y-116332000D01*
X104140000Y-99060000D02*
X104140000Y-103886000D01*
X158496000Y-116332000D02*
X158496000Y-103886000D01*
G04 #@! TO.N,/D2*
X161290000Y-144780000D02*
X161290000Y-142494000D01*
X157734000Y-142494000D02*
X157734000Y-115062000D01*
X107188000Y-84328000D02*
X107188000Y-87122000D01*
X106680000Y-83820000D02*
X107188000Y-84328000D01*
X157734000Y-115062000D02*
X157734000Y-87122000D01*
G04 #@! TO.N,/D1*
X158750000Y-144780000D02*
X158750000Y-143256000D01*
X156972000Y-143256000D02*
X156972000Y-113792000D01*
X109220000Y-83820000D02*
X109728000Y-84328000D01*
X109728000Y-84328000D02*
X109728000Y-86360000D01*
X156972000Y-113792000D02*
X156972000Y-86360000D01*
G04 #@! TO.N,/D0*
X156210000Y-144780000D02*
X156210000Y-112522000D01*
X111760000Y-83820000D02*
X112268000Y-84328000D01*
X112268000Y-84328000D02*
X112268000Y-85598000D01*
X156210000Y-112522000D02*
X156210000Y-85598000D01*
G04 #@! TO.N,/D+*
X177609500Y-115379500D02*
X177609500Y-117411500D01*
G04 #@! TO.N,/A0*
X114300000Y-83820000D02*
X114808000Y-84328000D01*
X114808000Y-84328000D02*
X114808000Y-87884000D01*
X102870000Y-144780000D02*
X102870000Y-87884000D01*
D27*
G04 #@! TO.N,/5+*
X180657500Y-116395500D02*
X180657500Y-130111500D01*
X149860000Y-116078000D02*
X149860000Y-119380000D01*
X139700000Y-116078000D02*
X139700000Y-119380000D01*
X129540000Y-116078000D02*
X129540000Y-119380000D01*
X119380000Y-116078000D02*
X119380000Y-119380000D01*
X106680000Y-149860000D02*
X106680000Y-132588000D01*
X106680000Y-132588000D02*
X106680000Y-115570000D01*
X172720000Y-149860000D02*
X172720000Y-134366000D01*
X180657500Y-130111500D02*
X180657500Y-134302500D01*
X154686000Y-115824000D02*
X154432000Y-115570000D01*
X154686000Y-131318000D02*
X154686000Y-115824000D01*
X154432000Y-131572000D02*
X154686000Y-131318000D01*
X154432000Y-134112000D02*
X154432000Y-131572000D01*
X154686000Y-134366000D02*
X154432000Y-134112000D01*
X154432000Y-115570000D02*
X154432000Y-99060000D01*
X188722000Y-98552000D02*
X188722000Y-88900000D01*
X172720000Y-81280000D02*
X172720000Y-86106000D01*
X187706000Y-87884000D02*
X188722000Y-88900000D01*
X187706000Y-85852000D02*
X187706000Y-87884000D01*
D28*
G04 #@! TO.N,/LED*
X185420000Y-100330000D02*
X185420000Y-105156000D01*
G04 #@! TO.N,/XO*
X173545500Y-108193500D02*
X173365500Y-108013500D01*
X173545500Y-112331500D02*
X173545500Y-108193500D01*
G04 #@! TO.N,/XI*
X168719500Y-108267500D02*
X168465500Y-108013500D01*
X168719500Y-113601500D02*
X168719500Y-108267500D01*
X168465500Y-103441500D02*
X168402000Y-103378000D01*
X168465500Y-108013500D02*
X168465500Y-103441500D01*
G04 #@! TO.N,/RST*
X171005500Y-132397500D02*
X171005500Y-129603500D01*
G04 #@! TO.N,/A1*
X116840000Y-83820000D02*
X117348000Y-84328000D01*
X117348000Y-84328000D02*
X117348000Y-88646000D01*
X105410000Y-144780000D02*
X105410000Y-88646000D01*
G04 #@! TO.N,/A2*
X107950000Y-144780000D02*
X107950000Y-89408000D01*
X119888000Y-89407994D02*
X119888006Y-89408000D01*
X119888000Y-84328000D02*
X119888000Y-89407994D01*
X119380000Y-83820000D02*
X119888000Y-84328000D01*
X172212000Y-119888000D02*
X172212000Y-110744000D01*
G04 #@! TO.N,/A3*
X110490000Y-101092000D02*
X110490000Y-90170000D01*
X110236000Y-101346000D02*
X110490000Y-101092000D01*
X110236000Y-144780000D02*
X110236000Y-101346000D01*
X122428000Y-90169990D02*
X122428010Y-90170000D01*
X122428000Y-84328000D02*
X122428000Y-90169990D01*
X121920000Y-83820000D02*
X122428000Y-84328000D01*
G04 #@! TO.N,/A4*
X114300000Y-143510000D02*
X114300000Y-127508000D01*
X113030000Y-144780000D02*
X114300000Y-143510000D01*
X113030000Y-126238000D02*
X113030000Y-90932000D01*
X114300000Y-127508000D02*
X113030000Y-126238000D01*
X124968000Y-90931994D02*
X124968006Y-90932000D01*
X124968000Y-84328000D02*
X124968000Y-90931994D01*
X124460000Y-83820000D02*
X124968000Y-84328000D01*
G04 #@! TO.N,/A5*
X115062000Y-144780000D02*
X115062000Y-119888000D01*
X115570000Y-119380000D02*
X115570000Y-91694000D01*
X115062000Y-119888000D02*
X115570000Y-119380000D01*
X127508000Y-84328000D02*
X127508000Y-91694000D01*
X127000000Y-83820000D02*
X127508000Y-84328000D01*
G04 #@! TO.N,/A6*
X116840000Y-144780000D02*
X116840000Y-122428000D01*
X116840000Y-122428000D02*
X116840000Y-114808000D01*
X116840000Y-114808000D02*
X118110000Y-113538000D01*
X118110000Y-113538000D02*
X118110000Y-92456006D01*
X130048000Y-84328000D02*
X130048000Y-92456000D01*
X129540000Y-83820000D02*
X130048000Y-84328000D01*
G04 #@! TO.N,/A7*
X117602000Y-143764000D02*
X118618000Y-144780000D01*
X117602000Y-124968000D02*
X117602000Y-143764000D01*
X117602000Y-124968000D02*
X117602000Y-115062000D01*
X117602000Y-115062000D02*
X120650010Y-112013990D01*
X120650010Y-112013990D02*
X120650010Y-93218000D01*
X132588000Y-84328000D02*
X132588000Y-93218000D01*
X132080000Y-83820000D02*
X132588000Y-84328000D01*
G04 #@! TO.N,/A8*
X124460000Y-127508000D02*
X124460000Y-118872000D01*
X124460000Y-143510000D02*
X124460000Y-119888000D01*
X123190000Y-144780000D02*
X124460000Y-143510000D01*
X123190000Y-117602000D02*
X123190000Y-106172000D01*
X124460000Y-118872000D02*
X123190000Y-117602000D01*
X124460000Y-119888000D02*
X124460000Y-118872000D01*
X129540000Y-99060000D02*
X129540000Y-106172000D01*
G04 #@! TO.N,/A9*
X125222000Y-144780000D02*
X125222000Y-122428000D01*
X125222000Y-122428000D02*
X125222000Y-119380000D01*
X125222000Y-119888000D02*
X125222000Y-119380000D01*
X125730000Y-100330000D02*
X127000000Y-99060000D01*
X125730000Y-118364000D02*
X125730000Y-100330000D01*
X125222000Y-118872000D02*
X125730000Y-118364000D01*
X125222000Y-119380000D02*
X125222000Y-118872000D01*
G04 #@! TO.N,/A10*
X128270000Y-113538000D02*
X128270000Y-104648000D01*
X127000000Y-114808000D02*
X128270000Y-113538000D01*
X127000000Y-144780000D02*
X127000000Y-124968000D01*
X127000000Y-124968000D02*
X127000000Y-121412000D01*
X127000000Y-121412000D02*
X127000000Y-114808000D01*
X127000000Y-122428000D02*
X127000000Y-121412000D01*
X119380000Y-99060000D02*
X119380000Y-104648000D01*
G04 #@! TO.N,/A11*
X127762000Y-115062000D02*
X130810000Y-112014000D01*
X130810000Y-112014000D02*
X130810000Y-105410000D01*
X127762000Y-143764000D02*
X128778000Y-144780000D01*
X127762000Y-127508000D02*
X127762000Y-143764000D01*
X127762000Y-127508000D02*
X127762000Y-124206000D01*
X127762000Y-124206000D02*
X127762000Y-115062000D01*
X127762000Y-124968000D02*
X127762000Y-124206000D01*
X124460000Y-99060000D02*
X124460000Y-105410000D01*
G04 #@! TO.N,/A12*
X134620000Y-143510000D02*
X134620000Y-119888000D01*
X133350000Y-144780000D02*
X134620000Y-143510000D01*
X134112000Y-84328000D02*
X134620000Y-83820000D01*
X133350000Y-97409000D02*
X134112000Y-96647000D01*
X133350000Y-117602000D02*
X133350000Y-97409000D01*
X134112000Y-96647000D02*
X134112000Y-84328000D01*
X134620000Y-118872000D02*
X133350000Y-117602000D01*
X134620000Y-127508000D02*
X134620000Y-118872000D01*
G04 #@! TO.N,/A13*
X135382000Y-144780000D02*
X135382000Y-122428000D01*
X135890000Y-118364000D02*
X135890000Y-87884000D01*
X135382000Y-118872000D02*
X135890000Y-118364000D01*
X135382000Y-122428000D02*
X135382000Y-118872000D01*
X185420000Y-81280000D02*
X185420000Y-81534000D01*
X184912000Y-81788000D02*
X184912000Y-83058000D01*
X185420000Y-81280000D02*
X184912000Y-81788000D01*
X141478000Y-83058000D02*
X141478000Y-87884000D01*
G04 #@! TO.N,/A14*
X137160000Y-144780000D02*
X137160000Y-124968000D01*
X137160000Y-124968000D02*
X137160000Y-121158000D01*
X137160000Y-122428000D02*
X137160000Y-121158000D01*
X182880000Y-81280000D02*
X182372000Y-81788000D01*
X182372000Y-81788000D02*
X182372000Y-83820000D01*
X139192000Y-84836000D02*
X139192000Y-83820000D01*
X138430000Y-85598000D02*
X139192000Y-84836000D01*
X138430000Y-113538000D02*
X138430000Y-85598000D01*
X137160000Y-114808000D02*
X138430000Y-113538000D01*
X137160000Y-121158000D02*
X137160000Y-114808000D01*
G04 #@! TO.N,/A15*
X137922000Y-143764000D02*
X138938000Y-144780000D01*
X137922000Y-127508000D02*
X137922000Y-143764000D01*
X137922000Y-127508000D02*
X137922000Y-123190000D01*
X137922000Y-124968000D02*
X137922000Y-123190000D01*
X179832000Y-81788000D02*
X179832000Y-84582000D01*
X180340000Y-81280000D02*
X179832000Y-81788000D01*
X142240000Y-110998000D02*
X142240000Y-84582000D01*
X137922000Y-115316000D02*
X142240000Y-110998000D01*
X137922000Y-123190000D02*
X137922000Y-115316000D01*
G04 #@! TO.N,/A16*
X144780000Y-139954000D02*
X144780000Y-127508000D01*
X143510000Y-141224000D02*
X144780000Y-139954000D01*
X143510000Y-144780000D02*
X143510000Y-141224000D01*
G04 #@! TO.N,/A17*
X145542000Y-144780000D02*
X145542000Y-119888000D01*
G04 #@! TO.N,/A18*
X147320000Y-144780000D02*
X147320000Y-122428000D01*
G04 #@! TO.N,/A19*
X148082000Y-143764000D02*
X149098000Y-144780000D01*
X148082000Y-124968000D02*
X148082000Y-143764000D01*
G04 #@! TO.N,/MRD*
X151638000Y-144018000D02*
X151638000Y-97282000D01*
X149860000Y-145796000D02*
X151638000Y-144018000D01*
X149860000Y-149860000D02*
X149860000Y-145796000D01*
X121666000Y-98806000D02*
X121920000Y-99060000D01*
X121666000Y-97282000D02*
X121666000Y-98806000D01*
G04 #@! TO.N,/MWR*
X152400000Y-149860000D02*
X152400000Y-96520000D01*
X135128000Y-98552000D02*
X134620000Y-99060000D01*
X135128000Y-96520000D02*
X135128000Y-98552000D01*
G04 #@! TO.N,/IORD*
X144780000Y-149860000D02*
X144780000Y-143002000D01*
X154686000Y-143002000D02*
X154686000Y-137414000D01*
X169672000Y-137414000D02*
X169672000Y-133858000D01*
X169672000Y-133858000D02*
X169418000Y-133604000D01*
X169418000Y-133604000D02*
X169418000Y-131064000D01*
X169672008Y-130809992D02*
X169672008Y-125222000D01*
X169418000Y-131064000D02*
X169672008Y-130809992D01*
G04 #@! TO.N,/IOWR*
X168910000Y-126238000D02*
X168910000Y-136652000D01*
X147320000Y-149860000D02*
X147320000Y-146304000D01*
X147320000Y-146304000D02*
X146558000Y-145542000D01*
X146558000Y-145542000D02*
X146558000Y-143764000D01*
X155448000Y-143764000D02*
X155448000Y-136652000D01*
G04 #@! TO.N,/IO_0XXX*
X136144000Y-130810000D02*
X136144000Y-121412000D01*
G04 #@! TO.N,/IO_00XX*
X125984000Y-130810000D02*
X125984000Y-121412000D01*
G04 #@! TO.N,/CH376CS*
X168148000Y-127762000D02*
X168148000Y-135889992D01*
X168148000Y-135889992D02*
X168148008Y-135890000D01*
G04 #@! TO.N,/REFQ*
X132080000Y-149860000D02*
X132080000Y-140716000D01*
X132080000Y-140716000D02*
X133604000Y-139192000D01*
X133604000Y-139192000D02*
X133604000Y-132588000D01*
G04 #@! TO.N,/ROM_CS*
X117348000Y-98552000D02*
X117348000Y-95758000D01*
X116840000Y-99060000D02*
X117348000Y-98552000D01*
G04 #@! TO.N,/ROM_CS_0XEE*
X167640000Y-92202000D02*
X168910000Y-90932000D01*
X168910000Y-90932000D02*
X168910000Y-87122000D01*
X168910000Y-87122000D02*
X169672000Y-86360000D01*
X169672000Y-81788000D02*
X170180000Y-81280000D01*
X169672000Y-86360000D02*
X169672000Y-81788000D01*
G04 #@! TO.N,/ROM_CS_0XEA*
X172720000Y-91440000D02*
X172720000Y-92202000D01*
X170180000Y-88900000D02*
X172720000Y-91440000D01*
G04 #@! TO.N,/ROM_CS_0XE8*
X175260000Y-91440000D02*
X175260000Y-92202000D01*
X172720000Y-88900000D02*
X175260000Y-91440000D01*
G04 #@! TO.N,/ROM_CS_0XE6*
X177800000Y-91440000D02*
X177800000Y-92202000D01*
X175260000Y-88900000D02*
X177800000Y-91440000D01*
G04 #@! TO.N,/ROM_CS_0XE4*
X180340000Y-91440000D02*
X180340000Y-92202000D01*
X177800000Y-88900000D02*
X180340000Y-91440000D01*
G04 #@! TO.N,/ROM_CS_0XE2*
X182880000Y-91440000D02*
X182880000Y-92202000D01*
X180340000Y-88900000D02*
X182880000Y-91440000D01*
G04 #@! TO.N,/ROM_CS_0XE0*
X185420000Y-91440000D02*
X185420000Y-92202000D01*
X182880000Y-88900000D02*
X185420000Y-91440000D01*
G04 #@! TO.N,/ROM_CS_0XEX*
X155448000Y-133350000D02*
X155448000Y-84836000D01*
X177800000Y-81280000D02*
X177292000Y-81788000D01*
X177292000Y-81788000D02*
X177292000Y-85344000D01*
G04 #@! TO.N,/AEN*
X153670000Y-144780000D02*
X153670000Y-130810000D01*
G04 #@! TD*
M02*
