M48
; DRILL file {KiCad (5.1.8)-1} date 04/05/23 17:01:09
; FORMAT={-:-/ absolute / inch / decimal}
; #@! TF.CreationDate,2023-04-05T17:01:09-06:00
; #@! TF.GenerationSoftware,Kicad,Pcbnew,(5.1.8)-1
; #@! TF.FileFunction,Plated,1,2,PTH
FMAT,2
INCH
T1C0.0157
T2C0.0315
T3C0.0354
T4C0.0362
T5C0.0394
T6C0.0433
T7C0.0906
T8C0.1378
%
G90
G05
T1
X4.2Y-5.25
X4.25Y-5.19
X4.25Y-5.5
X4.3Y-5.28
X4.35Y-5.22
X4.35Y-5.5
X4.4Y-5.31
X4.45Y-5.16
X4.45Y-5.5
X4.5Y-4.48
X4.5Y-4.72
X4.5Y-5.34
X4.53Y-4.62
X4.55Y-5.5
X4.56Y-4.32
X4.59Y-4.42
X4.6Y-5.37
X4.62Y-4.52
X4.65Y-5.5
X4.7Y-5.4
X4.75Y-5.5
X4.8Y-5.43
X4.85Y-5.5
X4.9Y-4.48
X4.9Y-4.72
X4.9Y-5.46
X4.93Y-4.32
X4.95Y-5.5
X4.96Y-4.42
X4.99Y-4.52
X5.02Y-4.62
X5.05Y-5.5
X5.15Y-5.5
X5.25Y-5.5
X5.28Y-4.7
X5.28Y-5.02
X5.33Y-4.32
X5.35Y-5.5
X5.36Y-4.42
X5.39Y-4.52
X5.42Y-4.62
X5.45Y-5.5
X5.55Y-5.5
X5.65Y-5.5
X5.69Y-4.32
X5.69Y-4.85
X5.72Y-4.42
X5.72Y-5.19
X5.75Y-4.52
X5.75Y-5.22
X5.8Y-4.15
X5.8Y-4.3525
X5.8Y-4.72
X6.02Y-4.39
X6.02Y-4.85
X6.05Y-4.31
X6.05Y-4.75
X6.08Y-4.28
X6.08Y-4.65
X6.11Y-4.55
X6.14Y-5.02
X6.17Y-4.43
X6.17Y-5.25
X6.19Y-4.28
X6.21Y-4.48
X6.21Y-5.28
X6.24Y-4.53
X6.24Y-5.31
X6.27Y-4.58
X6.27Y-5.34
X6.29Y-4.31
X6.3Y-4.63
X6.3Y-5.37
X6.33Y-4.68
X6.33Y-5.4
X6.36Y-4.73
X6.36Y-5.43
X6.39Y-4.39
X6.39Y-4.78
X6.39Y-5.46
X6.42Y-5.16
X6.45Y-5.5
X6.54Y-5.11
X6.55Y-4.22
X6.55Y-4.3125
X6.55Y-5.5
X6.6125Y-4.8225
X6.63Y-4.98
X6.6425Y-4.4725
X6.6525Y-4.7275
X6.6925Y-4.8225
X6.7025Y-4.7725
X6.7325Y-5.1025
X6.7425Y-4.9225
X6.7575Y-4.3125
X6.8325Y-4.4225
X6.9925Y-4.5425
X6.9925Y-4.6225
X7.0525Y-4.3125
X7.1125Y-4.3525
X7.1125Y-4.5825
X7.1125Y-5.1225
X7.3Y-3.95
X7.71Y-4.98
X7.85Y-5.5
X7.9Y-5.2
T2
X7.0525Y-4.2525
X7.0525Y-4.4494
X5.2Y-4.3
X5.2Y-4.4
X5.2Y-4.5
X5.2Y-4.6
X5.2Y-4.7
X5.2Y-4.8
X5.2Y-4.9
X5.2Y-5.0
X5.5Y-4.3
X5.5Y-4.4
X5.5Y-4.5
X5.5Y-4.6
X5.5Y-4.7
X5.5Y-4.8
X5.5Y-4.9
X5.5Y-5.0
X4.8Y-4.3
X4.8Y-4.4
X4.8Y-4.5
X4.8Y-4.6
X4.8Y-4.7
X4.8Y-4.8
X4.8Y-4.9
X4.8Y-5.0
X5.1Y-4.3
X5.1Y-4.4
X5.1Y-4.5
X5.1Y-4.6
X5.1Y-4.7
X5.1Y-4.8
X5.1Y-4.9
X5.1Y-5.0
X6.76Y-3.95
X7.16Y-3.95
X5.3031Y-4.17
X5.5Y-4.17
X6.5356Y-5.2125
X6.7325Y-5.2125
X5.6Y-4.3
X5.6Y-4.4
X5.6Y-4.5
X5.6Y-4.6
X5.6Y-4.7
X5.6Y-4.8
X5.6Y-4.9
X5.6Y-5.0
X5.9Y-4.3
X5.9Y-4.4
X5.9Y-4.5
X5.9Y-4.6
X5.9Y-4.7
X5.9Y-4.8
X5.9Y-4.9
X5.9Y-5.0
X4.5031Y-4.17
X4.7Y-4.17
X6.63Y-4.07
X6.8269Y-4.07
X6.6325Y-4.2525
X6.8254Y-4.2525
X5.7031Y-4.17
X5.9Y-4.17
X7.0525Y-4.7525
X7.2494Y-4.7525
X4.9031Y-4.17
X5.1Y-4.17
X4.4Y-4.3
X4.4Y-4.4
X4.4Y-4.5
X4.4Y-4.6
X4.4Y-4.7
X4.4Y-4.8
X4.4Y-4.9
X4.4Y-5.0
X4.7Y-4.3
X4.7Y-4.4
X4.7Y-4.5
X4.7Y-4.6
X4.7Y-4.7
X4.7Y-4.8
X4.7Y-4.9
X4.7Y-5.0
X7.0525Y-4.6525
X7.2494Y-4.6525
X7.0525Y-4.8956
X7.0525Y-5.0925
T3
X7.2Y-4.14
X7.3Y-4.14
T4
X7.4525Y-4.3369
X7.4525Y-4.4353
X7.4525Y-4.5141
X7.4525Y-4.6125
T5
X6.09Y-4.04
X6.09Y-4.14
X6.19Y-4.04
X6.19Y-4.14
X6.29Y-4.04
X6.29Y-4.14
X6.39Y-4.04
X6.39Y-4.14
T6
X7.2125Y-4.9525
X7.2125Y-5.0525
X7.2125Y-5.1525
T7
X7.5592Y-4.216
X7.5592Y-4.7334
T8
X7.8684Y-5.0525
T0
M30
