G04 #@! TF.GenerationSoftware,KiCad,Pcbnew,(5.1.8)-1*
G04 #@! TF.CreationDate,2023-06-12T19:56:52-06:00*
G04 #@! TF.ProjectId,CH376S ISA,43483337-3653-4204-9953-412e6b696361,rev?*
G04 #@! TF.SameCoordinates,Original*
G04 #@! TF.FileFunction,Soldermask,Bot*
G04 #@! TF.FilePolarity,Negative*
%FSLAX46Y46*%
G04 Gerber Fmt 4.6, Leading zero omitted, Abs format (unit mm)*
G04 Created by KiCad (PCBNEW (5.1.8)-1) date 2023-06-12 19:56:52*
%MOMM*%
%LPD*%
G01*
G04 APERTURE LIST*
%ADD10R,1.780000X7.620000*%
%ADD11O,1.700000X1.700000*%
%ADD12R,1.700000X1.700000*%
%ADD13O,1.600000X1.600000*%
%ADD14R,1.600000X1.600000*%
%ADD15C,1.600000*%
%ADD16C,3.556000*%
%ADD17O,2.000000X1.905000*%
%ADD18R,2.000000X1.905000*%
%ADD19O,4.318000X4.318000*%
%ADD20C,1.524000*%
%ADD21R,1.524000X1.524000*%
%ADD22C,3.500000*%
%ADD23C,1.500000*%
%ADD24C,1.800000*%
%ADD25R,1.800000X1.800000*%
G04 APERTURE END LIST*
D10*
G04 #@! TO.C,J1*
X101600000Y-149860000D03*
X104140000Y-149860000D03*
X106680000Y-149860000D03*
X109220000Y-149860000D03*
X111760000Y-149860000D03*
X114300000Y-149860000D03*
X116840000Y-149860000D03*
X119380000Y-149860000D03*
X121920000Y-149860000D03*
X124460000Y-149860000D03*
X127000000Y-149860000D03*
X129540000Y-149860000D03*
X132080000Y-149860000D03*
X134620000Y-149860000D03*
X137160000Y-149860000D03*
X139700000Y-149860000D03*
X142240000Y-149860000D03*
X144780000Y-149860000D03*
X147320000Y-149860000D03*
X149860000Y-149860000D03*
X152400000Y-149860000D03*
X154940000Y-149860000D03*
X157480000Y-149860000D03*
X160020000Y-149860000D03*
X162560000Y-149860000D03*
X165100000Y-149860000D03*
X167640000Y-149860000D03*
X170180000Y-149860000D03*
X172720000Y-149860000D03*
X175260000Y-149860000D03*
X177800000Y-149860000D03*
G04 #@! TD*
D11*
G04 #@! TO.C,J3*
X160274000Y-91948000D03*
X160274000Y-89408000D03*
X162814000Y-91948000D03*
D12*
X162814000Y-89408000D03*
G04 #@! TD*
D13*
G04 #@! TO.C,U15*
X119380000Y-119380000D03*
X111760000Y-137160000D03*
X119380000Y-121920000D03*
X111760000Y-134620000D03*
X119380000Y-124460000D03*
X111760000Y-132080000D03*
X119380000Y-127000000D03*
X111760000Y-129540000D03*
X119380000Y-129540000D03*
X111760000Y-127000000D03*
X119380000Y-132080000D03*
X111760000Y-124460000D03*
X119380000Y-134620000D03*
X111760000Y-121920000D03*
X119380000Y-137160000D03*
D14*
X111760000Y-119380000D03*
G04 #@! TD*
D13*
G04 #@! TO.C,U14*
X129540000Y-119380000D03*
X121920000Y-137160000D03*
X129540000Y-121920000D03*
X121920000Y-134620000D03*
X129540000Y-124460000D03*
X121920000Y-132080000D03*
X129540000Y-127000000D03*
X121920000Y-129540000D03*
X129540000Y-129540000D03*
X121920000Y-127000000D03*
X129540000Y-132080000D03*
X121920000Y-124460000D03*
X129540000Y-134620000D03*
X121920000Y-121920000D03*
X129540000Y-137160000D03*
D14*
X121920000Y-119380000D03*
G04 #@! TD*
D13*
G04 #@! TO.C,U13*
X139700000Y-119380000D03*
X132080000Y-137160000D03*
X139700000Y-121920000D03*
X132080000Y-134620000D03*
X139700000Y-124460000D03*
X132080000Y-132080000D03*
X139700000Y-127000000D03*
X132080000Y-129540000D03*
X139700000Y-129540000D03*
X132080000Y-127000000D03*
X139700000Y-132080000D03*
X132080000Y-124460000D03*
X139700000Y-134620000D03*
X132080000Y-121920000D03*
X139700000Y-137160000D03*
D14*
X132080000Y-119380000D03*
G04 #@! TD*
D13*
G04 #@! TO.C,U5*
X185420000Y-88900000D03*
X167640000Y-81280000D03*
X182880000Y-88900000D03*
X170180000Y-81280000D03*
X180340000Y-88900000D03*
X172720000Y-81280000D03*
X177800000Y-88900000D03*
X175260000Y-81280000D03*
X175260000Y-88900000D03*
X177800000Y-81280000D03*
X172720000Y-88900000D03*
X180340000Y-81280000D03*
X170180000Y-88900000D03*
X182880000Y-81280000D03*
X167640000Y-88900000D03*
D14*
X185420000Y-81280000D03*
G04 #@! TD*
D13*
G04 #@! TO.C,U4*
X149860000Y-119380000D03*
X142240000Y-137160000D03*
X149860000Y-121920000D03*
X142240000Y-134620000D03*
X149860000Y-124460000D03*
X142240000Y-132080000D03*
X149860000Y-127000000D03*
X142240000Y-129540000D03*
X149860000Y-129540000D03*
X142240000Y-127000000D03*
X149860000Y-132080000D03*
X142240000Y-124460000D03*
X149860000Y-134620000D03*
X142240000Y-121920000D03*
X149860000Y-137160000D03*
D14*
X142240000Y-119380000D03*
G04 #@! TD*
D13*
G04 #@! TO.C,U3*
X137160000Y-99060000D03*
X104140000Y-83820000D03*
X134620000Y-99060000D03*
X106680000Y-83820000D03*
X132080000Y-99060000D03*
X109220000Y-83820000D03*
X129540000Y-99060000D03*
X111760000Y-83820000D03*
X127000000Y-99060000D03*
X114300000Y-83820000D03*
X124460000Y-99060000D03*
X116840000Y-83820000D03*
X121920000Y-99060000D03*
X119380000Y-83820000D03*
X119380000Y-99060000D03*
X121920000Y-83820000D03*
X116840000Y-99060000D03*
X124460000Y-83820000D03*
X114300000Y-99060000D03*
X127000000Y-83820000D03*
X111760000Y-99060000D03*
X129540000Y-83820000D03*
X109220000Y-99060000D03*
X132080000Y-83820000D03*
X106680000Y-99060000D03*
X134620000Y-83820000D03*
X104140000Y-99060000D03*
D14*
X137160000Y-83820000D03*
G04 #@! TD*
D11*
G04 #@! TO.C,J2*
X167640000Y-94742000D03*
X167640000Y-92202000D03*
X170180000Y-94742000D03*
X170180000Y-92202000D03*
X172720000Y-94742000D03*
X172720000Y-92202000D03*
X175260000Y-94742000D03*
X175260000Y-92202000D03*
X177800000Y-94742000D03*
X177800000Y-92202000D03*
X180340000Y-94742000D03*
X180340000Y-92202000D03*
X182880000Y-94742000D03*
X182880000Y-92202000D03*
X185420000Y-94742000D03*
D12*
X185420000Y-92202000D03*
G04 #@! TD*
D15*
G04 #@! TO.C,C16*
X188722000Y-88900000D03*
X188722000Y-83900000D03*
G04 #@! TD*
G04 #@! TO.C,C15*
X129540000Y-116078000D03*
X124540000Y-116078000D03*
G04 #@! TD*
G04 #@! TO.C,C14*
X140462000Y-99060000D03*
X140462000Y-94060000D03*
G04 #@! TD*
G04 #@! TO.C,C10*
X139700000Y-116078000D03*
X134700000Y-116078000D03*
G04 #@! TD*
G04 #@! TO.C,C9*
X119380000Y-116078000D03*
X114380000Y-116078000D03*
G04 #@! TD*
G04 #@! TO.C,C8*
X149860000Y-116078000D03*
X144860000Y-116078000D03*
G04 #@! TD*
D16*
G04 #@! TO.C,R*
X197866000Y-85090000D03*
G04 #@! TD*
G04 #@! TO.C,R*
X197866000Y-142240000D03*
G04 #@! TD*
D17*
G04 #@! TO.C,U2*
X180594000Y-131826000D03*
X180594000Y-129286000D03*
D18*
X180594000Y-126746000D03*
D19*
X197254000Y-129286000D03*
G04 #@! TD*
D15*
G04 #@! TO.C,C5*
X179133500Y-113013500D03*
X179133500Y-108013500D03*
G04 #@! TD*
G04 #@! TO.C,C4*
X173402000Y-103378000D03*
X168402000Y-103378000D03*
G04 #@! TD*
G04 #@! TO.C,C2*
X179133500Y-118173500D03*
X184133500Y-118173500D03*
G04 #@! TD*
G04 #@! TO.C,C1*
X171005500Y-132397500D03*
X166005500Y-132397500D03*
G04 #@! TD*
D20*
G04 #@! TO.C,USB1*
X189293500Y-110157500D03*
X189293500Y-112657500D03*
X189293500Y-114657500D03*
D21*
X189293500Y-117157500D03*
D22*
X192003500Y-120227500D03*
X192003500Y-107087500D03*
G04 #@! TD*
D23*
G04 #@! TO.C,Y2*
X173365500Y-108013500D03*
X168465500Y-108013500D03*
G04 #@! TD*
D13*
G04 #@! TO.C,R2*
X171704000Y-100330000D03*
D15*
X181864000Y-100330000D03*
G04 #@! TD*
D24*
G04 #@! TO.C,D1*
X182880000Y-105156000D03*
D25*
X185420000Y-105156000D03*
G04 #@! TD*
D15*
G04 #@! TO.C,C7*
X179133500Y-120713500D03*
X184133500Y-120713500D03*
G04 #@! TD*
G04 #@! TO.C,C6*
X175340000Y-135890000D03*
X180340000Y-135890000D03*
G04 #@! TD*
M02*
